<svg width="14" height="13" viewBox="0 0 14 13" fill="none" xmlns="http://www.w3.org/2000/svg">
<path d="M7.58153 0.813917C7.32242 0.395362 6.67758 0.39536 6.41847 0.813917L4.59371 3.76161C4.46572 3.96837 4.24449 4.10947 3.99232 4.14517L0.572597 4.62931C-0.00176974 4.71063 -0.203242 5.39038 0.244068 5.73775L2.79162 7.71612C3.02743 7.89925 3.13831 8.18812 3.08103 8.4701L2.41463 11.7504C2.30929 12.269 2.89004 12.6719 3.38835 12.426L6.60845 10.8367C6.85353 10.7157 7.14647 10.7157 7.39156 10.8367L10.6117 12.426C11.11 12.6719 11.6907 12.269 11.5854 11.7504L10.919 8.4701C10.8617 8.18812 10.9726 7.89925 11.2084 7.71612L13.7559 5.73775C14.2032 5.39038 14.0018 4.71063 13.4274 4.62931L10.0077 4.14517C9.75552 4.10947 9.53428 3.96837 9.40629 3.76161L7.58153 0.813917Z" fill="#FFE1AB"/>
</svg>
