<svg width="336" height="94" viewBox="0 0 336 94" fill="none" xmlns="http://www.w3.org/2000/svg">
<g clip-path="url(#clip0_88_29750)">
<g clip-path="url(#clip1_88_29750)">
<path d="M104.973 35.5481H107.25L115.082 54.2946H115.272L123.104 35.5481H125.381V57.0687H123.525V39.6989H123.357L116.073 57.0687H114.281L106.997 39.6989H106.828V57.0687H104.973V35.5481ZM133.091 35.5481V57.0687H131.12V35.5481H133.091ZM155.644 35.5481V57.0687H153.725L140.971 39.0472H140.802V57.0687H138.831V35.5481H140.739L153.536 53.5905H153.704V35.5481H155.644ZM167.708 57.0687H161.383V35.5481H168.088C170.147 35.5481 171.907 35.9755 173.368 36.83C174.837 37.6848 175.962 38.9107 176.742 40.508C177.522 42.1053 177.912 44.0211 177.912 46.2558C177.912 48.5117 177.511 50.4486 176.71 52.0668C175.916 53.678 174.756 54.9145 173.232 55.7763C171.714 56.638 169.872 57.0687 167.708 57.0687ZM163.355 55.3034H167.592C169.447 55.3034 171 54.939 172.251 54.2105C173.502 53.4819 174.44 52.4416 175.066 51.0897C175.691 49.7376 176.004 48.1264 176.004 46.2558C175.997 44.3994 175.688 42.8021 175.076 41.4642C174.472 40.126 173.572 39.0999 172.378 38.3853C171.19 37.6706 169.721 37.3134 167.972 37.3134H163.355V55.3034ZM182.69 57.0687V35.5481H189.973C191.379 35.5481 192.549 35.7933 193.484 36.2837C194.425 36.774 195.131 37.443 195.602 38.2908C196.073 39.1383 196.309 40.1015 196.309 41.1805C196.309 42.0771 196.157 42.8442 195.855 43.4817C195.553 44.1191 195.142 44.6342 194.622 45.0265C194.102 45.4188 193.522 45.7025 192.883 45.8777V46.0457C193.578 46.0947 194.253 46.3399 194.906 46.7813C195.56 47.2156 196.098 47.8252 196.519 48.6098C196.941 49.3943 197.152 50.333 197.152 51.426C197.152 52.5117 196.909 53.4819 196.425 54.3367C195.94 55.1842 195.195 55.8534 194.19 56.3438C193.192 56.8272 191.92 57.0687 190.374 57.0687H182.69ZM184.661 55.3034H190.374C192.039 55.3034 193.269 54.9357 194.063 54.2001C194.864 53.4644 195.265 52.5396 195.265 51.426C195.265 50.6063 195.065 49.8636 194.664 49.1982C194.271 48.5256 193.712 47.9932 192.988 47.6009C192.271 47.2086 191.428 47.0125 190.458 47.0125H184.661V55.3034ZM184.661 45.2681H190.153C191.003 45.2681 191.748 45.0929 192.387 44.7427C193.027 44.3924 193.526 43.909 193.884 43.2925C194.242 42.6762 194.422 41.9721 194.422 41.1805C194.422 40.0385 194.049 39.1104 193.304 38.3958C192.559 37.6742 191.449 37.3134 189.973 37.3134H184.661V45.2681ZM219.606 46.3084C219.606 48.5502 219.205 50.5013 218.406 52.1615C217.605 53.8148 216.5 55.0967 215.094 56.0075C213.697 56.9111 212.087 57.363 210.267 57.363C208.447 57.363 206.835 56.9111 205.429 56.0075C204.031 55.0967 202.931 53.8148 202.13 52.1615C201.336 50.5013 200.939 48.5502 200.939 46.3084C200.939 44.0667 201.336 42.1192 202.13 40.4659C202.931 38.8057 204.034 37.5235 205.44 36.6199C206.845 35.7092 208.454 35.2539 210.267 35.2539C212.087 35.2539 213.697 35.7092 215.094 36.6199C216.5 37.5235 217.605 38.8057 218.406 40.4659C219.205 42.1192 219.606 44.0667 219.606 46.3084ZM217.687 46.3084C217.687 44.3819 217.365 42.7322 216.718 41.3591C216.072 39.9789 215.19 38.9247 214.072 38.1961C212.955 37.4675 211.687 37.1033 210.267 37.1033C208.855 37.1033 207.59 37.4675 206.473 38.1961C205.355 38.9247 204.47 39.9756 203.816 41.3486C203.17 42.7216 202.847 44.3749 202.847 46.3084C202.847 48.2348 203.17 49.8847 203.816 51.2577C204.463 52.6307 205.345 53.685 206.462 54.4208C207.579 55.1494 208.848 55.5135 210.267 55.5135C211.687 55.5135 212.955 55.1494 214.072 54.4208C215.198 53.6922 216.082 52.6413 216.729 51.2683C217.376 49.8881 217.696 48.2348 217.687 46.3084ZM230.699 57.0687H224.375V35.5481H231.079C233.138 35.5481 234.897 35.9755 236.358 36.83C237.828 37.6848 238.951 38.9107 239.732 40.508C240.512 42.1053 240.902 44.0211 240.902 46.2558C240.902 48.5117 240.501 50.4486 239.7 52.0668C238.907 53.678 237.747 54.9145 236.223 55.7763C234.704 56.638 232.864 57.0687 230.699 57.0687ZM226.344 55.3034H230.583C232.438 55.3034 233.99 54.939 235.241 54.2105C236.492 53.4819 237.431 52.4416 238.057 51.0897C238.682 49.7376 238.994 48.1264 238.994 46.2558C238.987 44.3994 238.678 42.8021 238.067 41.4642C237.463 40.126 236.564 39.0999 235.368 38.3853C234.181 37.6706 232.711 37.3134 230.962 37.3134H226.344V55.3034ZM242.641 35.5481H244.918L251.317 45.7621H251.507L257.904 35.5481H260.181L252.392 47.748V57.0687H250.43V47.748L242.641 35.5481ZM263.883 57.0687V35.5481H276.376V37.3134H265.855V45.4152H275.394V47.1805H265.855V57.0687H263.883ZM278.613 57.0687H276.548L284.399 35.5481H286.509L294.362 57.0687H292.295L285.527 38.1016H285.381L278.613 57.0687ZM280.099 48.8199H290.808V50.5852H280.099V48.8199ZM313.955 42.2733H311.973C311.824 41.5377 311.557 40.8582 311.171 40.2347C310.792 39.6042 310.315 39.0542 309.738 38.585C309.161 38.1156 308.508 37.7514 307.777 37.492C307.045 37.2329 306.257 37.1033 305.406 37.1033C304.043 37.1033 302.798 37.4572 301.675 38.1646C300.557 38.8722 299.66 39.9124 298.986 41.2856C298.318 42.6516 297.985 44.3258 297.985 46.3084C297.985 48.305 298.318 49.9862 298.986 51.3524C299.66 52.7185 300.557 53.7552 301.675 54.4626C302.798 55.1633 304.043 55.5135 305.406 55.5135C306.257 55.5135 307.045 55.384 307.777 55.1248C308.508 54.8655 309.161 54.5047 309.738 54.0424C310.315 53.573 310.792 53.023 311.171 52.3925C311.557 51.762 311.824 51.0791 311.973 50.3436H313.955C313.779 51.3313 313.449 52.2526 312.963 53.1072C312.486 53.9549 311.873 54.6975 311.129 55.3349C310.391 55.9724 309.541 56.4697 308.578 56.8272C307.616 57.1844 306.558 57.363 305.406 57.363C303.591 57.363 301.982 56.9111 300.579 56.0075C299.173 55.0967 298.068 53.8148 297.269 52.1615C296.474 50.5082 296.077 48.5571 296.077 46.3084C296.077 44.0597 296.474 42.1086 297.269 40.4554C298.068 38.8021 299.173 37.5235 300.579 36.6199C301.982 35.7092 303.591 35.2539 305.406 35.2539C306.558 35.2539 307.616 35.4325 308.578 35.7897C309.541 36.1399 310.391 36.6375 311.129 37.2819C311.873 37.9194 312.486 38.6619 312.963 39.5097C313.449 40.3573 313.779 41.2786 313.955 42.2733ZM318.584 57.0687V35.5481H331.108V37.3134H320.556V45.4152H330.442V47.1805H320.556V55.3034H331.318V57.0687H318.584Z" fill="white"/>
<mask id="mask0_88_29750" style="mask-type:luminance" maskUnits="userSpaceOnUse" x="0" y="0" width="92" height="93">
<path d="M91.1624 0H0.333984V92.4532H91.1624V0Z" fill="white"/>
</mask>
<g mask="url(#mask0_88_29750)">
<path d="M55.9145 70.1182C56.022 70.1173 56.1274 70.0888 56.219 70.0334C56.3133 69.9747 56.3829 69.8842 56.4147 69.7794C57.0022 67.9439 57.1954 66.0103 56.9821 64.099C56.7688 62.1878 56.1537 60.3396 55.1752 58.6701C56.1115 59.0558 57.0887 59.3399 58.089 59.5174C60.2316 59.9216 62.4402 59.8453 64.5482 59.2949C66.6559 58.7445 68.6076 57.734 70.2553 56.3402C70.3246 56.2844 70.3774 56.2113 70.4075 56.1284C70.444 56.0255 70.444 55.9137 70.4075 55.8108C69.4875 54.1105 68.2183 52.6128 66.679 51.4104C65.1397 50.2079 63.3632 49.3265 61.4594 48.8212C62.3985 48.4424 63.2947 47.9706 64.1341 47.4126C65.9412 46.2273 67.4493 44.6588 68.5453 42.8246C69.6412 40.9906 70.2964 38.9384 70.4618 36.8225C70.4626 36.7141 70.4325 36.6077 70.3749 36.5154C70.311 36.4262 70.2196 36.3594 70.1138 36.3247C68.2272 35.7447 66.2384 35.5488 64.2706 35.749C62.303 35.9496 60.3986 36.542 58.6761 37.4895C59.0688 36.5765 59.3606 35.6249 59.5459 34.6514C59.9585 32.5629 59.8792 30.4103 59.3141 28.3557C58.7493 26.3012 57.7131 24.3983 56.2841 22.7903C56.2213 22.7313 56.1475 22.6846 56.0667 22.6525C55.9546 22.611 55.831 22.611 55.7188 22.6525C53.9732 23.5486 52.4356 24.7849 51.2012 26.2843C49.9666 27.7835 49.0618 29.5142 48.543 31.3685C48.1465 30.4621 47.6585 29.5964 47.086 28.7843C45.8675 27.0266 44.2563 25.56 42.3735 24.4945C40.4907 23.429 38.3849 22.792 36.2135 22.6315C36.1012 22.6197 35.9884 22.6501 35.8983 22.7161C35.8069 22.7782 35.7382 22.8674 35.7026 22.9703C35.1199 24.8069 34.9301 26.7404 35.1451 28.6512C35.3601 30.5621 35.9754 32.4094 36.9529 34.0796C36.0138 33.6981 35.0376 33.4107 34.039 33.2217C31.8948 32.8207 29.6851 32.8983 27.576 33.4485C25.467 33.9989 23.5132 35.0075 21.8618 36.3987L21.8075 36.4623C21.8028 36.5046 21.8028 36.5471 21.8075 36.5893C21.7922 36.6881 21.8113 36.7887 21.8618 36.8753C22.1187 37.3488 22.4018 37.8085 22.7099 38.2521C24.6395 40.9986 27.5052 42.9907 30.799 43.8755C28.3082 44.8767 26.1502 46.5294 24.5634 48.6506C22.9764 50.7718 22.0227 53.2793 21.8075 55.8955C21.8075 55.8955 21.8075 55.8955 21.8075 55.9697C21.8075 55.9697 21.8075 55.9697 21.8075 56.0331C21.8032 56.0648 21.8032 56.0967 21.8075 56.1284C21.8302 56.1559 21.8554 56.1806 21.8836 56.2026H21.9379C21.9629 56.2083 21.989 56.2083 22.014 56.2026C23.8985 56.7742 25.8835 56.9621 27.8455 56.7545C29.8076 56.5467 31.705 55.9479 33.4193 54.9953C33.0264 55.9093 32.7312 56.8604 32.5387 57.8335C32.1745 59.6555 32.1846 61.5294 32.5692 63.3474C32.9536 65.1651 33.7046 66.8906 34.7783 68.4239C35.0839 68.8675 35.418 69.2922 35.7787 69.6946C35.8419 69.7707 35.9303 69.8231 36.0287 69.843H36.2135H36.3005C38.0488 68.9489 39.5892 67.7135 40.8257 66.2141C42.062 64.7144 42.9682 62.9827 43.4873 61.127C43.8717 62.0437 44.3564 62.917 44.9333 63.7322C46.1501 65.4927 47.7604 66.9617 49.6434 68.0291C51.5264 69.0967 53.6333 69.7348 55.8057 69.8958M69.331 55.8955C67.2593 57.519 64.7449 58.5164 62.0982 58.765C59.4513 59.0133 56.7876 58.5018 54.4358 57.2935C54.5711 56.0963 54.2285 54.8941 53.479 53.9362C53.1187 53.4636 52.6773 53.0552 52.1744 52.7291C53.0719 52.5479 53.9015 52.132 54.5741 51.5254C55.2466 50.9187 55.7364 50.1449 55.9906 49.287C58.6339 48.9972 61.3067 49.4688 63.6778 50.6433C66.0491 51.8179 68.0146 53.6441 69.331 55.8955ZM37.8879 50.9287C37.3 49.9898 37.1174 48.8624 37.3803 47.7927C37.643 46.7232 38.3298 45.7982 39.2904 45.2206C40.1483 44.6438 41.1872 44.3796 42.2251 44.4745C43.263 44.5694 44.2332 45.0173 44.9659 45.7395C43.6849 45.7171 42.4369 46.1364 41.4423 46.9231C40.4477 47.7098 39.7703 48.8134 39.5296 50.0391C39.3259 51.1627 38.6925 52.1692 37.7575 52.8561C37.2158 53.2588 36.5742 53.5145 35.8983 53.5974C36.6499 52.9624 37.3313 52.2524 37.9314 51.4793C37.9914 51.3994 38.0238 51.303 38.0238 51.2039C38.0238 51.105 37.9914 51.0086 37.9314 50.9287M54.2401 41.7257C54.8251 42.6654 55.006 43.7918 54.7433 44.8606C54.4808 45.9293 53.796 46.854 52.8376 47.4338C51.9797 48.0108 50.9408 48.2748 49.903 48.1799C48.8651 48.085 47.8949 47.6371 47.1621 46.9149C48.4432 46.9371 49.6911 46.5179 50.6857 45.7312C51.6804 44.9445 52.3578 43.841 52.5982 42.6153C52.8081 41.494 53.4402 40.4894 54.3705 39.7983C54.9383 39.4421 55.5888 39.2308 56.2624 39.184C55.51 39.8217 54.8251 40.5313 54.2183 41.3021C54.1678 41.3681 54.1362 41.4461 54.1267 41.5281C54.117 41.6099 54.1299 41.6927 54.164 41.768M58.5131 48.334C57.5229 48.2704 56.5285 48.3023 55.5447 48.4293C55.4421 48.4437 55.3469 48.4893 55.2727 48.5597C55.1985 48.6301 55.1491 48.7216 55.1317 48.8212C54.8633 49.8879 54.174 50.8086 53.2133 51.3835C52.2528 51.9584 51.0979 52.1413 49.9999 51.8923C48.9813 51.7099 48.06 51.1868 47.3951 50.4136C46.7302 49.64 46.3634 48.665 46.3575 47.6563C47.2458 48.5675 48.4379 49.1414 49.7206 49.2752C51.0034 49.409 52.2931 49.0943 53.3594 48.387C54.1114 47.8641 55.0123 47.5832 55.9361 47.5832C56.8601 47.5832 57.761 47.8641 58.5131 48.387M46.7054 45.3051C46.7561 44.1739 46.4238 43.0577 45.7596 42.1281C44.945 40.9811 43.6987 40.1931 42.2912 39.9359C41.3789 39.7904 40.5355 39.3717 39.8788 38.7379C39.2222 38.1038 38.7846 37.2862 38.6272 36.3987C39.2792 37.1309 40.0079 37.7948 40.8018 38.3792C40.8855 38.4386 40.9862 38.4705 41.0899 38.4705C41.1934 38.4705 41.2943 38.4386 41.3778 38.3792C42.3419 37.8066 43.4994 37.6286 44.5974 37.8846C45.6955 38.1408 46.645 38.8097 47.2382 39.7452C47.8296 40.5793 48.1003 41.5896 48.0028 42.5986C47.9055 43.6077 47.446 44.551 46.7054 45.2629M42.1064 40.8572C42.6816 40.958 43.2305 41.169 43.7216 41.478C44.2124 41.7872 44.6354 42.1882 44.9659 42.6576C45.4886 43.3819 45.7591 44.2506 45.7377 45.1358C44.851 44.223 43.6594 43.647 42.3767 43.5113C41.0942 43.3754 39.8035 43.6884 38.7358 44.3944C37.9846 44.9186 37.0835 45.2005 36.159 45.2005C35.2348 45.2005 34.3337 44.9186 33.5823 44.3944C34.5756 44.4671 35.5741 44.4385 36.5615 44.3098C36.6649 44.2933 36.7606 44.2456 36.8346 44.1735C36.9088 44.1012 36.9577 44.008 36.9745 43.9074C37.2453 42.8425 37.9354 41.9244 38.8959 41.3516C39.8563 40.7788 41.0098 40.5974 42.1064 40.8466M45.3682 47.3809C45.3268 48.4868 45.6465 49.5768 46.2813 50.4945C46.6855 51.0718 47.2028 51.5655 47.8037 51.9472C48.4046 52.329 49.0771 52.5911 49.7823 52.7183C50.9328 52.9248 51.9634 53.5401 52.6745 54.4447C53.0882 54.9761 53.3507 55.6043 53.4355 56.2662C52.781 55.5332 52.0525 54.8662 51.261 54.2752C51.1791 54.2167 51.0799 54.1852 50.9783 54.1852C50.8768 54.1852 50.7776 54.2167 50.6957 54.2752C49.7429 54.8258 48.6081 54.9957 47.5298 54.7489C46.4512 54.502 45.5128 53.8578 44.9115 52.9514C44.3193 52.1157 44.0483 51.1039 44.1456 50.0929C44.2429 49.082 44.7028 48.137 45.4443 47.4232M69.418 37.066C69.2178 38.9759 68.5892 40.8196 67.5765 42.4667C66.5639 44.1137 65.1919 45.5239 63.5578 46.5972C62.4322 47.3389 61.2014 47.9167 59.9046 48.3128C59.3205 47.6232 58.5538 47.1026 57.6875 46.8077C56.8209 46.5127 55.8882 46.4545 54.9903 46.6395C55.4955 45.8923 55.7818 45.0253 55.8182 44.1312C55.8547 43.2372 55.6399 42.3507 55.1968 41.567C56.8584 39.5476 59.09 38.0459 61.6169 37.2461C64.1436 36.4463 66.8554 36.3837 69.418 37.066ZM49.1952 32.7239C49.552 30.8432 50.3266 29.061 51.4647 27.5024C52.6027 25.9438 54.0771 24.6465 55.7839 23.701C57.0264 25.1897 57.9184 26.9256 58.3975 28.7864C58.8765 30.6473 58.9308 32.5878 58.5563 34.4713C58.3015 35.7714 57.8509 37.0275 57.2191 38.1991C55.9885 38.0704 54.7545 38.4079 53.7726 39.1416C53.2873 39.4926 52.8679 39.9226 52.5331 40.4125C52.3468 39.5372 51.9197 38.7279 51.2972 38.0712C50.6747 37.4145 49.8805 36.9353 48.9995 36.6847C48.8437 35.3681 48.895 34.0361 49.1517 32.7345M48.1733 37.3308C48.2125 37.3849 48.2625 37.4306 48.3204 37.4652C48.3785 37.4997 48.4429 37.5225 48.5104 37.5318C49.6034 37.7956 50.546 38.4679 51.1342 39.4032C51.7221 40.3389 51.9083 41.4623 51.6524 42.5306C51.4647 43.5217 50.9275 44.4176 50.1332 45.0635C49.339 45.7095 48.338 46.0646 47.3035 46.0677C48.2362 45.203 48.8235 44.0439 48.9609 42.7969C49.0983 41.5498 48.7767 40.2958 48.0537 39.2582C47.5177 38.5233 47.2297 37.6445 47.2297 36.743C47.2297 35.8415 47.5177 34.9625 48.0537 34.2278C47.9956 35.1965 48.0354 36.1685 48.1733 37.1296C48.1805 37.2019 48.2068 37.271 48.2494 37.3308M36.5615 23.5632C38.5206 23.764 40.4114 24.3787 42.1015 25.3645C43.7915 26.3505 45.2403 27.6838 46.3466 29.2715C47.089 30.371 47.664 31.5697 48.0537 32.8298C47.3476 33.4003 46.8146 34.1473 46.5118 34.9908C46.209 35.8341 46.1484 36.742 46.3358 37.6166C45.5677 37.1262 44.677 36.8491 43.7591 36.8155C42.8412 36.7821 41.9314 36.993 41.1279 37.4261C40.0762 36.6082 39.1533 35.6448 38.3881 34.5666C37.2707 32.9848 36.5239 31.1831 36.2008 29.2888C35.8777 27.3946 35.986 25.4545 36.518 23.6057M22.7752 36.8542C24.8445 35.2303 27.3572 34.2324 30.0025 33.9841C32.6477 33.7357 35.3097 34.2474 37.6596 35.4562C37.54 36.5788 37.837 37.7058 38.4966 38.6332L38.6272 38.8027C38.9892 39.2768 39.4302 39.6884 39.9318 40.0206C39.0377 40.1963 38.2091 40.6055 37.5351 41.2043C36.8609 41.8031 36.3666 42.5688 36.1048 43.4202C34.7529 43.5665 33.3862 43.5166 32.0494 43.2718C30.1127 42.9212 28.2783 42.1609 26.676 41.0447C25.0735 39.9285 23.742 38.4836 22.7752 36.8117M22.6772 55.6307C22.8818 53.7221 23.5124 51.8798 24.5246 50.2335C25.5368 48.587 26.9065 47.1761 28.5376 46.0994C29.6666 45.3871 30.8976 44.841 32.1908 44.4791C32.7783 45.1642 33.5458 45.6805 34.4115 45.9735C35.277 46.2662 36.208 46.3245 37.1051 46.1419C36.6013 46.8899 36.3172 47.7578 36.2827 48.6517C36.2483 49.5457 36.4648 50.4318 36.9094 51.2147C36.0577 52.2491 35.0538 53.1554 33.9302 53.9045C32.3053 54.9909 30.4556 55.7169 28.5113 56.0316C26.567 56.3464 24.5757 56.2421 22.6772 55.726M42.911 60.0575C42.5522 61.9458 41.7726 63.7346 40.6266 65.2974C39.4806 66.86 37.9965 68.1586 36.2786 69.1015C34.6119 67.0834 33.5878 64.6346 33.3327 62.0563C33.0779 59.4783 33.6031 56.8838 34.8436 54.5929C36.0694 54.7252 37.3002 54.3914 38.2793 53.661C38.7538 53.2907 39.1584 52.8426 39.4753 52.3372C39.6305 52.9793 39.903 53.5891 40.2798 54.1376C40.9277 55.078 41.8994 55.7615 43.0198 56.065C43.1699 57.3782 43.1186 58.706 42.8675 60.0044M43.5416 55.2177C42.4447 54.959 41.4978 54.2881 40.9071 53.3515C40.3164 52.415 40.1301 51.2891 40.3885 50.2191C40.576 49.227 41.1128 48.3298 41.9068 47.6821C42.7009 47.0345 43.7018 46.6769 44.7376 46.6714C43.8002 47.5352 43.2093 48.6956 43.0698 49.9452C42.9303 51.1946 43.2517 52.4516 43.9764 53.4915C44.5145 54.2234 44.8042 55.101 44.8042 56.0014C44.8042 56.9016 44.5145 57.7794 43.9764 58.5113C44.0508 57.5473 44.0218 56.5782 43.8895 55.6201C43.8749 55.5201 43.828 55.4273 43.7557 55.3551C43.6834 55.2828 43.5895 55.2346 43.4873 55.2177M45.6618 55.0801C46.4287 55.5721 47.319 55.8511 48.2371 55.8864C49.1547 55.9219 50.0649 55.7127 50.8696 55.2813C51.9344 56.1084 52.8652 57.0865 53.6312 58.1831C54.7463 59.7639 55.4917 61.5639 55.8149 63.456C56.138 65.3479 56.0309 67.2859 55.5013 69.1332C53.5405 68.9383 51.6477 68.326 49.9566 67.3396C48.2657 66.3534 46.818 65.0169 45.7161 63.4251C44.9505 62.3311 44.3568 61.1318 43.9548 59.8668C44.6782 59.3052 45.2293 58.5608 45.5477 57.7145C45.8658 56.8684 45.9394 55.9534 45.7596 55.0695M23.6557 71.3048C23.8438 71.1209 23.9754 70.8894 24.0363 70.6369C24.0829 70.3872 24.0524 70.1292 23.9494 69.8958C23.8342 69.617 23.6557 69.3672 23.4273 69.1651L22.2532 68.0426L19.459 70.8277L19.9917 71.3363L20.7963 70.5314L21.4487 71.1452C21.6641 71.3585 21.9235 71.5242 22.2097 71.6326C22.4552 71.7264 22.7234 71.7486 22.9817 71.6962C23.238 71.6256 23.4704 71.4908 23.6557 71.3048ZM22.5686 71.0397C22.3102 71.0013 22.0748 70.8732 21.9052 70.6796L21.2747 70.0867L22.3619 69.0275L22.9817 69.6204C23.1829 69.7825 23.3211 70.0068 23.3731 70.2558C23.3826 70.3642 23.3659 70.4739 23.3245 70.5747C23.2827 70.6762 23.2177 70.7662 23.1339 70.8383C23.0631 70.9216 22.9728 70.9873 22.8706 71.0298C22.7686 71.0718 22.6575 71.09 22.5468 71.0816M15.8167 65.3209C15.6602 65.1103 15.5695 64.8603 15.5558 64.6007C15.5347 64.3648 15.5877 64.1285 15.708 63.9229C15.825 63.7067 16.0021 63.5268 16.219 63.404C16.4279 63.2643 16.6726 63.1835 16.9257 63.1711C17.1684 63.1592 17.4095 63.2144 17.6216 63.3298C17.848 63.4511 18.0361 63.6306 18.1652 63.8489C18.2758 64.0125 18.3486 64.1977 18.3786 64.3915C18.4086 64.5853 18.3952 64.7831 18.3392 64.9715L18.9697 65.1302C19.0585 64.8637 19.0773 64.5796 19.0241 64.3042C18.9733 64.0102 18.8624 63.7295 18.6979 63.4782C18.4983 63.1632 18.2219 62.9014 17.8934 62.7156C17.5764 62.5499 17.2199 62.4693 16.8605 62.4827C16.475 62.4797 16.0972 62.5864 15.7732 62.7898C15.4597 62.9823 15.2046 63.2529 15.0339 63.5735C14.8587 63.8988 14.7833 64.2666 14.8164 64.6324C14.8368 65.0104 14.9608 65.376 15.1752 65.6914C15.338 65.9461 15.5482 66.1688 15.795 66.3481C16.0338 66.5049 16.3045 66.6097 16.5887 66.6552L16.7191 66.0198C16.5195 65.9904 16.3292 65.9184 16.1617 65.8085C15.9944 65.6986 15.8542 65.5536 15.7515 65.3843M18.5349 67.3119L19.7417 68.7733L20.2201 68.4025L19.0023 66.9412L19.807 66.3058L21.1769 67.9473L21.6661 67.566L19.9048 65.2572L16.8061 67.7036L18.6871 69.9698L19.1654 69.5887L17.7302 67.8836L18.5349 67.3119ZM13.2399 58.5959L13.8379 58.4055L13.2291 56.6262L14.4685 56.1284L15.1535 58.1406L15.7406 57.95L14.8164 55.2602L10.9893 56.4992L11.2068 57.1876L12.6528 56.711L13.2399 58.5959ZM16.3495 59.5597L12.0005 59.6233L12.3266 60.301H13.3378L14.1749 62.0697L13.5118 62.8003L13.8379 63.4888L16.6865 60.2481L16.3495 59.5597ZM14.6099 61.4235L13.9793 60.0997L15.8711 60.0363L14.6099 61.4235ZM11.7395 53.3008L12.3593 53.2055L12.044 51.3523L13.2399 51.151L13.5987 53.2691L14.2185 53.1738L13.7401 50.3779L9.79336 51.0134L9.92379 51.723L11.4243 51.4793L11.7395 53.3008ZM10.5545 49.5836C10.8879 49.7573 11.2642 49.838 11.6417 49.8167C12.0271 49.8095 12.4032 49.6996 12.7289 49.499C13.0108 49.2957 13.2352 49.026 13.3813 48.7153C13.5391 48.3841 13.6136 48.021 13.5987 47.6563C13.5838 47.2848 13.4795 46.9221 13.2943 46.5972C13.1084 46.2937 12.8417 46.0449 12.5223 45.8771C12.1889 45.7036 11.8126 45.6228 11.4351 45.6442C11.0496 45.6511 10.6737 45.761 10.3479 45.9618C10.0447 46.1523 9.8004 46.4194 9.6411 46.7348C9.47822 47.0645 9.40342 47.4287 9.42365 47.7939C9.42768 48.167 9.53269 48.5322 9.72812 48.8529C9.91025 49.1558 10.1733 49.4045 10.4892 49.5732M10.2173 47.0527C10.352 46.8506 10.5448 46.6923 10.7719 46.5972C10.9871 46.4752 11.2297 46.4061 11.4786 46.396C11.7305 46.3837 11.9813 46.4347 12.207 46.5441C12.4225 46.6536 12.603 46.8185 12.7289 47.0208C12.8591 47.2285 12.9303 47.4661 12.9355 47.7092C12.9472 47.9546 12.8948 48.1985 12.7833 48.4187C12.675 48.628 12.5094 48.8038 12.3049 48.9271C12.0883 49.0552 11.8406 49.1247 11.5873 49.1283C11.3355 49.1397 11.0849 49.0888 10.8588 48.9799C10.6463 48.8715 10.4664 48.7108 10.337 48.5141C10.201 48.289 10.1261 48.0338 10.1195 47.7728C10.1078 47.5274 10.1602 47.2833 10.2718 47.063M23.6775 73.7401L25.7433 71.1452L25.1562 70.7005L22.7099 73.7716L24.9387 75.4665L25.3193 74.9897L23.6775 73.7401ZM25.265 75.7204L25.9172 76.1014L26.7326 75.5407L28.4396 76.5994L28.2984 77.5742L28.9616 77.9657L29.4942 73.7297L28.8745 73.359L25.265 75.7204ZM28.5268 75.9324L27.2436 75.1911L28.7984 74.1318L28.5268 75.9324ZM71.8643 70.711L71.0599 69.9698L72.3753 68.6038L71.9296 68.2015L70.614 69.5676L69.8531 68.8792L71.3425 67.333L70.8858 66.92L68.8962 69.0381L71.81 71.6859L73.854 69.5676L73.3975 69.1546L71.8643 70.711ZM77.3007 62.4932C77.4514 62.2326 77.5441 61.9439 77.5727 61.6461C77.5964 61.3899 77.5432 61.1325 77.4204 60.9046C77.282 60.6861 77.0874 60.507 76.8548 60.3857C76.6207 60.2559 76.3516 60.197 76.083 60.2162C75.8254 60.2411 75.5805 60.3367 75.3759 60.4916C75.1355 60.6821 74.9387 60.9203 74.8002 61.1906L74.0278 62.6097L77.5288 64.4418L77.8772 63.8064L76.8656 63.277L77.3007 62.4932ZM76.3222 62.9804L74.9302 62.2603L75.3328 61.5083C75.4412 61.2741 75.6295 61.0836 75.8655 60.9682C75.9689 60.9319 76.0788 60.9188 76.1886 60.9296C76.2978 60.9408 76.4025 60.9756 76.4958 61.0319C76.5963 61.0754 76.6854 61.1409 76.7551 61.2238C76.8247 61.3064 76.8743 61.4039 76.8987 61.5083C76.9375 61.7632 76.8792 62.0229 76.735 62.2392L76.3222 62.9804ZM68.9723 69.7899L68.5701 69.3241L65.9933 71.4417L66.4064 71.9082L67.4067 71.0712L69.5812 73.5492L70.1465 73.0836L67.972 70.595L68.9723 69.7899ZM67.048 73.4332C66.8508 73.3905 66.6468 73.3905 66.4498 73.4332C66.2054 73.4947 65.9658 73.5723 65.7323 73.6661C65.5665 73.7352 65.3959 73.7919 65.2214 73.8352C65.1069 73.8612 64.9879 73.8612 64.8734 73.8352C64.8204 73.8303 64.7691 73.8128 64.7239 73.7855C64.6786 73.7583 64.6404 73.7206 64.6124 73.6765C64.5721 73.6107 64.5509 73.5359 64.5509 73.4598C64.5509 73.3829 64.5721 73.3081 64.6124 73.2423C64.7066 73.0424 64.8624 72.8758 65.0583 72.7661C65.2108 72.6598 65.3795 72.5774 65.5583 72.522C65.7474 72.4563 65.945 72.4172 66.1454 72.406L66.0042 71.8122C65.7805 71.8158 65.5595 71.8592 65.3518 71.9397C65.124 72.0215 64.9084 72.1318 64.7102 72.2682C64.4555 72.4284 64.2403 72.6423 64.0796 72.8927C63.9479 73.0842 63.8761 73.3087 63.8731 73.5389C63.8833 73.7464 63.9509 73.9479 64.0688 74.1212C64.1901 74.3051 64.3754 74.4408 64.5906 74.5023C64.7861 74.5568 64.9932 74.5568 65.1887 74.5023C65.4364 74.4395 65.6795 74.3617 65.9172 74.2696C66.0798 74.2024 66.2469 74.1457 66.4174 74.1003C66.5355 74.0757 66.6578 74.0757 66.7761 74.1003C66.8809 74.1184 66.9742 74.1751 67.0369 74.259C67.0751 74.3232 67.0952 74.3968 67.0952 74.4708C67.0952 74.545 67.0751 74.6185 67.0369 74.6828C66.9322 74.8855 66.77 75.0541 66.5694 75.1702C66.3699 75.3023 66.1496 75.4023 65.9172 75.4665C65.6984 75.5289 65.4709 75.5576 65.243 75.5513L65.3628 76.1547C65.6212 76.1723 65.8805 76.1357 66.1237 76.049C66.411 75.9588 66.6824 75.8267 66.9284 75.6567C67.1837 75.4931 67.4018 75.2805 67.5698 75.0324C67.6974 74.8436 67.7654 74.6225 67.7654 74.3968C67.7654 74.1869 67.697 73.9836 67.5698 73.8143C67.5146 73.7213 67.4411 73.6395 67.3535 73.5738C67.2657 73.5087 67.1654 73.4605 67.0588 73.4332M82.4974 47.063V46.3324H81.0953L78.5404 44.7757V45.4852L80.4535 46.5972L78.4859 47.7092V48.5035L81.1061 46.9891L82.4974 47.063ZM77.8772 52.9514L77.0723 56.1284L77.681 56.2768L77.9963 55.027L81.2583 55.8108L81.4428 55.0695L78.1814 54.2858L78.4967 53.0362L77.8772 52.9514ZM76.246 58.2465L79.3121 61.2859L79.595 60.5975L78.8771 59.9091L79.6058 58.0983H80.6057L80.8885 57.3888L76.5397 57.6111L76.246 58.2465ZM78.9748 58.1195L78.4312 59.475L77.0723 58.1831L78.9748 58.1195ZM78.312 49.7742L79.9531 49.9332L79.7033 51.9453L78.0616 51.7758L77.9855 52.4959L81.954 52.8984L82.0301 52.1783L80.3229 52.009L80.5404 50.0073L82.2474 50.1766L82.3235 49.4671L78.3444 49.0647L78.312 49.7742ZM75.3545 64.3148C75.0644 64.0998 74.7178 63.9679 74.3552 63.9341C73.9918 63.9005 73.6265 63.9662 73.2999 64.1241C72.9531 64.286 72.6567 64.5346 72.4406 64.8442C72.2044 65.1549 72.0547 65.5197 72.0057 65.9034C71.951 66.2633 72.0038 66.6309 72.1578 66.9623C72.2998 67.2933 72.5381 67.5767 72.8426 67.7777C73.1405 67.9944 73.4944 68.1265 73.8648 68.159C74.2388 68.1992 74.6164 68.1328 74.9525 67.9684C75.2985 67.8065 75.5949 67.5581 75.811 67.2483C76.0486 66.9395 76.1958 66.5732 76.2352 66.1893C76.2942 65.8304 76.2446 65.4625 76.0938 65.1302C75.9482 64.7981 75.7062 64.5147 75.3981 64.3148M75.5612 66.1363C75.5296 66.3772 75.4355 66.6068 75.2892 66.8036C75.1448 67.0033 74.9504 67.1637 74.7241 67.2694C74.5038 67.3713 74.2589 67.4117 74.017 67.3859C73.7664 67.3533 73.5281 67.2624 73.3214 67.1212C73.1189 66.9731 72.9552 66.7807 72.8426 66.5599C72.7421 66.3485 72.7039 66.1135 72.7343 65.882C72.7629 65.6404 72.857 65.4103 73.0063 65.215C73.1477 65.0127 73.343 64.8516 73.5711 64.7489C73.7851 64.6381 74.0257 64.5868 74.2676 64.6007C74.5138 64.6339 74.7494 64.7246 74.9525 64.8654C75.1598 65.0076 75.325 65.2014 75.4306 65.4267C75.5347 65.6373 75.5762 65.8721 75.5504 66.1046M63.2642 74.4072C62.9544 74.2284 62.6024 74.1296 62.2422 74.1212C61.8635 74.1254 61.4912 74.2163 61.1549 74.3862C60.8161 74.5598 60.5252 74.8107 60.3068 75.1169C60.1037 75.4086 59.9871 75.7497 59.9699 76.1014C59.9407 76.4701 60.024 76.8385 60.2091 77.1608C60.3747 77.4846 60.631 77.7566 60.9484 77.9448C61.2535 78.1343 61.6084 78.2335 61.9704 78.2307C62.3501 78.2328 62.7241 78.142 63.0576 77.9657C63.4018 77.7993 63.6941 77.547 63.9057 77.235C64.1159 76.9427 64.2365 76.5988 64.2537 76.2429C64.2711 75.8861 64.1843 75.5331 64.0035 75.2226C63.8419 74.8994 63.5894 74.6276 63.2752 74.4395M63.2752 76.9281C63.1391 77.1335 62.9472 77.2986 62.7207 77.4043C62.5004 77.5197 62.2532 77.5782 62.003 77.5742C61.7639 77.5673 61.5308 77.4979 61.329 77.3728C61.1166 77.2386 60.944 77.0518 60.8288 76.8324C60.7037 76.617 60.6435 76.3707 60.655 76.1232C60.6618 75.8897 60.733 75.6631 60.8615 75.4665C61.0054 75.2645 61.195 75.0981 61.4159 74.9793C61.6381 74.8688 61.8839 74.8107 62.1334 74.81C62.377 74.8206 62.6132 74.8933 62.8185 75.0218C63.0207 75.1596 63.1859 75.3443 63.2996 75.5576C63.4132 75.7715 63.4719 76.0093 63.4709 76.2498C63.469 76.4868 63.3973 76.7191 63.2642 76.9169M37.3008 76.9596L34.0933 75.9009L33.8976 76.4834L35.1479 76.896L34.0608 79.9992L34.7565 80.2319L35.8438 77.1183L37.0941 77.5315L37.3008 76.9596ZM33.2997 75.5931C33.1091 75.4464 32.9009 75.3219 32.6799 75.2226C32.4083 75.0939 32.1121 75.0218 31.8102 75.0106C31.5736 74.9912 31.337 75.0463 31.136 75.1702C30.9526 75.2757 30.808 75.4344 30.7229 75.6253C30.6205 75.8212 30.5934 76.0469 30.6468 76.2602C30.6988 76.4513 30.8041 76.6231 30.9513 76.7582C31.1298 76.9384 31.3223 77.105 31.5274 77.2559C31.7014 77.3832 31.8428 77.4994 31.9406 77.5846C32.032 77.6622 32.1028 77.7602 32.1471 77.8706C32.1689 77.9169 32.18 77.9672 32.18 78.0189C32.18 78.0699 32.1689 78.1202 32.1471 78.1671C32.1157 78.2356 32.0657 78.2943 32.0025 78.337C31.9393 78.3804 31.8653 78.4055 31.7884 78.4104C31.5587 78.4231 31.3297 78.3755 31.1251 78.2728C30.9048 78.1707 30.703 78.035 30.5272 77.8706C30.3574 77.7209 30.2143 77.5461 30.1032 77.351L29.6357 77.7539C29.7499 77.9796 29.9132 78.1783 30.114 78.3364C30.3398 78.5285 30.5925 78.6894 30.8643 78.8126C31.141 78.9398 31.4398 79.0153 31.7449 79.0356C31.9802 79.0419 32.2128 78.9874 32.4191 78.8762C32.601 78.7642 32.7448 78.6021 32.8322 78.4104C32.9375 78.2189 32.9611 77.9944 32.8975 77.7854C32.8389 77.5979 32.7344 77.4273 32.593 77.2883C32.4138 77.1114 32.2213 76.9484 32.0167 76.8009C31.8428 76.6736 31.7122 76.5574 31.6145 76.4722C31.5229 76.3965 31.4489 76.3029 31.397 76.1974C31.373 76.1511 31.3607 76.1002 31.3607 76.049C31.3607 75.9973 31.373 75.9463 31.397 75.9009C31.4273 75.8294 31.4765 75.7673 31.5397 75.7212C31.6026 75.6743 31.6773 75.6449 31.7557 75.6358C31.9815 75.6149 32.2082 75.6589 32.4081 75.7631C32.5773 75.84 32.7346 75.94 32.8756 76.0596C33.0289 76.1862 33.1642 76.3323 33.2778 76.4937L33.7345 76.0702C33.6133 75.889 33.4627 75.7282 33.2889 75.5931M57.5236 77.0972C57.2611 76.8624 56.931 76.7106 56.5777 76.663C56.1923 76.5973 55.7962 76.6267 55.4252 76.7476L53.6639 77.3092L54.8054 81.0264L56.4798 80.4858C56.8593 80.3864 57.2096 80.2019 57.5017 79.9459C57.8776 79.5621 58.082 79.0496 58.0697 78.5188C58.0574 77.9887 57.8299 77.4853 57.4366 77.1183M57.3171 78.9502C57.2602 79.1783 57.1353 79.3846 56.9583 79.5439C56.7632 79.7181 56.5285 79.8453 56.2733 79.9145L55.3382 80.1894L54.5554 77.6266L55.4794 77.3622C55.7351 77.2792 56.0074 77.2574 56.2733 77.2986C56.5094 77.3392 56.7285 77.4462 56.9038 77.6055C57.0823 77.7797 57.2132 77.9944 57.2844 78.2307C57.3489 78.4664 57.3489 78.7145 57.2844 78.9502M51.9895 77.5525L52.4025 80.1579L49.815 77.8811L49.206 77.9657L49.815 81.8102L50.5435 81.7039L50.1302 79.0986L52.718 81.3864L53.3159 81.2906L52.718 77.447L51.9895 77.5525ZM46.2924 78.0714L44.5743 82.0004H45.3355L45.7161 81.1004H47.7057L48.1298 81.9898H48.9018L47.086 78.0608L46.2924 78.0714ZM45.9987 80.4858L46.7054 78.7706L47.4882 80.4858H45.9987ZM57.306 15.3453L59.1761 16.0549V17.0291L59.9046 17.3045L59.6654 13.0684L59.0457 12.793L55.8927 15.7795L56.6102 16.0549L57.306 15.3453ZM59.0457 13.5873L59.1218 15.4406L57.7193 14.9111L59.0457 13.5873ZM54.4685 14.8264L52.4244 14.4133L53.1094 11.2363L52.3809 11.088L51.5763 14.8264L54.3487 15.3771L54.4685 14.8264ZM76.0285 33.3064L76.3222 33.9629L77.6157 33.4229L80.6057 33.8148L80.312 33.1581L78.0616 32.8298L79.3774 31.0294L79.0624 30.3199L77.3115 32.7664L76.0285 33.3064ZM48.0318 13.5344L50.0215 13.7038L50.3368 14.6357L51.1087 14.6993L49.6627 10.675L48.9344 10.5902L46.7599 14.3074L47.5208 14.371L48.0318 13.5344ZM49.2279 11.4163L49.8258 13.1742L48.3363 13.0472L49.2279 11.4163ZM63.971 19.592L64.83 19.0731L66.4498 20.1215L66.2325 21.0852L66.8631 21.5193L67.722 17.2833L67.1241 16.9445L63.3948 19.0625L63.971 19.592ZM66.9935 17.8022L66.5913 19.6026L65.3628 18.7554L66.9935 17.8022ZM73.2999 28.5195L75.4743 27.1959L74.376 29.3246L74.5496 29.5998H77.1045L74.8433 30.9554L75.2131 31.5378L78.6165 29.4727L78.3006 28.975H75.2239L76.6589 26.3169L76.333 25.8085L72.9302 27.8419L73.2999 28.5195ZM72.4514 27.3441L72.9302 26.9522L71.4948 25.2577L72.3429 24.5801L73.5711 26.0309L74.0386 25.6496L72.821 24.1457L73.615 23.5104L74.9955 25.1413L75.4851 24.7602L73.6258 22.5679L70.5487 25.0354L72.4514 27.3441ZM68.4832 23.1079C68.762 23.3719 69.101 23.5679 69.4725 23.6799C69.8263 23.7887 70.2059 23.7887 70.5597 23.6799C70.9161 23.5816 71.2365 23.3869 71.4837 23.1185C71.7341 22.8604 71.9105 22.5425 71.9949 22.1972C72.0761 21.8446 72.0496 21.4764 71.9188 21.1382C71.7759 20.7811 71.5486 20.4617 71.2556 20.2062L69.9181 19.0625L67.1892 21.9006L68.4832 23.1079ZM70.0596 20.0474L70.7662 20.6934C70.9639 20.8683 71.1165 21.086 71.2121 21.3289C71.2823 21.5496 71.2823 21.7859 71.2121 22.0065C71.1538 22.2462 71.03 22.4658 70.8532 22.6419C70.681 22.823 70.4639 22.9579 70.2226 23.0338C69.9917 23.0972 69.747 23.0972 69.5159 23.0338C69.2621 22.9526 69.0312 22.8148 68.8419 22.6315L68.1352 21.9854L70.0596 20.0474ZM61.0572 17.6857C61.2684 17.9944 61.5563 18.2457 61.8943 18.4164C62.1618 18.5636 62.4582 18.6538 62.764 18.6812C63.0479 18.7156 63.336 18.6792 63.6013 18.5753L63.3948 18.0034C63.2061 18.0714 63.0042 18.099 62.8036 18.0844C62.6028 18.0698 62.4078 18.0133 62.2314 17.9187C62.0058 17.8019 61.8147 17.6305 61.6769 17.421C61.5421 17.2265 61.4666 16.9988 61.4594 16.7644C61.4573 16.5164 61.5209 16.2719 61.6443 16.0549C61.7607 15.8328 61.9375 15.6459 62.1553 15.5147C62.3622 15.393 62.5986 15.3272 62.8403 15.3241C63.0956 15.3271 63.3462 15.3926 63.5686 15.5147C63.7461 15.605 63.9019 15.7311 64.0257 15.8844C64.1494 16.0378 64.2382 16.215 64.2863 16.4043L64.9169 16.2455C64.8586 15.9744 64.7356 15.7205 64.5581 15.5041C64.3631 15.2732 64.1229 15.0825 63.8515 14.9428C63.5199 14.7589 63.1456 14.6605 62.764 14.6569C62.4046 14.66 62.0522 14.755 61.742 14.9323C61.4244 15.1186 61.1649 15.3858 60.9919 15.7054C60.8117 16.0302 60.7218 16.3953 60.7309 16.7644C60.7427 17.116 60.8558 17.4573 61.0572 17.7493M15.8928 26.8569L18.6762 28.7101L19.0894 28.1065L16.3168 26.2638L17.0562 25.2049L16.5343 24.8659L14.6316 27.5984L15.1535 27.9372L15.8928 26.8569ZM22.0793 24.4211L21.601 24.0293L20.144 25.6919L19.3068 25.0037L20.5571 23.574L20.0896 23.1821L18.8392 24.6118L18.0456 23.9551L19.459 22.3453L18.9915 21.9537L17.0997 24.0718L20.1331 26.5923L22.0793 24.4211ZM23.1666 23.3622L22.3727 22.536L23.0359 21.9325L23.1447 21.8264L24.5365 22.1336L25.1344 21.6041L23.5688 21.2653C23.6962 21.0316 23.742 20.764 23.6994 20.5028C23.647 20.2423 23.523 20.0008 23.3404 19.8038C23.1604 19.6091 22.9263 19.4692 22.6664 19.4014C22.4183 19.3276 22.1535 19.3276 21.9052 19.4014C21.6139 19.5066 21.3474 19.6688 21.1225 19.8779L19.9156 20.9369L22.6229 23.7964L23.1666 23.3622ZM20.992 20.9688L21.6336 20.3968C21.8119 20.2064 22.0555 20.086 22.3185 20.058C22.4279 20.0554 22.5366 20.0769 22.6365 20.121C22.7361 20.1649 22.8246 20.2303 22.8947 20.3121C22.9751 20.3859 23.0368 20.477 23.0745 20.5782C23.1123 20.6793 23.1252 20.7877 23.1121 20.8946C23.0616 21.1469 22.9187 21.3726 22.7099 21.5299L22.0685 22.1018L20.992 20.9688ZM43.5742 14.4663L43.4546 11.8399L45.7814 14.371H46.3901L46.2052 10.4844H45.4769L45.5965 13.1107L43.2263 10.5902H42.6065L42.7914 14.4663H43.5742ZM15.6537 34.2489L11.9461 32.8298L11.6743 33.4971L15.3818 34.9479L15.6537 34.2489ZM16.3712 32.6392L13.9684 31.4424L17.3824 30.7117L17.6542 30.1929L14.1098 28.403L13.7727 29.0492L16.1756 30.2459L12.7615 30.9554L12.4897 31.4743L16.0342 33.264L16.3712 32.6392ZM37.0941 15.5994L36.007 11.861L35.3001 12.0729L36.3874 15.8007L37.0941 15.5994ZM37.9314 14.3816C38.1678 14.6473 38.4771 14.8419 38.8229 14.9428C39.1757 15.0444 39.5485 15.0625 39.9102 14.9958C40.3054 14.94 40.6796 14.787 40.9975 14.551C41.2797 14.3292 41.494 14.0362 41.617 13.7038C41.7468 13.3653 41.7733 12.9975 41.6933 12.6448C41.6327 12.2905 41.4707 11.9601 41.2258 11.6916C40.9871 11.4259 40.679 11.2282 40.3342 11.1198C39.9812 11.0182 39.6085 11.0001 39.247 11.0668C38.8492 11.1214 38.4739 11.2786 38.1597 11.5222C37.7414 11.8726 37.4825 12.3702 37.4399 12.906C37.3971 13.4418 37.5737 13.9724 37.9314 14.3816ZM38.2358 12.56C38.3194 12.34 38.4574 12.1435 38.638 11.9882C38.8321 11.8332 39.0646 11.7309 39.3121 11.6916C39.5542 11.6272 39.8095 11.6272 40.0514 11.6916C40.2815 11.7651 40.4852 11.9011 40.6387 12.0835C40.8011 12.2716 40.9099 12.498 40.954 12.7401C41.0142 12.9766 41.0142 13.2237 40.954 13.4602C40.8722 13.6885 40.7276 13.8902 40.5357 14.0434C40.3438 14.1967 40.1123 14.2953 39.8667 14.3286C39.6246 14.3925 39.3695 14.3925 39.1274 14.3286C38.9014 14.2473 38.6997 14.1127 38.5401 13.9368C38.3798 13.7474 38.2715 13.5215 38.2248 13.2802C38.165 13.0401 38.165 12.7895 38.2248 12.5495M26.3412 20.7675L24.7975 18.6494L28.1462 19.5708L28.6464 19.2213L26.3522 16.0442L25.7541 16.4573L27.3089 18.5753L23.9494 17.654L23.4492 18.0034L25.7433 21.1805L26.3412 20.7675ZM32.7018 13.5873L33.9086 16.6479L34.6045 16.3937L33.3866 13.3331L34.6261 12.8671L34.3978 12.2953L31.2447 13.4814L31.4623 14.0532L32.7018 13.5873ZM29.6899 18.5965V17.6222L31.4623 16.722L32.2342 17.3469L32.9191 16.9974L29.4834 14.3498L28.8421 14.6781L29.0812 18.9142L29.6899 18.5965ZM30.9078 16.3301L29.5704 17.0079L29.4291 15.1653L30.9078 16.3301ZM80.1929 38.8981C80.0831 38.8981 79.9762 38.9298 79.885 38.9892C79.7939 39.0483 79.722 39.1327 79.6804 39.2314C79.6386 39.3301 79.6272 39.4387 79.6488 39.5436C79.6702 39.6482 79.7235 39.7446 79.8011 39.82C79.8784 39.8957 79.9768 39.9471 80.0845 39.9678C80.1923 39.9887 80.3036 39.9781 80.4047 39.9371C80.5058 39.8963 80.5928 39.827 80.6538 39.7382C80.7149 39.6495 80.7471 39.5451 80.7471 39.4381C80.7471 39.295 80.689 39.1576 80.5849 39.0562C80.4808 38.9549 80.34 38.8981 80.1929 38.8981ZM12.0223 39.9572C12.1324 39.9591 12.2406 39.9293 12.3332 39.8714C12.4258 39.8133 12.4985 39.7296 12.5423 39.6311C12.5859 39.5326 12.5983 39.4237 12.5782 39.3183C12.5581 39.2128 12.5062 39.1156 12.4291 39.0391C12.352 38.9623 12.2532 38.9099 12.1453 38.8883C12.0375 38.8666 11.9255 38.8765 11.8235 38.9171C11.7215 38.9577 11.6343 39.0268 11.5728 39.116C11.5114 39.2048 11.4786 39.3098 11.4786 39.417C11.4786 39.5584 11.5354 39.6943 11.6371 39.7951C11.7388 39.8961 11.8771 39.9543 12.0223 39.9572Z" fill="white"/>
<path d="M37.875 77.0107L38.5564 77.2249L39.014 79.3106L39.0568 79.3239L40.6765 77.8883L41.3582 78.1016L39.1391 80.0028L38.6372 81.5231L38.0393 81.3357L38.5412 79.8155L37.875 77.0107Z" fill="white"/>
</g>
</g>
</g>
<defs>
<clipPath id="clip0_88_29750">
<rect width="335" height="93" fill="white" transform="translate(0.166992 0.5)"/>
</clipPath>
<clipPath id="clip1_88_29750">
<rect width="335" height="93" fill="white" transform="translate(0.166992 0.5)"/>
</clipPath>
</defs>
</svg>
