<svg width="336" height="94" viewBox="0 0 336 94" fill="none" xmlns="http://www.w3.org/2000/svg">
<g clip-path="url(#clip0_926_2329)">
<path d="M79 36.2942H81.2767L89.1087 55.0407H89.2985L97.1305 36.2942H99.4074V57.8148H97.5522V40.445H97.3834L90.0997 57.8148H88.3077L81.0238 40.445H80.8552V57.8148H79V36.2942ZM107.118 36.2942V57.8148H105.147V36.2942H107.118ZM129.671 36.2942V57.8148H127.752L114.998 39.7933H114.829V57.8148H112.858V36.2942H114.766L127.562 54.3366H127.731V36.2942H129.671ZM141.735 57.8148H135.41V36.2942H142.114C144.173 36.2942 145.934 36.7216 147.395 37.5761C148.864 38.4309 149.989 39.6568 150.768 41.2541C151.549 42.8514 151.939 44.7671 151.939 47.0019C151.939 49.2578 151.538 51.1947 150.737 52.8129C149.943 54.4241 148.783 55.6606 147.258 56.5224C145.74 57.3841 143.899 57.8148 141.735 57.8148ZM137.381 56.0495H141.619C143.474 56.0495 145.027 55.6851 146.278 54.9566C147.529 54.228 148.467 53.1877 149.093 51.8358C149.718 50.4837 150.031 48.8725 150.031 47.0019C150.024 45.1455 149.714 43.5482 149.103 42.2103C148.499 40.8721 147.599 39.846 146.405 39.1313C145.217 38.4167 143.748 38.0595 141.998 38.0595H137.381V56.0495ZM156.716 57.8148V36.2942H164C165.406 36.2942 166.576 36.5394 167.51 37.0298C168.452 37.5201 169.158 38.1891 169.629 39.0369C170.1 39.8844 170.335 40.8476 170.335 41.9266C170.335 42.8232 170.184 43.5903 169.882 44.2277C169.58 44.8652 169.169 45.3803 168.649 45.7726C168.129 46.1649 167.549 46.4485 166.91 46.6238V46.7918C167.605 46.8408 168.28 47.086 168.933 47.5273C169.587 47.9617 170.124 48.5713 170.546 49.3559C170.968 50.1404 171.179 51.0791 171.179 52.1721C171.179 53.2578 170.936 54.228 170.451 55.0828C169.966 55.9303 169.221 56.5995 168.217 57.0899C167.219 57.5733 165.947 57.8148 164.401 57.8148H156.716ZM158.688 56.0495H164.401C166.066 56.0495 167.296 55.6818 168.09 54.9462C168.891 54.2105 169.292 53.2857 169.292 52.1721C169.292 51.3524 169.091 50.6097 168.691 49.9443C168.297 49.2717 167.739 48.7393 167.015 48.347C166.298 47.9547 165.455 47.7586 164.485 47.7586H158.688V56.0495ZM158.688 46.0142H164.179C165.03 46.0142 165.775 45.839 166.414 45.4887C167.053 45.1385 167.553 44.6551 167.911 44.0386C168.269 43.4222 168.449 42.7182 168.449 41.9266C168.449 40.7846 168.076 39.8565 167.331 39.1419C166.586 38.4203 165.476 38.0595 164 38.0595H158.688V46.0142ZM193.633 47.0545C193.633 49.2963 193.232 51.2474 192.433 52.9076C191.631 54.5609 190.527 55.8428 189.121 56.7536C187.724 57.6572 186.114 58.1091 184.294 58.1091C182.474 58.1091 180.861 57.6572 179.456 56.7536C178.058 55.8428 176.958 54.5609 176.157 52.9076C175.363 51.2474 174.965 49.2963 174.965 47.0545C174.965 44.8128 175.363 42.8653 176.157 41.212C176.958 39.5518 178.061 38.2696 179.467 37.366C180.872 36.4553 182.481 36 184.294 36C186.114 36 187.724 36.4553 189.121 37.366C190.527 38.2696 191.631 39.5518 192.433 41.212C193.232 42.8653 193.633 44.8128 193.633 47.0545ZM191.714 47.0545C191.714 45.1279 191.392 43.4783 190.745 42.1052C190.099 40.725 189.216 39.6707 188.099 38.9422C186.982 38.2136 185.714 37.8494 184.294 37.8494C182.882 37.8494 181.617 38.2136 180.499 38.9422C179.382 39.6707 178.497 40.7217 177.843 42.0947C177.197 43.4677 176.873 45.121 176.873 47.0545C176.873 48.9809 177.197 50.6308 177.843 52.0038C178.49 53.3768 179.372 54.4311 180.489 55.1669C181.606 55.8954 182.875 56.2596 184.294 56.2596C185.714 56.2596 186.982 55.8954 188.099 55.1669C189.225 54.4383 190.109 53.3874 190.756 52.0144C191.402 50.6342 191.723 48.9809 191.714 47.0545ZM204.726 57.8148H198.401V36.2942H205.106C207.164 36.2942 208.924 36.7216 210.385 37.5761C211.854 38.4309 212.978 39.6568 213.758 41.2541C214.539 42.8514 214.929 44.7671 214.929 47.0019C214.929 49.2578 214.528 51.1947 213.727 52.8129C212.934 54.4241 211.774 55.6606 210.249 56.5224C208.731 57.3841 206.891 57.8148 204.726 57.8148ZM200.371 56.0495H204.61C206.465 56.0495 208.017 55.6851 209.268 54.9566C210.519 54.228 211.458 53.1877 212.083 51.8358C212.709 50.4837 213.021 48.8725 213.021 47.0019C213.014 45.1455 212.705 43.5482 212.094 42.2103C211.49 40.8721 210.591 39.846 209.395 39.1313C208.208 38.4167 206.738 38.0595 204.989 38.0595H200.371V56.0495ZM216.667 36.2942H218.945L225.343 46.5082H225.534L231.931 36.2942H234.208L226.418 48.4941V57.8148H224.457V48.4941L216.667 36.2942ZM237.91 57.8148V36.2942H250.403V38.0595H239.882V46.1613H249.421V47.9266H239.882V57.8148H237.91ZM252.64 57.8148H250.574L258.426 36.2942H260.535L268.389 57.8148H266.322L259.554 38.8477H259.407L252.64 57.8148ZM254.126 49.566H264.835V51.3313H254.126V49.566ZM287.982 43.0194H286C285.851 42.2838 285.584 41.6043 285.198 40.9808C284.819 40.3503 284.342 39.8003 283.765 39.3311C283.188 38.8616 282.535 38.4975 281.804 38.2381C281.072 37.979 280.283 37.8494 279.433 37.8494C278.07 37.8494 276.825 38.2033 275.702 38.9107C274.584 39.6183 273.687 40.6585 273.013 42.0317C272.345 43.3977 272.012 45.0719 272.012 47.0545C272.012 49.0511 272.345 50.7323 273.013 52.0985C273.687 53.4646 274.584 54.5013 275.702 55.2087C276.825 55.9094 278.07 56.2596 279.433 56.2596C280.283 56.2596 281.072 56.1301 281.804 55.8709C282.535 55.6116 283.188 55.2508 283.765 54.7885C284.342 54.3191 284.819 53.7691 285.198 53.1386C285.584 52.5081 285.851 51.8252 286 51.0897H287.982C287.806 52.0774 287.475 52.9987 286.99 53.8533C286.513 54.701 285.9 55.4436 285.156 56.081C284.418 56.7185 283.568 57.2158 282.605 57.5733C281.643 57.9305 280.585 58.1091 279.433 58.1091C277.618 58.1091 276.009 57.6572 274.605 56.7536C273.2 55.8428 272.095 54.5609 271.296 52.9076C270.501 51.2543 270.104 49.3032 270.104 47.0545C270.104 44.8058 270.501 42.8547 271.296 41.2014C272.095 39.5482 273.2 38.2696 274.605 37.366C276.009 36.4553 277.618 36 279.433 36C280.585 36 281.643 36.1786 282.605 36.5358C283.568 36.886 284.418 37.3836 285.156 38.028C285.9 38.6655 286.513 39.408 286.99 40.2558C287.475 41.1034 287.806 42.0247 287.982 43.0194ZM292.611 57.8148V36.2942H305.135V38.0595H294.582V46.1613H304.469V47.9266H294.582V56.0495H305.345V57.8148H292.611Z" fill="white"/>
<path d="M29.0016 30.9999C30.837 30.9696 32.5903 30.1912 33.8943 28.8276C35.1984 27.464 35.9521 25.6208 35.9978 23.684C36.0436 21.7472 35.3777 19.8667 34.1396 18.4362C32.9015 17.0058 31.1872 16.1361 29.3555 16.0095C28.4087 15.9588 27.462 16.1119 26.5728 16.4592C25.6838 16.8065 24.8709 17.3409 24.1834 18.03C23.496 18.7191 22.9484 19.5484 22.5738 20.4676C22.1994 21.3868 22.0057 22.3767 22.0048 23.3774C21.97 24.3682 22.1256 25.3561 22.462 26.2819C22.7984 27.2076 23.3089 28.0519 23.9625 28.764C24.6161 29.4761 25.3996 30.0412 26.2656 30.4255C27.1316 30.8098 28.0622 31.0051 29.0016 30.9999Z" fill="white"/>
<path d="M0 25C2.71471 25.0426 5.37537 25.7865 7.73713 27.1633C10.4084 28.7314 12.967 30.4943 15.3933 32.4383C17.7174 34.2643 20.2641 35.7692 22.9686 36.9145C25.0873 37.7551 27.3493 38.147 29.6189 38.067C31.8885 37.9869 34.1191 37.4365 36.1768 36.4487C39.4036 34.8136 42.4667 32.8574 45.3221 30.6079C47.8026 28.6638 50.5243 27.0688 53.4154 25.8653C54.8602 25.2899 56.3981 25.002 57.9475 25.0166C58.077 25.2329 57.9475 25.3162 57.7695 25.3994C52.9194 29.2733 48.6158 33.8208 44.9822 38.9115C41.6719 43.1877 38.8379 47.8317 36.5328 52.7564C34.4337 57.7014 32.7179 62.8094 31.4018 68.0324C30.5924 71.1774 29.7831 74.3225 29.2003 77.5008C29.2015 77.6124 29.1675 77.7214 29.1032 77.8114C29.039 77.9014 28.9482 77.9676 28.8443 78L28.213 75.2377C26.4327 66.9792 23.8403 58.9281 20.4758 51.2088C16.6418 42.6836 11.1367 35.064 4.30558 28.8273C2.99765 27.6386 1.62501 26.5275 0.194282 25.4992C0.0970954 25.3162 0 25.2495 0 25Z" fill="white"/>
</g>
<defs>
<clipPath id="clip0_926_2329">
<rect width="335" height="93" fill="white" transform="translate(0.166992 0.5)"/>
</clipPath>
</defs>
</svg>
