<svg width="108" height="108" viewBox="0 0 108 108" fill="none" xmlns="http://www.w3.org/2000/svg">
<path d="M81 6.75H27C15.8162 6.75 6.75 15.8162 6.75 27V81C6.75 92.1838 15.8162 101.25 27 101.25H81C92.1838 101.25 101.25 92.1838 101.25 81V27C101.25 15.8162 92.1838 6.75 81 6.75Z" fill="url(#paint0_radial_325_2977)"/>
<path d="M81 6.75H27C15.8162 6.75 6.75 15.8162 6.75 27V81C6.75 92.1838 15.8162 101.25 27 101.25H81C92.1838 101.25 101.25 92.1838 101.25 81V27C101.25 15.8162 92.1838 6.75 81 6.75Z" fill="url(#paint1_radial_325_2977)"/>
<path d="M81 6.75H27C15.8162 6.75 6.75 15.8162 6.75 27V81C6.75 92.1838 15.8162 101.25 27 101.25H81C92.1838 101.25 101.25 92.1838 101.25 81V27C101.25 15.8162 92.1838 6.75 81 6.75Z" fill="url(#paint2_radial_325_2977)"/>
<path d="M77.625 35.4375C77.625 38.2334 75.3584 40.5 72.5625 40.5C69.7666 40.5 67.5 38.2334 67.5 35.4375C67.5 32.6415 69.7666 30.375 72.5625 30.375C75.3584 30.375 77.625 32.6415 77.625 35.4375Z" fill="white"/>
<path fill-rule="evenodd" clip-rule="evenodd" d="M54 70.875C63.3197 70.875 70.875 63.3197 70.875 54C70.875 44.6803 63.3197 37.125 54 37.125C44.6803 37.125 37.125 44.6803 37.125 54C37.125 63.3197 44.6803 70.875 54 70.875ZM54 64.125C59.592 64.125 64.125 59.592 64.125 54C64.125 48.408 59.592 43.875 54 43.875C48.408 43.875 43.875 48.408 43.875 54C43.875 59.592 48.408 64.125 54 64.125Z" fill="white"/>
<path fill-rule="evenodd" clip-rule="evenodd" d="M20.25 52.65C20.25 41.309 20.25 35.6383 22.4571 31.3067C24.3986 27.4964 27.4964 24.3986 31.3067 22.4571C35.6383 20.25 41.309 20.25 52.65 20.25H55.35C66.691 20.25 72.3617 20.25 76.6932 22.4571C80.5035 24.3986 83.6015 27.4964 85.5428 31.3067C87.75 35.6383 87.75 41.309 87.75 52.65V55.35C87.75 66.691 87.75 72.3617 85.5428 76.6932C83.6015 80.5035 80.5035 83.6015 76.6932 85.5428C72.3617 87.75 66.691 87.75 55.35 87.75H52.65C41.309 87.75 35.6383 87.75 31.3067 85.5428C27.4964 83.6015 24.3986 80.5035 22.4571 76.6932C20.25 72.3617 20.25 66.691 20.25 55.35V52.65ZM52.65 27H55.35C61.132 27 65.0622 27.0053 68.1004 27.2535C71.06 27.4952 72.5733 27.9335 73.629 28.4714C76.169 29.7657 78.2342 31.8309 79.5285 34.371C80.0665 35.4267 80.5049 36.94 80.7465 39.8996C80.9946 42.9378 81 46.868 81 52.65V55.35C81 61.132 80.9946 65.0622 80.7465 68.1004C80.5049 71.06 80.0665 72.5733 79.5285 73.629C78.2342 76.169 76.169 78.2342 73.629 79.5285C72.5733 80.0665 71.06 80.5049 68.1004 80.7465C65.0622 80.9946 61.132 81 55.35 81H52.65C46.868 81 42.9378 80.9946 39.8996 80.7465C36.94 80.5049 35.4267 80.0665 34.371 79.5285C31.8309 78.2342 29.7657 76.169 28.4714 73.629C27.9335 72.5733 27.4952 71.06 27.2535 68.1004C27.0053 65.0622 27 61.132 27 55.35V52.65C27 46.868 27.0053 42.9378 27.2535 39.8996C27.4952 36.94 27.9335 35.4267 28.4714 34.371C29.7657 31.8309 31.8309 29.7657 34.371 28.4714C35.4267 27.9335 36.94 27.4952 39.8996 27.2535C42.9378 27.0053 46.868 27 52.65 27Z" fill="white"/>
<defs>
<radialGradient id="paint0_radial_325_2977" cx="0" cy="0" r="1" gradientUnits="userSpaceOnUse" gradientTransform="translate(40.5 77.625) rotate(-55.3758) scale(86.1287)">
<stop stop-color="#B13589"/>
<stop offset="0.79309" stop-color="#C62F94"/>
<stop offset="1" stop-color="#8A3AC8"/>
</radialGradient>
<radialGradient id="paint1_radial_325_2977" cx="0" cy="0" r="1" gradientUnits="userSpaceOnUse" gradientTransform="translate(37.125 104.625) rotate(-65.1363) scale(76.2554)">
<stop stop-color="#E0E8B7"/>
<stop offset="0.444662" stop-color="#FB8A2E"/>
<stop offset="0.71474" stop-color="#E2425C"/>
<stop offset="1" stop-color="#E2425C" stop-opacity="0"/>
</radialGradient>
<radialGradient id="paint2_radial_325_2977" cx="0" cy="0" r="1" gradientUnits="userSpaceOnUse" gradientTransform="translate(1.6875 10.125) rotate(-8.1301) scale(131.257 28.0745)">
<stop offset="0.156701" stop-color="#406ADC"/>
<stop offset="0.467799" stop-color="#6A45BE"/>
<stop offset="1" stop-color="#6A45BE" stop-opacity="0"/>
</radialGradient>
</defs>
</svg>
