<svg width="14" height="13" viewBox="0 0 14 13" fill="none" xmlns="http://www.w3.org/2000/svg">
<path fill-rule="evenodd" clip-rule="evenodd" d="M7.23138 0.533844C7.07284 0.488669 6.90562 0.488711 6.74706 0.534018C6.40946 0.630487 6.06865 0.719836 5.72667 0.809491C4.20057 1.20958 2.52024 1.65011 1.08283 2.82788L0.405118 3.38318C-0.135307 3.82599 -0.135023 4.69319 0.405871 5.13555L1.07262 5.68084C1.5652 6.08368 2.07857 6.3988 2.60465 6.65578V9.68235C2.60465 10.4233 3.05735 11.0884 3.7449 11.3576L6.34956 12.3772C6.76785 12.5409 7.23215 12.5409 7.65044 12.3772L10.2551 11.3576C10.9426 11.0884 11.3953 10.4233 11.3953 9.68235V6.66121C11.9179 6.40558 12.4279 6.09207 12.9172 5.69117L13.0233 5.60424V8.83634C13.0233 9.10716 13.2419 9.32671 13.5116 9.32671C13.7813 9.32671 14 9.10716 14 8.83634V4.25953C13.9999 3.93208 13.8646 3.60468 13.5941 3.3835L12.9274 2.83821C11.4795 1.65412 9.72857 1.19558 8.24972 0.8083C7.90848 0.718937 7.56838 0.62987 7.23138 0.533844ZM4.59014 6.75208C4.3428 6.64406 4.05508 6.75783 3.94751 7.00618C3.83993 7.25453 3.95323 7.54343 4.20057 7.65144C5.03266 8.01483 5.89399 8.31214 6.7767 8.53962C6.93051 8.57926 7.09186 8.57922 7.2457 8.53947C8.12602 8.31196 8.98481 8.01463 9.81424 7.65121C10.0614 7.54289 10.1744 7.25386 10.0665 7.00564C9.95865 6.75742 9.6708 6.644 9.42359 6.75232C8.64441 7.09372 7.83774 7.37325 7.01089 7.58744C6.18149 7.3732 5.37212 7.09359 4.59014 6.75208Z" fill="#3A6EFC"/>
</svg>
