<svg width="353" height="59" viewBox="0 0 353 59" fill="none" xmlns="http://www.w3.org/2000/svg">
<path d="M71.0713 41.5944V17.2205H74.7495L83.2582 34.5148L91.6451 17.2205H95.3233V41.5944H91.5121V25.9951L84.0227 41.5944H82.3941L74.9268 25.9618V41.5944H71.0713Z" fill="url(#paint0_linear_1518_3936)"/>
<path d="M102.669 41.5944V17.2205H106.758V41.5944H102.669Z" fill="url(#paint1_linear_1518_3936)"/>
<path d="M114.102 41.5944V17.2205H118.234L129.557 34.404V17.2205H133.689V41.5944H129.557L118.234 24.3997V41.5944H114.102Z" fill="url(#paint2_linear_1518_3936)"/>
<path d="M140.704 41.5944V17.2205H149.734C150.332 17.2205 150.919 17.2759 151.484 17.3423C153.287 17.5439 154.99 18.2722 156.381 19.4363C157.737 20.5875 158.781 22.0622 159.417 23.7239C160.791 27.4074 160.791 31.4628 159.417 35.1463C158.781 36.808 157.737 38.2827 156.381 39.4339C154.983 40.588 153.276 41.3047 151.473 41.4946C150.895 41.5574 150.315 41.5906 149.734 41.5944H140.737H140.704ZM144.848 37.7499H148.471H149.767C150.239 37.7379 150.71 37.686 151.174 37.5948C152.259 37.4225 153.25 36.878 153.977 36.0548C154.729 35.2032 155.279 34.1917 155.583 33.0967C155.929 31.9053 156.101 30.6701 156.093 29.4296C156.105 28.1698 155.929 26.9152 155.572 25.707C155.264 24.621 154.711 23.6203 153.955 22.7821C153.22 21.9855 152.242 21.4554 151.174 21.2754C150.711 21.1747 150.24 21.119 149.767 21.1092C149.246 21.1092 148.814 21.1092 148.471 21.1092H144.848V37.7499Z" fill="url(#paint3_linear_1518_3936)"/>
<path d="M166.706 41.5943V17.2204H176.378C177.796 17.1608 179.201 17.5025 180.433 18.2065C181.438 18.8158 182.252 19.6948 182.782 20.7436C183.291 21.7261 183.557 22.8166 183.557 23.9233C183.592 25.1344 183.26 26.3278 182.604 27.3467C181.99 28.2686 181.067 28.9406 180.001 29.2412V28.3992C181.404 28.6663 182.652 29.4588 183.491 30.615C184.285 31.7133 184.704 33.0379 184.687 34.393C184.717 35.7043 184.432 37.0036 183.856 38.182C183.312 39.2597 182.455 40.1479 181.397 40.7302C180.149 41.3753 178.757 41.6882 177.353 41.6387L166.706 41.5943ZM170.839 26.9478H176.323C176.867 26.9588 177.406 26.8411 177.896 26.6044C178.354 26.3871 178.74 26.0405 179.004 25.6073C179.283 25.1111 179.421 24.5478 179.403 23.9787C179.415 23.59 179.349 23.2027 179.211 22.8395C179.072 22.4762 178.862 22.1441 178.594 21.8626C178.295 21.5716 177.938 21.3464 177.547 21.2014C177.156 21.0564 176.739 20.9948 176.323 21.0206H170.839V26.9478ZM170.839 37.7499H176.843C177.508 37.7616 178.165 37.6134 178.76 37.3178C179.31 37.0469 179.772 36.624 180.09 36.0991C180.424 35.533 180.593 34.8842 180.577 34.2268C180.585 33.6138 180.44 33.0085 180.156 32.4652C179.867 31.9434 179.437 31.5134 178.915 31.2244C178.317 30.901 177.645 30.7406 176.965 30.759H170.839V37.7499Z" fill="url(#paint4_linear_1518_3936)"/>
<path d="M200.697 42.1372C198.499 42.2001 196.327 41.6475 194.426 40.5418C192.695 39.4796 191.306 37.941 190.426 36.1102C189.504 34.0154 189.028 31.7516 189.028 29.4628C189.028 27.1739 189.504 24.9101 190.426 22.8153C191.306 20.9845 192.695 19.4459 194.426 18.3837C196.352 17.3365 198.51 16.7879 200.702 16.7879C202.895 16.7879 205.052 17.3365 206.979 18.3837C208.713 19.4453 210.105 20.9837 210.989 22.8153C211.911 24.9101 212.388 27.1739 212.388 29.4628C212.388 31.7516 211.911 34.0154 210.989 36.1102C210.105 37.9418 208.713 39.4803 206.979 40.5418C205.073 41.6463 202.898 42.1987 200.697 42.1372ZM200.697 38.2928C202.141 38.3551 203.57 37.968 204.785 37.1849C205.904 36.4278 206.762 35.3447 207.244 34.0827C207.819 32.5924 208.097 31.0043 208.064 29.4074C208.099 27.8211 207.82 26.2437 207.244 24.7653C206.755 23.5136 205.897 22.4397 204.785 21.6853C203.56 20.9226 202.139 20.5372 200.697 20.5774C199.256 20.5137 197.83 20.9009 196.62 21.6853C195.51 22.4443 194.656 23.5221 194.171 24.7763C193.085 27.791 193.085 31.0902 194.171 34.1049C194.658 35.3551 195.511 36.4288 196.62 37.1849C197.843 37.9377 199.261 38.3152 200.697 38.2706V38.2928Z" fill="url(#paint5_linear_1518_3936)"/>
<path d="M218.012 41.5944V17.2205H226.997C227.596 17.2205 228.183 17.2759 228.748 17.3423C230.551 17.5323 232.258 18.249 233.656 19.403C235.015 20.5513 236.06 22.0269 236.691 23.6906C238.065 27.3742 238.065 31.4296 236.691 35.1131C236.06 36.7768 235.015 38.2524 233.656 39.4007C232.258 40.5548 230.551 41.2715 228.748 41.4614C228.17 41.5315 227.59 41.5722 227.008 41.5833H218.012V41.5944ZM222.156 37.7499H225.779H227.075C227.547 37.7379 228.018 37.686 228.482 37.5948C229.567 37.4225 230.558 36.878 231.285 36.0548C232.038 35.2032 232.587 34.1917 232.891 33.0967C233.241 31.9059 233.416 30.6707 233.412 29.4296C233.42 28.1692 233.241 26.9146 232.88 25.707C232.577 24.6192 232.023 23.6175 231.263 22.7821C230.53 21.9834 229.551 21.453 228.482 21.2754C228.019 21.1747 227.548 21.119 227.075 21.1092C226.554 21.1092 226.122 21.1092 225.779 21.1092H222.156V37.7499Z" fill="url(#paint6_linear_1518_3936)"/>
<path d="M248.924 41.5944V31.6232L240.581 17.2205H245.334L250.951 26.9368L256.491 17.2205H261.255L252.967 31.6232V41.5944H248.924Z" fill="url(#paint7_linear_1518_3936)"/>
<path d="M265.985 41.5944V17.2205H280.665V21.2975H270.062V27.3799H278.637V31.4459H270.062V41.5944H265.985Z" fill="url(#paint8_linear_1518_3936)"/>
<path d="M283.955 41.5944L291.644 17.2205H297.627L305.315 41.5944H301.117L294.137 19.7132H295.045L288.154 41.5944H283.955ZM288.243 36.3096V32.4985H301.05V36.3096H288.243Z" fill="url(#paint9_linear_1518_3936)"/>
<path d="M320.272 42.1372C318.074 42.2001 315.902 41.6476 314.001 40.5418C312.27 39.4796 310.881 37.941 310.002 36.1102C309.072 34.0174 308.592 31.7528 308.592 29.4628C308.592 27.1728 309.072 24.9082 310.002 22.8154C310.881 20.9845 312.27 19.446 314.001 18.3837C315.902 17.278 318.074 16.7254 320.272 16.7884C322.782 16.694 325.252 17.4343 327.296 18.8934C329.188 20.3166 330.574 22.3085 331.251 24.5769L327.13 25.6848C326.736 24.2179 325.891 22.9118 324.715 21.9512C323.433 21.0131 321.87 20.5403 320.283 20.6106C318.84 20.559 317.415 20.9452 316.195 21.7185C315.081 22.4759 314.223 23.5538 313.735 24.8096C313.159 26.2963 312.873 27.8796 312.893 29.4739C312.858 31.072 313.14 32.6612 313.724 34.1492C314.216 35.4029 315.073 36.4799 316.184 37.2403C317.408 38.0119 318.837 38.3979 320.283 38.3482C321.871 38.4154 323.435 37.9385 324.715 36.9965C325.889 36.0339 326.733 34.7286 327.13 33.2629L331.251 34.3708C330.574 36.6392 329.188 38.6311 327.296 40.0543C325.249 41.5056 322.779 42.238 320.272 42.1372Z" fill="url(#paint10_linear_1518_3936)"/>
<path d="M337.246 41.5944V17.2205H353V21.0427H341.323V27.0587H350.962V30.8809H341.323V37.7832H353V41.5944H337.246Z" fill="url(#paint11_linear_1518_3936)"/>
<path d="M27.6758 13.6843C29.4432 13.6567 31.1313 12.9466 32.3869 11.7025C33.6426 10.4585 34.3683 8.77704 34.4124 7.01005C34.4564 5.24307 33.8152 3.52753 32.6231 2.22253C31.431 0.917526 29.7803 0.124208 28.0166 0.00862225C27.1049 -0.0375454 26.1933 0.102041 25.3372 0.418908C24.4811 0.735776 23.6984 1.22331 23.0365 1.85192C22.3745 2.48054 21.8473 3.23711 21.4866 4.07571C21.126 4.91431 20.9396 5.81745 20.9387 6.7303C20.9052 7.63421 21.055 8.53555 21.379 9.38007C21.7029 10.2246 22.1944 10.9949 22.8238 11.6445C23.4532 12.2942 24.2075 12.8098 25.0413 13.1603C25.8752 13.5109 26.7713 13.6891 27.6758 13.6843Z" fill="url(#paint12_linear_1518_3936)"/>
<path d="M0 8.83667C2.59752 8.8763 5.14334 9.56868 7.40314 10.8501C9.95915 12.3096 12.4073 13.9503 14.7288 15.7597C16.9525 17.4591 19.3894 18.8598 21.9771 19.9259C24.0043 20.7082 26.1687 21.073 28.3403 20.9984C30.512 20.9239 32.6462 20.4116 34.6151 19.4922C37.7026 17.9705 40.6335 16.1497 43.3657 14.056C45.739 12.2466 48.3433 10.7622 51.1095 9.64203C52.492 9.10657 53.9636 8.83853 55.4461 8.85216C55.57 9.0535 55.4461 9.13094 55.2757 9.20838C50.635 12.814 46.5173 17.0464 43.0404 21.7844C39.8731 25.7645 37.1613 30.0867 34.9558 34.6702C32.9472 39.2727 31.3056 44.0268 30.0462 48.888C29.2718 51.8151 28.4974 54.7423 27.9399 57.7005C27.941 57.8044 27.9084 57.9058 27.847 57.9896C27.7855 58.0734 27.6986 58.135 27.5991 58.1651L26.9951 55.5941C25.2917 47.9078 22.8112 40.4145 19.592 33.2299C15.9234 25.2952 10.656 18.2035 4.11974 12.3988C2.86828 11.2925 1.55486 10.2583 0.185853 9.3013C0.0929264 9.13094 0 9.06899 0 8.83667Z" fill="url(#paint13_linear_1518_3936)"/>
<defs>
<linearGradient id="paint0_linear_1518_3936" x1="71.0713" y1="29.4112" x2="95.342" y2="29.4112" gradientUnits="userSpaceOnUse">
<stop stop-color="#0A3426"/>
<stop offset="1" stop-color="#067249"/>
</linearGradient>
<linearGradient id="paint1_linear_1518_3936" x1="102.669" y1="29.4112" x2="106.761" y2="29.4112" gradientUnits="userSpaceOnUse">
<stop stop-color="#0A3426"/>
<stop offset="1" stop-color="#067249"/>
</linearGradient>
<linearGradient id="paint2_linear_1518_3936" x1="114.102" y1="29.4112" x2="133.704" y2="29.4112" gradientUnits="userSpaceOnUse">
<stop stop-color="#0A3426"/>
<stop offset="1" stop-color="#067249"/>
</linearGradient>
<linearGradient id="paint3_linear_1518_3936" x1="140.704" y1="29.4112" x2="160.462" y2="29.4112" gradientUnits="userSpaceOnUse">
<stop stop-color="#0A3426"/>
<stop offset="1" stop-color="#067249"/>
</linearGradient>
<linearGradient id="paint4_linear_1518_3936" x1="166.706" y1="29.4326" x2="184.703" y2="29.4326" gradientUnits="userSpaceOnUse">
<stop stop-color="#0A3426"/>
<stop offset="1" stop-color="#067249"/>
</linearGradient>
<linearGradient id="paint5_linear_1518_3936" x1="189.028" y1="29.4689" x2="212.406" y2="29.4689" gradientUnits="userSpaceOnUse">
<stop stop-color="#0A3426"/>
<stop offset="1" stop-color="#067249"/>
</linearGradient>
<linearGradient id="paint6_linear_1518_3936" x1="218.012" y1="29.4112" x2="237.737" y2="29.4112" gradientUnits="userSpaceOnUse">
<stop stop-color="#0A3426"/>
<stop offset="1" stop-color="#067249"/>
</linearGradient>
<linearGradient id="paint7_linear_1518_3936" x1="240.581" y1="29.4112" x2="261.27" y2="29.4112" gradientUnits="userSpaceOnUse">
<stop stop-color="#0A3426"/>
<stop offset="1" stop-color="#067249"/>
</linearGradient>
<linearGradient id="paint8_linear_1518_3936" x1="265.985" y1="29.4112" x2="280.676" y2="29.4112" gradientUnits="userSpaceOnUse">
<stop stop-color="#0A3426"/>
<stop offset="1" stop-color="#067249"/>
</linearGradient>
<linearGradient id="paint9_linear_1518_3936" x1="283.955" y1="29.4112" x2="305.332" y2="29.4112" gradientUnits="userSpaceOnUse">
<stop stop-color="#0A3426"/>
<stop offset="1" stop-color="#067249"/>
</linearGradient>
<linearGradient id="paint10_linear_1518_3936" x1="308.592" y1="29.4673" x2="331.269" y2="29.4673" gradientUnits="userSpaceOnUse">
<stop stop-color="#0A3426"/>
<stop offset="1" stop-color="#067249"/>
</linearGradient>
<linearGradient id="paint11_linear_1518_3936" x1="337.246" y1="29.4112" x2="353.013" y2="29.4112" gradientUnits="userSpaceOnUse">
<stop stop-color="#0A3426"/>
<stop offset="1" stop-color="#067249"/>
</linearGradient>
<linearGradient id="paint12_linear_1518_3936" x1="20.9232" y1="6.83871" x2="34.5988" y2="6.83871" gradientUnits="userSpaceOnUse">
<stop stop-color="#0A3426"/>
<stop offset="1" stop-color="#067249"/>
</linearGradient>
<linearGradient id="paint13_linear_1518_3936" x1="0" y1="33.5086" x2="55.539" y2="33.5086" gradientUnits="userSpaceOnUse">
<stop stop-color="#0A3426"/>
<stop offset="1" stop-color="#067249"/>
</linearGradient>
</defs>
</svg>
