<svg width="32" height="32" viewBox="0 0 32 32" fill="none" xmlns="http://www.w3.org/2000/svg">
<g clip-path="url(#clip0_926_2256)">
<path d="M31.97 16.0916C31.97 12.0891 30.3378 8.25047 27.4323 5.42024C24.5268 2.59001 20.5862 1.00001 16.4772 1.00001C12.576 0.996497 8.81701 2.42679 5.95114 5.00519C3.08527 7.58359 1.32349 11.1203 1.01772 14.9088C0.71195 18.6973 1.8847 22.4587 4.3017 25.4417C6.71871 28.4247 10.202 30.4096 14.0559 31V20.4531H10.1251V16.0916H14.0581V12.7672C14.0581 8.98563 16.371 6.89436 19.91 6.89436C21.6053 6.89436 23.3781 7.18973 23.3781 7.18973V10.9044H21.4238C19.4983 10.9044 18.9007 12.0686 18.9007 13.2609V16.0916H23.1967L22.5105 20.4531H18.8985V31C22.5427 30.4379 25.8613 28.6275 28.2575 25.8946C30.6537 23.1617 31.9701 19.6856 31.97 16.0916Z" fill="#1877F2"/>
<path d="M21.7498 19.9193L22.3504 15.9997H18.5897V13.4558C18.5897 12.3844 19.1129 11.3381 20.7985 11.3381H22.5093V7.99786C22.5093 7.99786 20.9574 7.73242 19.4732 7.73242C16.3732 7.73242 14.3505 9.6118 14.3505 13.0102V15.9997H10.9095V19.9193H14.3524V29.3975C15.7569 29.6186 17.1872 29.6186 18.5917 29.3975V19.9193H21.7498Z" fill="white"/>
</g>
<defs>
<clipPath id="clip0_926_2256">
<rect width="31" height="31" fill="white" transform="translate(0.970032 0.5)"/>
</clipPath>
</defs>
</svg>
