<svg width="20" height="20" viewBox="0 0 20 20" fill="none" xmlns="http://www.w3.org/2000/svg">
<g clip-path="url(#clip0_926_2765)">
<path d="M18.3995 7.11688C18.062 7.27172 17.705 7.38011 17.3384 7.4391C17.9247 9.10821 17.9266 10.927 17.3437 12.5973C16.7609 14.2676 15.628 15.6904 14.1306 16.6325C12.6333 17.5746 10.8603 17.9801 9.10227 17.7825C7.34426 17.585 5.70549 16.7961 4.45456 15.5452C3.20364 14.2942 2.41475 12.6555 2.21719 10.8975C2.01964 9.13945 2.42513 7.36647 3.36723 5.8691C4.30932 4.37173 5.73212 3.2388 7.40244 2.65599C9.07276 2.07318 10.8915 2.07506 12.5606 2.66132C12.6196 2.29469 12.728 1.93774 12.8829 1.60021C10.9752 0.940604 8.90033 0.94731 6.99702 1.61923C5.0937 2.29116 3.47446 3.58859 2.40374 5.29963C1.33303 7.01067 0.874118 9.0342 1.10196 11.0397C1.32981 13.0453 2.23094 14.9143 3.65819 16.3415C5.08544 17.7688 6.95446 18.6699 8.96 18.8978C10.9655 19.1256 12.9891 18.6667 14.7001 17.596C16.4111 16.5253 17.7086 14.906 18.3805 13.0027C19.0524 11.0994 19.0591 9.0245 18.3995 7.11688Z" fill="#5F998A"/>
<path d="M11.25 3.20556C12.2273 4.25482 12.9647 5.50405 13.4111 6.86667H10.4167V3.11111H9.58334V6.87223H6.58889C7.03622 5.50714 7.77559 4.2559 8.75556 3.20556C8.27157 3.29326 7.79845 3.43295 7.34445 3.62223C6.62841 4.60802 6.08201 5.70646 5.72778 6.87223H3.85556C3.70756 7.16439 3.58129 7.46706 3.47778 7.77778H5.49445C5.33802 8.50824 5.25796 9.25299 5.25556 10C5.25724 10.8171 5.35041 11.6314 5.53334 12.4278H3.56667C3.68097 12.7394 3.81839 13.0421 3.97778 13.3333H5.77223C6.11218 14.3977 6.61641 15.4025 7.26667 16.3111C7.73224 16.5107 8.21857 16.6579 8.71667 16.75C7.80984 15.7611 7.11251 14.5989 6.66667 13.3333H9.58889V16.8556H10.4222V13.3333H13.3333C12.8858 14.5993 12.1866 15.7616 11.2778 16.75C11.7782 16.6547 12.2664 16.5038 12.7333 16.3C13.3826 15.3948 13.8868 14.3939 14.2278 13.3333H16.0056C16.1642 13.0475 16.3016 12.7504 16.4167 12.4444H14.4445C14.6274 11.6481 14.7206 10.8338 14.7222 10.0167C14.7198 9.26965 14.6398 8.52491 14.4833 7.79445H16.4833C16.45 7.7 16.4167 7.61111 16.3778 7.52223C15.6941 7.47938 15.0317 7.26749 14.45 6.90556H14.25C14.25 6.84445 14.2056 6.78889 14.1889 6.72778C13.6922 6.3655 13.2821 5.89755 12.9882 5.35764C12.6942 4.81773 12.5237 4.21933 12.4889 3.60556C12.0895 3.43342 11.6747 3.29949 11.25 3.20556ZM9.58334 12.4222H6.39445C6.00354 10.8932 5.98639 9.29259 6.34445 7.75556H9.58334V12.4222ZM13.8889 10C13.8868 10.8187 13.7842 11.6341 13.5833 12.4278H10.4167V7.77778H13.6556C13.8152 8.50763 13.8935 9.25292 13.8889 10Z" fill="#5F998A"/>
<path d="M16.6667 6.11111C18.2008 6.11111 19.4445 4.86746 19.4445 3.33334C19.4445 1.79921 18.2008 0.555557 16.6667 0.555557C15.1326 0.555557 13.8889 1.79921 13.8889 3.33334C13.8889 4.86746 15.1326 6.11111 16.6667 6.11111Z" fill="#5F998A"/>
</g>
<defs>
<clipPath id="clip0_926_2765">
<rect width="20" height="20" fill="white"/>
</clipPath>
</defs>
</svg>
