<svg width="45" height="32" viewBox="0 0 45 32" fill="none" xmlns="http://www.w3.org/2000/svg">
<g clip-path="url(#clip0_926_2261)">
<path fill-rule="evenodd" clip-rule="evenodd" d="M18.3337 21.7167L18.3323 9.33294L30.157 15.5462L18.3337 21.7167ZM44.2971 7.18704C44.2971 7.18704 43.869 4.14999 42.5574 2.81258C40.893 1.05646 39.0275 1.04818 38.1728 0.946255C32.0484 0.499994 22.862 0.5 22.862 0.5H22.8428C22.8428 0.5 13.6563 0.499994 7.53201 0.946255C6.67586 1.04818 4.81176 1.05646 3.14596 2.81258C1.83439 4.14999 1.40767 7.18704 1.40767 7.18704C1.40767 7.18704 0.970032 10.7544 0.970032 14.3203V17.6645C0.970032 21.2319 1.40767 24.7978 1.40767 24.7978C1.40767 24.7978 1.83439 27.8349 3.14596 29.1723C4.81176 30.9284 6.99861 30.8733 7.97238 31.0565C11.4736 31.3953 22.8524 31.5 22.8524 31.5C22.8524 31.5 32.0484 31.4862 38.1728 31.04C39.0275 30.9367 40.893 30.9284 42.5574 29.1723C43.869 27.8349 44.2971 24.7978 44.2971 24.7978C44.2971 24.7978 44.7347 21.2319 44.7347 17.6645V14.3203C44.7347 10.7544 44.2971 7.18704 44.2971 7.18704Z" fill="#CE1312"/>
</g>
<defs>
<clipPath id="clip0_926_2261">
<rect width="44" height="31" fill="white" transform="translate(0.970032 0.5)"/>
</clipPath>
</defs>
</svg>
