<svg width="335" height="93" viewBox="0 0 335 93" fill="none" xmlns="http://www.w3.org/2000/svg">
<path d="M104.639 35.5476H106.916L114.748 54.294H114.938L122.77 35.5476H125.047V57.0682H123.191V39.6983H123.023L115.739 57.0682H113.947L106.663 39.6983H106.494V57.0682H104.639V35.5476ZM132.757 35.5476V57.0682H130.786V35.5476H132.757ZM155.31 35.5476V57.0682H153.391L140.637 39.0467H140.468V57.0682H138.497V35.5476H140.405L153.202 53.59H153.37V35.5476H155.31ZM167.374 57.0682H161.049V35.5476H167.754C169.813 35.5476 171.573 35.9749 173.034 36.8295C174.503 37.6842 175.628 38.9101 176.408 40.5074C177.188 42.1047 177.578 44.0205 177.578 46.2552C177.578 48.5111 177.177 50.4481 176.376 52.0663C175.582 53.6775 174.422 54.914 172.898 55.7757C171.38 56.6374 169.538 57.0682 167.374 57.0682ZM163.021 55.3029H167.258C169.113 55.3029 170.666 54.9385 171.917 54.2099C173.168 53.4813 174.106 52.441 174.732 51.0891C175.357 49.737 175.67 48.1258 175.67 46.2552C175.663 44.3988 175.354 42.8016 174.742 41.4636C174.138 40.1255 173.238 39.0993 172.044 38.3847C170.856 37.6701 169.387 37.3129 167.638 37.3129H163.021V55.3029ZM182.356 57.0682V35.5476H189.639C191.045 35.5476 192.215 35.7927 193.15 36.2831C194.091 36.7735 194.797 37.4424 195.268 38.2902C195.739 39.1378 195.975 40.101 195.975 41.18C195.975 42.0766 195.823 42.8436 195.521 43.4811C195.219 44.1186 194.808 44.6337 194.288 45.026C193.768 45.4182 193.188 45.7019 192.549 45.8771V46.0451C193.244 46.0942 193.919 46.3394 194.572 46.7807C195.226 47.215 195.764 47.8246 196.185 48.6092C196.607 49.3938 196.818 50.3324 196.818 51.4254C196.818 52.5112 196.575 53.4813 196.091 54.3361C195.606 55.1837 194.861 55.8528 193.856 56.3432C192.858 56.8266 191.586 57.0682 190.04 57.0682H182.356ZM184.327 55.3029H190.04C191.705 55.3029 192.935 54.9351 193.729 54.1996C194.53 53.4638 194.931 52.5391 194.931 51.4254C194.931 50.6057 194.731 49.863 194.33 49.1976C193.937 48.5251 193.378 47.9927 192.654 47.6004C191.937 47.2081 191.094 47.0119 190.124 47.0119H184.327V55.3029ZM184.327 45.2675H189.819C190.669 45.2675 191.414 45.0923 192.053 44.7421C192.693 44.3919 193.192 43.9085 193.55 43.2919C193.908 42.6756 194.088 41.9715 194.088 41.18C194.088 40.038 193.715 39.1099 192.97 38.3953C192.225 37.6737 191.115 37.3129 189.639 37.3129H184.327V45.2675ZM219.272 46.3079C219.272 48.5496 218.871 50.5007 218.072 52.161C217.271 53.8142 216.166 55.0962 214.76 56.0069C213.363 56.9105 211.753 57.3624 209.933 57.3624C208.113 57.3624 206.501 56.9105 205.095 56.0069C203.697 55.0962 202.597 53.8142 201.796 52.161C201.002 50.5007 200.605 48.5496 200.605 46.3079C200.605 44.0661 201.002 42.1186 201.796 40.4654C202.597 38.8051 203.7 37.523 205.106 36.6194C206.511 35.7086 208.12 35.2533 209.933 35.2533C211.753 35.2533 213.363 35.7086 214.76 36.6194C216.166 37.523 217.271 38.8051 218.072 40.4654C218.871 42.1186 219.272 44.0661 219.272 46.3079ZM217.353 46.3079C217.353 44.3813 217.031 42.7316 216.384 41.3586C215.738 39.9784 214.856 38.9241 213.738 38.1955C212.621 37.467 211.353 37.1028 209.933 37.1028C208.521 37.1028 207.256 37.467 206.139 38.1955C205.021 38.9241 204.136 39.975 203.482 41.348C202.836 42.721 202.513 44.3743 202.513 46.3079C202.513 48.2342 202.836 49.8841 203.482 51.2572C204.129 52.6302 205.011 53.6845 206.128 54.4202C207.245 55.1488 208.514 55.513 209.933 55.513C211.353 55.513 212.621 55.1488 213.738 54.4202C214.864 53.6917 215.748 52.6407 216.395 51.2677C217.042 49.8875 217.362 48.2342 217.353 46.3079ZM230.365 57.0682H224.041V35.5476H230.745C232.804 35.5476 234.563 35.9749 236.024 36.8295C237.494 37.6842 238.617 38.9101 239.398 40.5074C240.178 42.1047 240.568 44.0205 240.568 46.2552C240.568 48.5111 240.167 50.4481 239.366 52.0663C238.573 53.6775 237.413 54.914 235.889 55.7757C234.37 56.6374 232.53 57.0682 230.365 57.0682ZM226.01 55.3029H230.249C232.104 55.3029 233.656 54.9385 234.907 54.2099C236.158 53.4813 237.097 52.441 237.723 51.0891C238.348 49.737 238.66 48.1258 238.66 46.2552C238.653 44.3988 238.344 42.8016 237.733 41.4636C237.129 40.1255 236.23 39.0993 235.034 38.3847C233.847 37.6701 232.377 37.3129 230.628 37.3129H226.01V55.3029ZM242.307 35.5476H244.584L250.983 45.7615H251.173L257.57 35.5476H259.847L252.058 47.7475V57.0682H250.096V47.7475L242.307 35.5476ZM263.549 57.0682V35.5476H276.042V37.3129H265.521V45.4147H275.06V47.18H265.521V57.0682H263.549ZM278.279 57.0682H276.214L284.065 35.5476H286.175L294.028 57.0682H291.961L285.193 38.101H285.047L278.279 57.0682ZM279.765 48.8193H290.474V50.5846H279.765V48.8193ZM313.621 42.2727H311.639C311.49 41.5372 311.223 40.8576 310.837 40.2341C310.458 39.6036 309.981 39.0537 309.404 38.5844C308.827 38.115 308.174 37.7508 307.443 37.4915C306.711 37.2323 305.923 37.1028 305.072 37.1028C303.709 37.1028 302.464 37.4566 301.341 38.164C300.223 38.8717 299.327 39.9118 298.652 41.285C297.984 42.6511 297.652 44.3253 297.652 46.3079C297.652 48.3044 297.984 49.9856 298.652 51.3519C299.327 52.7179 300.223 53.7546 301.341 54.4621C302.464 55.1627 303.709 55.513 305.072 55.513C305.923 55.513 306.711 55.3834 307.443 55.1243C308.174 54.8649 308.827 54.5041 309.404 54.0419C309.981 53.5724 310.458 53.0225 310.837 52.392C311.223 51.7615 311.49 51.0786 311.639 50.343H313.621C313.445 51.3307 313.115 52.2521 312.629 53.1066C312.152 53.9544 311.539 54.6969 310.795 55.3344C310.057 55.9718 309.207 56.4692 308.244 56.8266C307.282 57.1838 306.224 57.3624 305.072 57.3624C303.257 57.3624 301.648 56.9105 300.245 56.0069C298.839 55.0962 297.734 53.8142 296.935 52.161C296.14 50.5077 295.743 48.5566 295.743 46.3079C295.743 44.0592 296.14 42.1081 296.935 40.4548C297.734 38.8015 298.839 37.523 300.245 36.6194C301.648 35.7086 303.257 35.2533 305.072 35.2533C306.224 35.2533 307.282 35.4319 308.244 35.7892C309.207 36.1394 310.057 36.6369 310.795 37.2814C311.539 37.9189 312.152 38.6614 312.629 39.5091C313.115 40.3567 313.445 41.2781 313.621 42.2727ZM318.25 57.0682V35.5476H330.774V37.3129H320.222V45.4147H330.108V47.18H320.222V55.3029H330.984V57.0682H318.25Z" fill="#5F998A"/>
<mask id="mask0_535_1252" style="mask-type:luminance" maskUnits="userSpaceOnUse" x="0" y="0" width="91" height="93">
<path d="M90.8285 0L0 0L0 92.4532H90.8285V0Z" fill="white"/>
</mask>
<g mask="url(#mask0_535_1252)">
<path d="M55.5805 70.1186C55.688 70.1178 55.7934 70.0892 55.885 70.0339C55.9793 69.9751 56.0489 69.8846 56.0807 69.7798C56.6682 67.9443 56.8614 66.0108 56.6481 64.0994C56.4348 62.1882 55.8197 60.3401 54.8412 58.6705C55.7775 59.0563 56.7547 59.3403 57.7551 59.5179C59.8976 59.922 62.1062 59.8457 64.2142 59.2953C66.3219 58.7449 68.2736 57.7344 69.9213 56.3407C69.9906 56.2849 70.0434 56.2117 70.0735 56.1289C70.11 56.0259 70.11 55.9141 70.0735 55.8112C69.1535 54.111 67.8844 52.6133 66.3451 51.4108C64.8057 50.2084 63.0292 49.327 61.1254 48.8216C62.0645 48.4429 62.9607 47.9711 63.8001 47.4131C65.6072 46.2278 67.1153 44.6592 68.2113 42.825C69.3073 40.991 69.9624 38.9389 70.1278 36.8229C70.1286 36.7145 70.0985 36.6082 70.0409 36.5158C69.977 36.4266 69.8857 36.3598 69.7799 36.3252C67.8933 35.7452 65.9045 35.5492 63.9367 35.7494C61.9691 35.95 60.0646 36.5424 58.3422 37.49C58.7348 36.5769 59.0266 35.6253 59.2119 34.6518C59.6245 32.5633 59.5452 30.4108 58.9801 28.3561C58.4153 26.3017 57.3791 24.3988 55.9501 22.7907C55.8873 22.7317 55.8135 22.685 55.7328 22.6529C55.6206 22.6115 55.497 22.6115 55.3848 22.6529C53.6392 23.5491 52.1016 24.7853 50.8672 26.2848C49.6326 27.784 48.7279 29.5146 48.209 31.3689C47.8125 30.4626 47.3245 29.5968 46.752 28.7848C45.5335 27.0271 43.9223 25.5604 42.0395 24.4949C40.1567 23.4294 38.0509 22.7924 35.8796 22.632C35.7672 22.6201 35.6544 22.6506 35.5643 22.7165C35.4729 22.7787 35.4042 22.8679 35.3686 22.9708C34.7859 24.8073 34.5962 26.7409 34.8112 28.6516C35.0262 30.5625 35.6414 32.4099 36.6189 34.0801C35.6798 33.6985 34.7037 33.4111 33.705 33.2221C31.5608 32.8212 29.3511 32.8987 27.2421 33.4489C25.133 33.9993 23.1792 35.0079 21.5278 36.3991L21.4735 36.4628C21.4688 36.505 21.4688 36.5475 21.4735 36.5898C21.4582 36.6885 21.4773 36.7891 21.5278 36.8758C21.7847 37.3492 22.0678 37.8089 22.3759 38.2526C24.3055 40.999 27.1712 42.9911 30.4651 43.8759C27.9742 44.8771 25.8162 46.5298 24.2294 48.651C22.6424 50.7723 21.6887 53.2797 21.4735 55.896C21.4735 55.896 21.4735 55.896 21.4735 55.9701C21.4735 55.9701 21.4735 55.9701 21.4735 56.0336C21.4692 56.0653 21.4692 56.0972 21.4735 56.1289C21.4962 56.1564 21.5214 56.1811 21.5496 56.2031H21.6039C21.6289 56.2088 21.655 56.2088 21.68 56.2031C23.5645 56.7746 25.5495 56.9625 27.5115 56.7549C29.4736 56.5472 31.371 55.9484 33.0853 54.9958C32.6924 55.9097 32.3972 56.8608 32.2047 57.834C31.8405 59.6559 31.8506 61.5299 32.2353 63.3478C32.6197 65.1655 33.3707 66.8911 34.4444 68.4243C34.7499 68.868 35.084 69.2926 35.4447 69.695C35.5079 69.7711 35.5963 69.8236 35.6947 69.8434H35.8796H35.9665C37.7148 68.9494 39.2552 67.7139 40.4917 66.2145C41.7281 64.7149 42.6343 62.9832 43.1533 61.1274C43.5377 62.0441 44.0224 62.9175 44.5993 63.7327C45.8161 65.4931 47.4265 66.9621 49.3094 68.0295C51.1924 69.0971 53.2993 69.7352 55.4718 69.8963M68.9971 55.896C66.9254 57.5194 64.411 58.5169 61.7642 58.7654C59.1173 59.0138 56.4536 58.5023 54.1019 57.2939C54.2371 56.0968 53.8945 54.8945 53.145 53.9366C52.7848 53.464 52.3433 53.0557 51.8404 52.7295C52.7379 52.5484 53.5676 52.1324 54.2401 51.5258C54.9126 50.9192 55.4024 50.1454 55.6566 49.2875C58.3 48.9977 60.9728 49.4692 63.3438 50.6438C65.7151 51.8183 67.6806 53.6445 68.9971 55.896ZM37.5539 50.9291C36.966 49.9902 36.7834 48.8628 37.0463 47.7931C37.309 46.7236 37.9958 45.7987 38.9565 45.221C39.8143 44.6442 40.8532 44.38 41.8911 44.4749C42.929 44.5698 43.8992 45.0177 44.632 45.7399C43.3509 45.7175 42.1029 46.1369 41.1083 46.9236C40.1137 47.7103 39.4363 48.8138 39.1956 50.0395C38.9919 51.1631 38.3586 52.1696 37.4235 52.8566C36.8818 53.2592 36.2402 53.5149 35.5643 53.5978C36.3159 52.9629 36.9973 52.2529 37.5974 51.4797C37.6574 51.3998 37.6898 51.3034 37.6898 51.2043C37.6898 51.1054 37.6574 51.009 37.5974 50.9291M53.9062 41.7261C54.4911 42.6659 54.672 43.7922 54.4093 44.8611C54.1468 45.9297 53.462 46.8545 52.5036 47.4342C51.6458 48.0112 50.6068 48.2752 49.569 48.1803C48.5311 48.0854 47.5609 47.6376 46.8281 46.9153C48.1092 46.9375 49.3572 46.5184 50.3518 45.7317C51.3464 44.945 52.0238 43.8415 52.2642 42.6158C52.4741 41.4945 53.1062 40.4899 54.0366 39.7987C54.6044 39.4426 55.2549 39.2312 55.9285 39.1845C55.176 39.8222 54.4911 40.5317 53.8843 41.3026C53.8339 41.3685 53.8023 41.4465 53.7927 41.5285C53.783 41.6103 53.7959 41.6932 53.83 41.7684M58.1791 48.3344C57.1889 48.2708 56.1945 48.3027 55.2108 48.4297C55.1081 48.4441 55.0129 48.4898 54.9387 48.5602C54.8645 48.6305 54.8151 48.7221 54.7977 48.8216C54.5293 49.8884 53.84 50.8091 52.8793 51.384C51.9188 51.9589 50.7639 52.1417 49.6659 51.8927C48.6473 51.7103 47.726 51.1872 47.0611 50.414C46.3962 49.6404 46.0294 48.6654 46.0235 47.6568C46.9119 48.568 48.1039 49.1418 49.3866 49.2756C50.6694 49.4094 51.9591 49.0947 53.0254 48.3875C53.7775 47.8646 54.6784 47.5837 55.6021 47.5837C56.5262 47.5837 57.4271 47.8646 58.1791 48.3875M46.3714 45.3056C46.4221 44.1744 46.0898 43.0582 45.4256 42.1286C44.611 40.9815 43.3647 40.1935 41.9573 39.9363C41.0449 39.7909 40.2015 39.3722 39.5448 38.7383C38.8882 38.1042 38.4506 37.2867 38.2933 36.3991C38.9452 37.1313 39.674 37.7952 40.4678 38.3796C40.5515 38.439 40.6522 38.4709 40.7559 38.4709C40.8594 38.4709 40.9603 38.439 41.0439 38.3796C42.0079 37.807 43.1654 37.6291 44.2635 37.885C45.3615 38.1412 46.311 38.8102 46.9042 39.7457C47.4956 40.5797 47.7663 41.59 47.6688 42.5991C47.5715 43.6081 47.112 44.5514 46.3714 45.2633M41.7724 40.8576C42.3476 40.9585 42.8965 41.1694 43.3876 41.4784C43.8784 41.7876 44.3014 42.1886 44.632 42.658C45.1546 43.3824 45.4251 44.2511 45.4037 45.1363C44.517 44.2234 43.3255 43.6474 42.0427 43.5117C40.7602 43.3758 39.4696 43.6889 38.4018 44.3948C37.6506 44.919 36.7495 45.201 35.8251 45.201C34.9008 45.201 33.9997 44.919 33.2483 44.3948C34.2417 44.4675 35.2401 44.439 36.2275 44.3103C36.331 44.2938 36.4266 44.246 36.5006 44.1739C36.5748 44.1017 36.6238 44.0084 36.6405 43.9078C36.9113 42.843 37.6014 41.9248 38.5619 41.352C39.5224 40.7792 40.6758 40.5979 41.7724 40.8471M45.0342 47.3814C44.9928 48.4872 45.3126 49.5772 45.9474 50.495C46.3515 51.0722 46.8688 51.566 47.4697 51.9477C48.0706 52.3294 48.7431 52.5915 49.4483 52.7187C50.5988 52.9252 51.6294 53.5405 52.3406 54.4452C52.7542 54.9765 53.0167 55.6047 53.1015 56.2667C52.447 55.5337 51.7185 54.8666 50.927 54.2756C50.8451 54.2171 50.7459 54.1856 50.6444 54.1856C50.5428 54.1856 50.4436 54.2171 50.3617 54.2756C49.4089 54.8262 48.2741 54.9962 47.1958 54.7493C46.1172 54.5024 45.1788 53.8582 44.5775 52.9519C43.9853 52.1161 43.7143 51.1043 43.8116 50.0934C43.909 49.0824 44.3688 48.1374 45.1103 47.4237M69.084 37.0664C68.8838 38.9763 68.2552 40.82 67.2426 42.4672C66.2299 44.1141 64.8579 45.5243 63.2238 46.5976C62.0982 47.3393 60.8674 47.9172 59.5706 48.3133C58.9865 47.6236 58.2198 47.103 57.3535 46.8082C56.4869 46.5131 55.5542 46.455 54.6563 46.6399C55.1616 45.8928 55.4478 45.0257 55.4843 44.1317C55.5207 43.2376 55.306 42.3511 54.8628 41.5674C56.5245 39.548 58.756 38.0463 61.2829 37.2465C63.8097 36.4467 66.5215 36.3841 69.084 37.0664ZM48.8612 32.7244C49.2181 30.8437 49.9926 29.0614 51.1307 27.5028C52.2687 25.9443 53.7431 24.6469 55.4499 23.7015C56.6924 25.1901 57.5844 26.926 58.0635 28.7869C58.5425 30.6477 58.5968 32.5883 58.2224 34.4717C57.9675 35.7718 57.5169 37.028 56.8851 38.1995C55.6545 38.0708 54.4205 38.4084 53.4386 39.142C52.9533 39.4931 52.5339 39.923 52.1991 40.4129C52.0128 39.5377 51.5858 38.7284 50.9632 38.0717C50.3407 37.415 49.5465 36.9358 48.6655 36.6851C48.5097 35.3685 48.561 34.0365 48.8178 32.7349M47.8393 37.3313C47.8785 37.3854 47.9285 37.431 47.9864 37.4657C48.0445 37.5001 48.109 37.523 48.1764 37.5323C49.2694 37.796 50.212 38.4684 50.8002 39.4037C51.3881 40.3394 51.5743 41.4628 51.3184 42.531C51.1307 43.5221 50.5935 44.4181 49.7992 45.064C49.005 45.7099 48.004 46.065 46.9695 46.0682C47.9022 45.2035 48.4895 44.0444 48.6269 42.7973C48.7643 41.5503 48.4427 40.2963 47.7197 39.2587C47.1837 38.5238 46.8958 37.6449 46.8958 36.7435C46.8958 35.842 47.1837 34.9629 47.7197 34.2282C47.6616 35.1969 47.7015 36.169 47.8393 37.13C47.8465 37.2023 47.8728 37.2714 47.9154 37.3313M36.2275 23.5637C38.1866 23.7645 40.0774 24.3791 41.7675 25.3649C43.4576 26.3509 44.9063 27.6842 46.0127 29.272C46.755 30.3715 47.33 31.5701 47.7197 32.8303C47.0136 33.4007 46.4806 34.1477 46.1778 34.9912C45.8751 35.8346 45.8144 36.7424 46.0019 37.617C45.2337 37.1267 44.343 36.8496 43.4251 36.816C42.5073 36.7826 41.5975 36.9935 40.7939 37.4266C39.7422 36.6086 38.8193 35.6452 38.0541 34.567C36.9367 32.9852 36.19 31.1835 35.8668 29.2893C35.5437 27.3951 35.6521 25.4549 36.184 23.6061M22.4412 36.8546C24.5105 35.2307 27.0233 34.2329 29.6685 33.9845C32.3137 33.7362 34.9757 34.2479 37.3256 35.4567C37.206 36.5792 37.503 37.7062 38.1626 38.6337L38.2933 38.8032C38.6552 39.2773 39.0962 39.6888 39.5978 40.0211C38.7037 40.1967 37.8751 40.6059 37.2011 41.2047C36.5269 41.8035 36.0326 42.5693 35.7708 43.4206C34.4189 43.5669 33.0522 43.517 31.7154 43.2723C29.7787 42.9216 27.9443 42.1613 26.342 41.0451C24.7395 39.9289 23.408 38.484 22.4412 36.8121M22.3432 55.6311C22.5478 53.7225 23.1784 51.8803 24.1906 50.2339C25.2028 48.5874 26.5725 47.1766 28.2036 46.0999C29.3326 45.3876 30.5637 44.8414 31.8568 44.4796C32.4443 45.1646 33.2119 45.681 34.0775 45.9739C34.943 46.2667 35.874 46.325 36.7711 46.1424C36.2673 46.8904 35.9832 47.7582 35.9487 48.6521C35.9143 49.5462 36.1308 50.4322 36.5754 51.2151C35.7237 52.2495 34.7198 53.1558 33.5963 53.9049C31.9713 54.9913 30.1216 55.7174 28.1773 56.0321C26.233 56.3468 24.2417 56.2426 22.3432 55.7264M42.577 60.0579C42.2183 61.9462 41.4386 63.735 40.2926 65.2978C39.1467 66.8604 37.6625 68.1591 35.9446 69.102C34.2779 67.0839 33.2538 64.635 32.9988 62.0568C32.7439 59.4788 33.2691 56.8843 34.5097 54.5933C35.7354 54.7256 36.9662 54.3919 37.9453 53.6614C38.4198 53.2911 38.8244 52.843 39.1413 52.3376C39.2966 52.9798 39.569 53.5896 39.9458 54.138C40.5937 55.0784 41.5654 55.762 42.6858 56.0655C42.8359 57.3787 42.7846 58.7065 42.5335 60.0049M43.2076 55.2181C42.1108 54.9594 41.1639 54.2885 40.5732 53.352C39.9825 52.4154 39.7961 51.2895 40.0545 50.2196C40.242 49.2274 40.7788 48.3302 41.5729 47.6826C42.3669 47.035 43.3679 46.6773 44.4036 46.6718C43.4662 47.5357 42.8753 48.6961 42.7358 49.9456C42.5963 51.195 42.9177 52.452 43.6424 53.4919C44.1806 54.2239 44.4702 55.1014 44.4702 56.0019C44.4702 56.902 44.1806 57.7798 43.6424 58.5118C43.7169 57.5478 43.6878 56.5787 43.5555 55.6206C43.5409 55.5206 43.494 55.4278 43.4217 55.3555C43.3494 55.2832 43.2555 55.235 43.1533 55.2181M45.3278 55.0805C46.0947 55.5726 46.985 55.8516 47.9031 55.8869C48.8207 55.9224 49.731 55.7131 50.5356 55.2817C51.6004 56.1088 52.5312 57.087 53.2972 58.1835C54.4123 59.7643 55.1577 61.5643 55.4809 63.4564C55.804 65.3483 55.6969 67.2863 55.1673 69.1337C53.2065 68.9388 51.3137 68.3265 49.6226 67.34C47.9317 66.3538 46.484 65.0174 45.3821 63.4256C44.6165 62.3316 44.0228 61.1323 43.6208 59.8673C44.3442 59.3057 44.8953 58.5613 45.2138 57.715C45.5318 56.8689 45.6054 55.9539 45.4256 55.0699M23.3217 71.3052C23.5098 71.1213 23.6414 70.8899 23.7023 70.6373C23.7489 70.3877 23.7184 70.1296 23.6154 69.8963C23.5002 69.6175 23.3217 69.3676 23.0934 69.1656L21.9192 68.043L19.125 70.8282L19.6577 71.3367L20.4623 70.5318L21.1147 71.1456C21.3302 71.3589 21.5895 71.5246 21.8757 71.633C22.1212 71.7269 22.3894 71.7491 22.6477 71.6967C22.904 71.6261 23.1364 71.4912 23.3217 71.3052ZM22.2347 71.0402C21.9762 71.0017 21.7409 70.8736 21.5712 70.68L20.9407 70.0871L22.0279 69.028L22.6477 69.6209C22.8489 69.783 22.9871 70.0072 23.0391 70.2562C23.0486 70.3646 23.0319 70.4743 22.9905 70.5752C22.9488 70.6766 22.8837 70.7667 22.7999 70.8387C22.7291 70.922 22.6388 70.9877 22.5366 71.0302C22.4346 71.0723 22.3235 71.0905 22.2128 71.082M15.4828 65.3213C15.3262 65.1108 15.2355 64.8607 15.2218 64.6012C15.2007 64.3653 15.2537 64.129 15.374 63.9233C15.491 63.7071 15.6681 63.5272 15.885 63.4044C16.0939 63.2647 16.3386 63.184 16.5917 63.1715C16.8344 63.1597 17.0755 63.2148 17.2876 63.3302C17.514 63.4516 17.7022 63.631 17.8312 63.8494C17.9418 64.013 18.0146 64.1981 18.0446 64.3919C18.0746 64.5857 18.0612 64.7836 18.0052 64.9719L18.6358 65.1306C18.7246 64.8641 18.7433 64.58 18.6901 64.3046C18.6393 64.0106 18.5284 63.7299 18.3639 63.4786C18.1643 63.1637 17.888 62.9018 17.5594 62.716C17.2424 62.5503 16.8859 62.4698 16.5265 62.4831C16.1411 62.4801 15.7632 62.5869 15.4392 62.7902C15.1257 62.9828 14.8706 63.2533 14.6999 63.5739C14.5247 63.8992 14.4493 64.267 14.4825 64.6329C14.5028 65.0108 14.6268 65.3765 14.8413 65.6918C15.004 65.9465 15.2142 66.1693 15.461 66.3485C15.6998 66.5054 15.9705 66.6102 16.2547 66.6556L16.3851 66.0203C16.1855 65.9909 15.9952 65.9188 15.8277 65.8089C15.6604 65.699 15.5202 65.554 15.4175 65.3847M18.2009 67.3123L19.4077 68.7737L19.8861 68.403L18.6684 66.9416L19.473 66.3062L20.8429 67.9477L21.3321 67.5664L19.5708 65.2577L16.4722 67.704L18.3531 69.9702L18.8315 69.5892L17.3963 67.8841L18.2009 67.3123ZM12.9059 58.5963L13.5039 58.4059L12.8951 56.6266L14.1345 56.1289L14.8195 58.1411L15.4066 57.9504L14.4825 55.2606L10.6554 56.4996L10.8728 57.188L12.3189 56.7114L12.9059 58.5963ZM16.0155 59.5602L11.6665 59.6238L11.9926 60.3014H13.0038L13.841 62.0701L13.1778 62.8008L13.5039 63.4892L16.3525 60.2486L16.0155 59.5602ZM14.2759 61.424L13.6453 60.1002L15.5371 60.0368L14.2759 61.424ZM11.4056 53.3013L12.0253 53.2059L11.71 51.3527L12.9059 51.1515L13.2647 53.2696L13.8845 53.1742L13.4061 50.3783L9.45937 51.0139L9.58981 51.7234L11.0903 51.4797L11.4056 53.3013ZM10.2205 49.584C10.5539 49.7577 10.9302 49.8385 11.3077 49.8171C11.6931 49.81 12.0692 49.7 12.3949 49.4995C12.6769 49.2961 12.9013 49.0264 13.0473 48.7157C13.2051 48.3845 13.2797 48.0214 13.2647 47.6568C13.2499 47.2852 13.1456 46.9225 12.9603 46.5976C12.7744 46.2941 12.5077 46.0454 12.1883 45.8775C11.8549 45.704 11.4786 45.6233 11.1011 45.6446C10.7157 45.6516 10.3397 45.7615 10.0139 45.9623C9.71071 46.1527 9.46641 46.4199 9.30712 46.7352C9.14424 47.065 9.06944 47.4292 9.08966 47.7944C9.09369 48.1674 9.19871 48.5327 9.39413 48.8533C9.57626 49.1562 9.83928 49.405 10.1552 49.5736M9.88336 47.0531C10.018 46.8511 10.2109 46.6928 10.4379 46.5976C10.6531 46.4757 10.8957 46.4066 11.1446 46.3964C11.3965 46.3842 11.6473 46.4351 11.873 46.5446C12.0885 46.6541 12.269 46.8189 12.3949 47.0212C12.5251 47.229 12.5963 47.4666 12.6015 47.7096C12.6132 47.955 12.5608 48.1989 12.4493 48.4192C12.341 48.6284 12.1754 48.8043 11.9709 48.9275C11.7543 49.0556 11.5066 49.1251 11.2534 49.1287C11.0015 49.1401 10.7509 49.0892 10.5249 48.9803C10.3123 48.8719 10.1324 48.7113 10.003 48.5145C9.86699 48.2894 9.79212 48.0343 9.78551 47.7733C9.77381 47.5279 9.82622 47.2837 9.93779 47.0635M23.3436 73.7405L25.4093 71.1456L24.8222 70.7009L22.3759 73.772L24.6047 75.467L24.9853 74.9901L23.3436 73.7405ZM24.931 75.7208L25.5832 76.1019L26.3986 75.5411L28.1056 76.5999L27.9644 77.5747L28.6276 77.9661L29.1603 73.7302L28.5405 73.3594L24.931 75.7208ZM28.1928 75.9328L26.9096 75.1916L28.4644 74.1322L28.1928 75.9328ZM71.5303 70.7115L70.7259 69.9702L72.0413 68.6042L71.5956 68.202L70.28 69.568L69.5191 68.8796L71.0085 67.3335L70.5518 66.9205L68.5622 69.0385L71.4761 71.6863L73.52 69.568L73.0635 69.155L71.5303 70.7115ZM76.9667 62.4937C77.1174 62.2331 77.2101 61.9443 77.2387 61.6465C77.2624 61.3904 77.2092 61.1329 77.0865 60.9051C76.948 60.6865 76.7534 60.5075 76.5208 60.3862C76.2867 60.2564 76.0176 60.1974 75.749 60.2167C75.4914 60.2416 75.2465 60.3371 75.0419 60.4921C74.8015 60.6825 74.6047 60.9207 74.4662 61.191L73.6938 62.6101L77.1948 64.4422L77.5432 63.8069L76.5316 63.2774L76.9667 62.4937ZM75.9882 62.9809L74.5962 62.2607L74.9989 61.5087C75.1072 61.2745 75.2955 61.0841 75.5315 60.9687C75.6349 60.9323 75.7448 60.9192 75.8546 60.93C75.9638 60.9412 76.0685 60.9761 76.1618 61.0323C76.2623 61.0758 76.3514 61.1414 76.4211 61.2242C76.4907 61.3069 76.5403 61.4043 76.5647 61.5087C76.6035 61.7636 76.5452 62.0234 76.401 62.2396L75.9882 62.9809ZM68.6383 69.7904L68.2361 69.3245L65.6594 71.4422L66.0724 71.9087L67.0727 71.0717L69.2472 73.5497L69.8125 73.084L67.638 70.5955L68.6383 69.7904ZM66.714 73.4336C66.5168 73.391 66.3128 73.391 66.1158 73.4336C65.8714 73.4952 65.6318 73.5727 65.3984 73.6666C65.2326 73.7357 65.0619 73.7923 64.8874 73.8357C64.7729 73.8617 64.6539 73.8617 64.5394 73.8357C64.4864 73.8308 64.4351 73.8132 64.39 73.786C64.3446 73.7587 64.3064 73.7211 64.2784 73.6769C64.2382 73.6112 64.2169 73.5364 64.2169 73.4603C64.2169 73.3833 64.2382 73.3085 64.2784 73.2428C64.3726 73.0428 64.5284 72.8763 64.7243 72.7666C64.8768 72.6603 65.0455 72.5778 65.2243 72.5225C65.4134 72.4567 65.611 72.4176 65.8114 72.4064L65.6702 71.8127C65.4465 71.8163 65.2256 71.8596 65.0178 71.9401C64.7901 72.0219 64.5744 72.1323 64.3762 72.2686C64.1215 72.4288 63.9063 72.6427 63.7456 72.8932C63.614 73.0847 63.5421 73.3091 63.5391 73.5393C63.5493 73.7469 63.6169 73.9483 63.7348 74.1216C63.8561 74.3055 64.0414 74.4412 64.2566 74.5027C64.4521 74.5573 64.6592 74.5573 64.8547 74.5027C65.1024 74.4399 65.3456 74.3622 65.5832 74.27C65.7459 74.2028 65.9129 74.1461 66.0834 74.1007C66.2015 74.0762 66.3238 74.0762 66.4422 74.1007C66.5469 74.1189 66.6402 74.1755 66.7029 74.2594C66.7411 74.3237 66.7613 74.3972 66.7613 74.4712C66.7613 74.5454 66.7411 74.619 66.7029 74.6832C66.5982 74.8859 66.436 75.0546 66.2354 75.1706C66.0359 75.3027 65.8156 75.4027 65.5832 75.467C65.3644 75.5293 65.1369 75.5581 64.909 75.5517L65.0288 76.1552C65.2873 76.1727 65.5466 76.1361 65.7898 76.0495C66.077 75.9592 66.3484 75.8271 66.5944 75.6572C66.8497 75.4936 67.0678 75.281 67.2358 75.0328C67.3634 74.8441 67.4315 74.623 67.4315 74.3972C67.4315 74.1874 67.363 73.984 67.2358 73.8147C67.1806 73.7217 67.1071 73.6399 67.0195 73.5742C66.9317 73.5091 66.8314 73.4609 66.7248 73.4336M82.1634 47.0635V46.3328H80.7613L78.2064 44.7761V45.4857L80.1195 46.5976L78.1519 47.7096V48.5039L80.7721 46.9895L82.1634 47.0635ZM77.5432 52.9519L76.7383 56.1289L77.347 56.2773L77.6623 55.0275L80.9243 55.8112L81.1088 55.0699L77.8474 54.2862L78.1627 53.0366L77.5432 52.9519ZM75.912 58.247L78.9781 61.2864L79.261 60.598L78.5431 59.9095L79.2718 58.0988H80.2717L80.5546 57.3892L76.2057 57.6116L75.912 58.247ZM78.6408 58.1199L78.0972 59.4754L76.7383 58.1835L78.6408 58.1199ZM77.978 49.7747L79.6191 49.9336L79.3693 51.9458L77.7276 51.7763L77.6515 52.4964L81.62 52.8988L81.6961 52.1787L79.9889 52.0094L80.2064 50.0078L81.9134 50.1771L81.9895 49.4675L78.0105 49.0651L77.978 49.7747ZM75.0205 64.3152C74.7304 64.1002 74.3838 63.9684 74.0212 63.9345C73.6578 63.9009 73.2925 63.9667 72.966 64.1246C72.6191 64.2865 72.3227 64.535 72.1066 64.8447C71.8704 65.1554 71.7207 65.5202 71.6718 65.9038C71.6171 66.2638 71.6698 66.6313 71.8238 66.9627C71.9658 67.2937 72.2042 67.5772 72.5086 67.7782C72.8065 67.9948 73.1604 68.1269 73.5308 68.1595C73.9048 68.1996 74.2824 68.1333 74.6185 67.9688C74.9645 67.8069 75.2609 67.5586 75.477 67.2487C75.7147 66.9399 75.8618 66.5736 75.9012 66.1898C75.9602 65.8309 75.9106 65.4629 75.7598 65.1306C75.6142 64.7986 75.3722 64.5152 75.0642 64.3152M75.2272 66.1367C75.1956 66.3777 75.1015 66.6072 74.9552 66.804C74.8108 67.0037 74.6164 67.1642 74.3901 67.2699C74.1698 67.3717 73.925 67.4121 73.683 67.3863C73.4324 67.3538 73.1941 67.2629 72.9874 67.1217C72.7849 66.9735 72.6212 66.7812 72.5086 66.5603C72.4081 66.3489 72.37 66.1139 72.4003 65.8825C72.4289 65.6409 72.523 65.4107 72.6723 65.2154C72.8137 65.0131 73.009 64.8521 73.2371 64.7493C73.4511 64.6386 73.6917 64.5872 73.9336 64.6012C74.1798 64.6344 74.4154 64.725 74.6185 64.8658C74.8258 65.0081 74.991 65.2019 75.0966 65.4272C75.2007 65.6377 75.2423 65.8725 75.2164 66.105M62.9302 74.4076C62.6204 74.2288 62.2684 74.1301 61.9082 74.1216C61.5295 74.1259 61.1572 74.2167 60.8209 74.3867C60.4821 74.5602 60.1912 74.8111 59.9728 75.1174C59.7697 75.409 59.6531 75.7502 59.6359 76.1019C59.6067 76.4705 59.69 76.8389 59.8751 77.1613C60.0407 77.4851 60.297 77.7571 60.6144 77.9452C60.9195 78.1348 61.2745 78.2339 61.6364 78.2312C62.0161 78.2333 62.3901 78.1424 62.7237 77.9661C63.0678 77.7998 63.3602 77.5474 63.5718 77.2354C63.7819 76.9431 63.9025 76.5992 63.9197 76.2433C63.9371 75.8865 63.8504 75.5335 63.6695 75.223C63.5079 74.8999 63.2554 74.6281 62.9412 74.4399M62.9412 76.9285C62.8051 77.134 62.6132 77.2991 62.3867 77.4047C62.1665 77.5202 61.9192 77.5787 61.669 77.5747C61.4299 77.5677 61.1969 77.4984 60.995 77.3732C60.7826 77.239 60.61 77.0522 60.4948 76.8328C60.3698 76.6174 60.3095 76.3712 60.321 76.1237C60.3278 75.8901 60.399 75.6635 60.5275 75.467C60.6715 75.2649 60.861 75.0986 61.0819 74.9798C61.3041 74.8692 61.5499 74.8111 61.7994 74.8105C62.0431 74.821 62.2793 74.8937 62.4845 75.0222C62.6868 75.1601 62.8519 75.3448 62.9656 75.5581C63.0792 75.772 63.138 76.0097 63.1369 76.2503C63.135 76.4872 63.0633 76.7195 62.9302 76.9173M36.9668 76.96L33.7593 75.9013L33.5636 76.4838L34.8139 76.8964L33.7269 79.9997L34.4225 80.2324L35.5098 77.1188L36.7601 77.532L36.9668 76.96ZM32.9657 75.5936C32.7751 75.4469 32.5669 75.3224 32.3459 75.223C32.0743 75.0943 31.7781 75.0223 31.4762 75.011C31.2396 74.9916 31.003 75.0468 30.802 75.1706C30.6186 75.2761 30.474 75.4348 30.3889 75.6257C30.2865 75.8216 30.2594 76.0474 30.3128 76.2606C30.3648 76.4517 30.4701 76.6235 30.6173 76.7586C30.7958 76.9389 30.9883 77.1054 31.1934 77.2564C31.3674 77.3836 31.5089 77.4999 31.6066 77.585C31.698 77.6626 31.7688 77.7607 31.8131 77.871C31.835 77.9173 31.846 77.9676 31.846 78.0194C31.846 78.0703 31.835 78.1206 31.8131 78.1676C31.7817 78.236 31.7317 78.2948 31.6685 78.3375C31.6053 78.3808 31.5313 78.406 31.4544 78.4108C31.2247 78.4235 30.9958 78.376 30.7912 78.2732C30.5709 78.1712 30.369 78.0355 30.1932 77.871C30.0234 77.7214 29.8803 77.5466 29.7692 77.3515L29.3017 77.7543C29.416 77.9801 29.5792 78.1788 29.78 78.3369C30.0058 78.529 30.2585 78.6898 30.5304 78.8131C30.8071 78.9403 31.1058 79.0157 31.4109 79.036C31.6463 79.0424 31.8788 78.9879 32.0851 78.8767C32.2671 78.7647 32.4108 78.6025 32.4982 78.4108C32.6035 78.2193 32.6271 77.9949 32.5635 77.7858C32.505 77.5984 32.4004 77.4278 32.259 77.2887C32.0798 77.1118 31.8873 76.9488 31.6827 76.8013C31.5089 76.6741 31.3783 76.5578 31.2805 76.4726C31.1889 76.397 31.1149 76.3033 31.063 76.1979C31.039 76.1516 31.0267 76.1006 31.0267 76.0495C31.0267 75.9977 31.039 75.9468 31.063 75.9013C31.0933 75.8299 31.1425 75.7677 31.2057 75.7217C31.2686 75.6747 31.3433 75.6453 31.4217 75.6363C31.6475 75.6153 31.8742 75.6593 32.0741 75.7635C32.2433 75.8404 32.4006 75.9404 32.5416 76.06C32.6949 76.1867 32.8302 76.3327 32.9438 76.4942L33.4006 76.0706C33.2793 75.8895 33.1287 75.7286 32.9549 75.5936M57.1896 77.0976C56.9271 76.8628 56.597 76.711 56.2437 76.6635C55.8583 76.5978 55.4622 76.6271 55.0912 76.748L53.3299 77.3096L54.4714 81.0269L56.1458 80.4862C56.5253 80.3869 56.8756 80.2023 57.1677 79.9464C57.5437 79.5626 57.7481 79.05 57.7358 78.5193C57.7235 77.9892 57.496 77.4857 57.1027 77.1188M56.9831 78.9507C56.9262 79.1787 56.8014 79.385 56.6243 79.5444C56.4293 79.7185 56.1945 79.8458 55.9393 79.9149L55.0042 80.1899L54.2214 77.6271L55.1454 77.3627C55.4011 77.2796 55.6734 77.2578 55.9393 77.2991C56.1755 77.3396 56.3945 77.4466 56.5698 77.606C56.7484 77.7801 56.8792 77.9949 56.9504 78.2312C57.0149 78.4668 57.0149 78.715 56.9504 78.9507M51.6555 77.5529L52.0685 80.1584L49.481 77.8816L48.872 77.9661L49.481 81.8106L50.2095 81.7043L49.7963 79.099L52.384 81.3868L52.9819 81.2911L52.384 77.4474L51.6555 77.5529ZM45.9584 78.0718L44.2403 82.0008H45.0015L45.3821 81.1009H47.3717L47.7958 81.9903H48.5678L46.752 78.0612L45.9584 78.0718ZM45.6647 80.4862L46.3714 78.771L47.1542 80.4862H45.6647ZM56.972 15.3457L58.8421 16.0553V17.0296L59.5706 17.3049L59.3315 13.0688L58.7117 12.7934L55.5587 15.7799L56.2762 16.0553L56.972 15.3457ZM58.7117 13.5877L58.7878 15.441L57.3853 14.9115L58.7117 13.5877ZM54.1345 14.8268L52.0904 14.4138L52.7754 11.2367L52.0469 11.0884L51.2423 14.8268L54.0147 15.3775L54.1345 14.8268ZM75.6945 33.3069L75.9882 33.9634L77.2817 33.4234L80.2717 33.8152L79.9781 33.1585L77.7276 32.8303L79.0435 31.0299L78.7284 30.3203L76.9775 32.7669L75.6945 33.3069ZM47.6978 13.5348L49.6875 13.7042L50.0028 14.6362L50.7748 14.6997L49.3287 10.6754L48.6004 10.5907L46.4259 14.3079L47.1869 14.3714L47.6978 13.5348ZM48.8939 11.4167L49.4918 13.1747L48.0023 13.0476L48.8939 11.4167ZM63.6371 19.5925L64.496 19.0735L66.1158 20.1219L65.8985 21.0856L66.5291 21.5198L67.388 17.2837L66.7901 16.9449L63.0608 19.0629L63.6371 19.5925ZM66.6595 17.8027L66.2573 19.603L65.0288 18.7558L66.6595 17.8027ZM72.966 28.5199L75.1403 27.1964L74.042 29.325L74.2156 29.6002H76.7705L74.5093 30.9559L74.8791 31.5382L78.2825 29.4732L77.9666 28.9754H74.8899L76.3249 26.3173L75.999 25.809L72.5962 27.8423L72.966 28.5199ZM72.1174 27.3445L72.5962 26.9527L71.1608 25.2582L72.0089 24.5805L73.2371 26.0313L73.7047 25.65L72.487 24.1462L73.281 23.5108L74.6615 25.1417L75.1511 24.7606L73.2918 22.5684L70.2147 25.0358L72.1174 27.3445ZM68.1492 23.1084C68.428 23.3724 68.767 23.5683 69.1385 23.6803C69.4924 23.7892 69.8719 23.7892 70.2257 23.6803C70.5822 23.5821 70.9025 23.3874 71.1498 23.119C71.4002 22.8609 71.5766 22.543 71.6609 22.1976C71.7422 21.8451 71.7157 21.4769 71.5848 21.1387C71.4419 20.7815 71.2146 20.4622 70.9216 20.2067L69.5842 19.0629L66.8552 21.9011L68.1492 23.1084ZM69.7256 20.0478L70.4323 20.6938C70.6299 20.8688 70.7825 21.0864 70.8781 21.3293C70.9483 21.55 70.9483 21.7863 70.8781 22.007C70.8198 22.2467 70.696 22.4663 70.5192 22.6423C70.347 22.8235 70.1299 22.9583 69.8886 23.0342C69.6577 23.0976 69.4131 23.0976 69.1819 23.0342C68.9282 22.953 68.6973 22.8152 68.5079 22.632L67.8012 21.9858L69.7256 20.0478ZM60.7232 17.6862C60.9344 17.9948 61.2223 18.2462 61.5603 18.4169C61.8279 18.564 62.1243 18.6543 62.43 18.6817C62.7139 18.7161 63.002 18.6796 63.2673 18.5757L63.0608 18.0039C62.8721 18.0719 62.6702 18.0995 62.4697 18.0849C62.2689 18.0703 62.0738 18.0138 61.8974 17.9192C61.6718 17.8024 61.4808 17.6309 61.3429 17.4214C61.2081 17.227 61.1326 16.9993 61.1254 16.7648C61.1233 16.5168 61.1869 16.2724 61.3103 16.0553C61.4267 15.8332 61.6035 15.6464 61.8213 15.5151C62.0282 15.3935 62.2646 15.3276 62.5063 15.3245C62.7616 15.3275 63.0122 15.393 63.2346 15.5151C63.4121 15.6055 63.5679 15.7315 63.6918 15.8849C63.8154 16.0382 63.9042 16.2154 63.9523 16.4047L64.5829 16.2459C64.5246 15.9749 64.4016 15.7209 64.2242 15.5046C64.0291 15.2737 63.7889 15.083 63.5175 14.9433C63.1859 14.7593 62.8116 14.6609 62.43 14.6574C62.0706 14.6604 61.7182 14.7554 61.408 14.9327C61.0904 15.119 60.8309 15.3863 60.6579 15.7058C60.4777 16.0306 60.3878 16.3958 60.3969 16.7648C60.4088 17.1164 60.5218 17.4577 60.7232 17.7497M15.5589 26.8573L18.3422 28.7106L18.7554 28.1069L15.9828 26.2643L16.7222 25.2053L16.2003 24.8663L14.2976 27.5988L14.8195 27.9376L15.5589 26.8573ZM21.7453 24.4216L21.267 24.0297L19.81 25.6923L18.9728 25.0041L20.2232 23.5744L19.7556 23.1826L18.5053 24.6122L17.7116 23.9555L19.125 22.3458L18.6575 21.9541L16.7657 24.0722L19.7991 26.5927L21.7453 24.4216ZM22.8326 23.3627L22.0387 22.5364L22.702 21.933L22.8107 21.8269L24.2025 22.134L24.8004 21.6045L23.2348 21.2657C23.3622 21.0321 23.408 20.7645 23.3654 20.5032C23.313 20.2428 23.189 20.0012 23.0064 19.8042C22.8264 19.6095 22.5923 19.4697 22.3324 19.4018C22.0843 19.3281 21.8195 19.3281 21.5712 19.4018C21.2799 19.5071 21.0135 19.6692 20.7885 19.8784L19.5817 20.9374L22.2889 23.7968L22.8326 23.3627ZM20.658 20.9692L21.2996 20.3973C21.4779 20.2069 21.7216 20.0865 21.9845 20.0584C22.0939 20.0558 22.2026 20.0774 22.3025 20.1214C22.4022 20.1653 22.4906 20.2307 22.5608 20.3125C22.6411 20.3864 22.7028 20.4775 22.7406 20.5786C22.7783 20.6797 22.7912 20.7882 22.7781 20.895C22.7276 21.1474 22.5847 21.3731 22.3759 21.5303L21.7345 22.1023L20.658 20.9692ZM43.2402 14.4667L43.1206 11.8403L45.4474 14.3714H46.0561L45.8712 10.4848H45.1429L45.2625 13.1112L42.8923 10.5907H42.2725L42.4574 14.4667H43.2402ZM15.3197 34.2494L11.6121 32.8303L11.3403 33.4975L15.0478 34.9483L15.3197 34.2494ZM16.0372 32.6396L13.6344 31.4429L17.0484 30.7122L17.3202 30.1933L13.7758 28.4035L13.4387 29.0496L15.8416 30.2463L12.4275 30.9559L12.1557 31.4748L15.7002 33.2644L16.0372 32.6396ZM36.7601 15.5999L35.673 11.8615L34.9661 12.0733L36.0534 15.8011L36.7601 15.5999ZM37.5974 14.382C37.8338 14.6477 38.1431 14.8424 38.4889 14.9433C38.8418 15.0448 39.2145 15.0629 39.5762 14.9962C39.9714 14.9404 40.3457 14.7874 40.6635 14.5514C40.9457 14.3297 41.16 14.0366 41.283 13.7042C41.4128 13.3658 41.4393 12.998 41.3593 12.6452C41.2987 12.291 41.1367 11.9605 40.8918 11.6921C40.6531 11.4263 40.345 11.2287 40.0003 11.1202C39.6472 11.0186 39.2745 11.0005 38.913 11.0672C38.5152 11.1219 38.14 11.279 37.8257 11.5226C37.4074 11.873 37.1485 12.3706 37.1059 12.9065C37.0631 13.4422 37.2397 13.9728 37.5974 14.382ZM37.9018 12.5605C37.9854 12.3404 38.1234 12.144 38.3041 11.9886C38.4981 11.8337 38.7307 11.7314 38.9781 11.6921C39.2202 11.6277 39.4755 11.6277 39.7174 11.6921C39.9475 11.7656 40.1512 11.9015 40.3047 12.0839C40.4671 12.272 40.5759 12.4984 40.62 12.7405C40.6802 12.977 40.6802 13.2242 40.62 13.4607C40.5382 13.6889 40.3936 13.8906 40.2017 14.0438C40.0098 14.1971 39.7783 14.2958 39.5327 14.3291C39.2906 14.3929 39.0355 14.3929 38.7934 14.3291C38.5674 14.2477 38.3658 14.1131 38.2061 13.9372C38.0458 13.7479 37.9375 13.522 37.8908 13.2806C37.831 13.0406 37.831 12.79 37.8908 12.5499M26.0072 20.768L24.4635 18.6499L27.8122 19.5713L28.3124 19.2218L26.0183 16.0447L25.4201 16.4577L26.9749 18.5757L23.6154 17.6544L23.1152 18.0039L25.4093 21.181L26.0072 20.768ZM32.3678 13.5877L33.5746 16.6483L34.2705 16.3942L33.0526 13.3336L34.2921 12.8676L34.0638 12.2957L30.9107 13.4819L31.1283 14.0537L32.3678 13.5877ZM29.356 18.5969V17.6227L31.1283 16.7225L31.9003 17.3473L32.5851 16.9978L29.1494 14.3503L28.5081 14.6785L28.7472 18.9147L29.356 18.5969ZM30.5738 16.3306L29.2364 17.0084L29.0952 15.1657L30.5738 16.3306ZM79.8589 38.8985C79.7491 38.8985 79.6422 38.9302 79.551 38.9896C79.4599 39.0488 79.388 39.1331 79.3464 39.2318C79.3047 39.3305 79.2932 39.4392 79.3148 39.544C79.3363 39.6486 79.3895 39.745 79.4671 39.8205C79.5445 39.8962 79.6429 39.9475 79.7506 39.9682C79.8583 39.9892 79.9696 39.9786 80.0707 39.9376C80.1719 39.8968 80.2588 39.8275 80.3198 39.7387C80.3809 39.6499 80.4131 39.5455 80.4131 39.4385C80.4131 39.2955 80.355 39.1581 80.2509 39.0566C80.1468 38.9554 80.0061 38.8985 79.8589 38.8985ZM11.6883 39.9577C11.7984 39.9596 11.9066 39.9298 11.9992 39.8718C12.0919 39.8137 12.1646 39.73 12.2083 39.6315C12.2519 39.533 12.2644 39.4242 12.2443 39.3187C12.2242 39.2132 12.1722 39.116 12.0951 39.0395C12.018 38.9628 11.9192 38.9104 11.8113 38.8888C11.7035 38.867 11.5915 38.877 11.4895 38.9175C11.3875 38.9581 11.3003 39.0272 11.2389 39.1164C11.1774 39.2052 11.1446 39.3103 11.1446 39.4174C11.1446 39.5588 11.2015 39.6947 11.3031 39.7955C11.4048 39.8966 11.5431 39.9547 11.6883 39.9577Z" fill="#5F998A"/>
<path d="M37.541 77.0116L38.2225 77.2257L38.68 79.3115L38.7228 79.3248L40.3425 77.8892L41.0242 78.1025L38.8051 80.0037L38.3032 81.524L37.7053 81.3365L38.2072 79.8164L37.541 77.0116Z" fill="#5F998A"/>
</g>
</svg>
