<svg width="28" height="28" viewBox="0 0 28 28" fill="none" xmlns="http://www.w3.org/2000/svg">
<g clip-path="url(#clip0_926_2667)" filter="url(#filter0_d_926_2667)">
<path d="M21.5 1.25C21.8315 1.25 22.1495 1.3817 22.3839 1.61612C22.6183 1.85054 22.75 2.16848 22.75 2.5V12.5C22.75 12.8315 22.6183 13.1495 22.3839 13.3839C22.1495 13.6183 21.8315 13.75 21.5 13.75H9.5175C8.85451 13.7501 8.21873 14.0136 7.75 14.4825L5.25 16.9825V2.5C5.25 2.16848 5.3817 1.85054 5.61612 1.61612C5.85054 1.3817 6.16848 1.25 6.5 1.25H21.5ZM6.5 0C5.83696 0 5.20107 0.263392 4.73223 0.732233C4.26339 1.20107 4 1.83696 4 2.5L4 18.4913C4.00003 18.6149 4.03674 18.7358 4.1055 18.8386C4.17425 18.9414 4.27196 19.0215 4.38625 19.0687C4.50054 19.116 4.62628 19.1282 4.74755 19.104C4.86881 19.0797 4.98016 19.0201 5.0675 18.9325L8.63375 15.3663C8.86812 15.1318 9.18601 15.0001 9.5175 15H21.5C22.163 15 22.7989 14.7366 23.2678 14.2678C23.7366 13.7989 24 13.163 24 12.5V2.5C24 1.83696 23.7366 1.20107 23.2678 0.732233C22.7989 0.263392 22.163 0 21.5 0L6.5 0Z" fill="#5F998A"/>
<path d="M13.9997 4.99119C16.0797 2.85244 21.2809 6.59494 13.9997 11.4062C6.71843 6.59369 11.9197 2.85244 13.9997 4.99119Z" fill="#5F998A"/>
</g>
<defs>
<filter id="filter0_d_926_2667" x="0" y="0" width="28" height="28" filterUnits="userSpaceOnUse" color-interpolation-filters="sRGB">
<feFlood flood-opacity="0" result="BackgroundImageFix"/>
<feColorMatrix in="SourceAlpha" type="matrix" values="0 0 0 0 0 0 0 0 0 0 0 0 0 0 0 0 0 0 127 0" result="hardAlpha"/>
<feOffset dy="4"/>
<feGaussianBlur stdDeviation="2"/>
<feComposite in2="hardAlpha" operator="out"/>
<feColorMatrix type="matrix" values="0 0 0 0 0 0 0 0 0 0 0 0 0 0 0 0 0 0 0.25 0"/>
<feBlend mode="normal" in2="BackgroundImageFix" result="effect1_dropShadow_926_2667"/>
<feBlend mode="normal" in="SourceGraphic" in2="effect1_dropShadow_926_2667" result="shape"/>
</filter>
<clipPath id="clip0_926_2667">
<rect width="20" height="20" fill="white" transform="translate(4)"/>
</clipPath>
</defs>
</svg>
