<svg width="473" height="115" viewBox="0 0 473 115" fill="none" xmlns="http://www.w3.org/2000/svg">
<g clip-path="url(#clip0_88_29751)">
<g clip-path="url(#clip1_88_29751)">
<mask id="mask0_88_29751" style="mask-type:luminance" maskUnits="userSpaceOnUse" x="-12" y="0" width="110" height="115">
<path d="M97.7709 0.155273H-11.2109V114.042H97.7709V0.155273Z" fill="white"/>
</mask>
<g mask="url(#mask0_88_29751)">
<path d="M55.4781 86.5293C55.6071 86.5286 55.7335 86.4925 55.8434 86.4249C55.9567 86.3521 56.0401 86.241 56.0782 86.1118C56.7832 83.8509 57.015 81.4691 56.7591 79.1146C56.5032 76.7603 55.7652 74.4837 54.591 72.4271C55.7146 72.9021 56.8871 73.2521 58.0872 73.4708C60.6579 73.9686 63.3081 73.8748 65.8372 73.1968C68.3663 72.5187 70.7081 71.274 72.685 69.5571C72.7683 69.4883 72.8314 69.3981 72.8677 69.2962C72.9114 69.1694 72.9114 69.0317 72.8677 68.9049C71.7638 66.8105 70.241 64.9655 68.394 63.4843C66.5471 62.0032 64.4154 60.9175 62.1313 60.2949C63.2579 59.8284 64.3332 59.247 65.3404 58.5598C67.5089 57.0998 69.3184 55.1675 70.6334 52.9081C71.9484 50.6488 72.7345 48.121 72.9329 45.5144C72.9339 45.381 72.8978 45.2501 72.8285 45.136C72.752 45.0263 72.6423 44.944 72.5154 44.9012C70.2518 44.1867 67.8653 43.9454 65.5044 44.1922C63.1435 44.4392 60.8585 45.1689 58.7916 46.3362C59.263 45.2113 59.6128 44.0393 59.8353 42.84C60.3302 40.2672 60.2351 37.6157 59.5573 35.0849C58.8794 32.5541 57.6363 30.2101 55.9216 28.2291C55.8462 28.1565 55.7576 28.0989 55.6607 28.0595C55.5262 28.0084 55.3778 28.0084 55.2433 28.0595C53.1489 29.1634 51.3039 30.6862 49.8227 32.5332C48.3416 34.3801 47.2559 36.5118 46.6333 38.796C46.1578 37.6795 45.5721 36.6132 44.8852 35.6129C43.423 33.4476 41.49 31.641 39.2309 30.3284C36.9718 29.0159 34.445 28.2313 31.8397 28.0335C31.705 28.0191 31.5697 28.0564 31.4614 28.1378C31.3517 28.2144 31.2694 28.3241 31.2266 28.4509C30.5275 30.7132 30.2998 33.095 30.5579 35.4487C30.8159 37.8027 31.5542 40.0784 32.7268 42.1356C31.6002 41.6658 30.4289 41.3118 29.2306 41.0789C26.6578 40.585 24.0065 40.6805 21.4759 41.3583C18.9453 42.0362 16.6012 43.2786 14.6197 44.9925L14.5545 45.0708C14.5489 45.1229 14.5489 45.1753 14.5545 45.2274C14.5362 45.3488 14.5592 45.4729 14.6197 45.5796C14.928 46.1628 15.2677 46.729 15.6373 47.2755C17.9526 50.6587 21.3911 53.1128 25.3431 54.2026C22.3545 55.4359 19.7651 57.4717 17.8611 60.0848C15.9571 62.6978 14.8128 65.7865 14.5545 69.0092C14.5545 69.0092 14.5545 69.0092 14.5545 69.1005C14.5545 69.1005 14.5545 69.1005 14.5545 69.1788C14.5495 69.2178 14.5495 69.2572 14.5545 69.2962C14.5816 69.3299 14.6122 69.3605 14.6458 69.3875H14.711C14.741 69.3947 14.7724 69.3947 14.8024 69.3875C17.0634 70.0917 19.4451 70.3232 21.7994 70.0673C24.1536 69.8114 26.4302 69.0738 28.487 67.9004C28.0156 69.0263 27.6615 70.1979 27.4304 71.3965C26.9933 73.6408 27.0057 75.9493 27.467 78.1885C27.9283 80.4278 28.8294 82.5533 30.1177 84.442C30.4843 84.9887 30.8852 85.5116 31.3179 86.0074C31.3938 86.1011 31.4999 86.1657 31.618 86.1901H31.8397H31.9441C34.0418 85.0888 35.8901 83.567 37.3737 81.7199C38.8573 79.8727 39.9443 77.7396 40.5671 75.4537C41.0284 76.5826 41.6101 77.6586 42.3022 78.6629C43.7622 80.8313 45.6945 82.6408 47.9539 83.9558C50.2132 85.2708 52.741 86.0569 55.3476 86.2553M71.5762 69.0092C69.0902 71.0091 66.0735 72.2378 62.8977 72.5439C59.7219 72.8498 56.5259 72.2197 53.7039 70.7312C53.8663 69.2566 53.4553 67.7758 52.5559 66.5958C52.1237 66.0136 51.5941 65.5104 50.9904 65.1086C52.0673 64.8857 53.063 64.3731 53.8698 63.6259C54.6768 62.8788 55.2644 61.9254 55.5694 60.8689C58.7411 60.5118 61.9481 61.0926 64.7931 62.5395C67.6381 63.9863 69.9965 66.2358 71.5762 69.0092ZM33.8487 62.8909C33.1434 61.7343 32.9243 60.3456 33.2396 59.028C33.5549 57.7106 34.379 56.5713 35.5316 55.8594C36.5609 55.1489 37.8075 54.8236 39.0527 54.9405C40.298 55.0574 41.4622 55.6089 42.3413 56.4986C40.8043 56.4712 39.3069 56.9877 38.1135 57.9567C36.9201 58.9257 36.1074 60.2852 35.8186 61.7951C35.5741 63.1791 34.8142 64.4189 33.6922 65.2652C33.0423 65.7612 32.2726 66.0762 31.4614 66.1784C32.3634 65.3962 33.1809 64.5217 33.9009 63.5693C33.973 63.4709 34.0118 63.3521 34.0118 63.2301C34.0118 63.1081 33.973 62.9893 33.9009 62.8909M53.4691 51.5544C54.1711 52.7119 54.388 54.0996 54.073 55.4161C53.7579 56.7325 52.9362 57.8717 51.7862 58.5859C50.7569 59.2965 49.5103 59.6218 48.2651 59.505C47.0199 59.3881 45.8556 58.8364 44.9765 57.9467C46.5135 57.9741 48.0109 57.4576 49.2043 56.4886C50.3977 55.5196 51.2105 54.1601 51.4992 52.6502C51.751 51.2691 52.5093 50.0316 53.6256 49.1801C54.3067 48.7414 55.0874 48.4812 55.8955 48.4235C54.9928 49.209 54.1711 50.083 53.443 51.0326C53.3823 51.114 53.3444 51.21 53.3329 51.3108C53.3214 51.4117 53.3369 51.5137 53.3778 51.6066M58.5959 59.6948C57.4079 59.6162 56.2149 59.6556 55.0345 59.8122C54.9114 59.8298 54.7971 59.886 54.708 59.9728C54.6189 60.0595 54.5597 60.1722 54.5388 60.2949C54.217 61.6089 53.3899 62.7431 52.2372 63.4513C51.0845 64.1596 49.6991 64.3847 48.3814 64.078C47.1593 63.8533 46.0539 63.209 45.2562 62.2564C44.4583 61.3037 44.018 60.1024 44.0111 58.8599C45.0769 59.9823 46.5072 60.6892 48.0464 60.8541C49.5855 61.019 51.133 60.6312 52.4124 59.76C53.3148 59.1161 54.3957 58.77 55.5042 58.77C56.6128 58.77 57.6936 59.1161 58.5959 59.76M44.4286 55.9638C44.4892 54.5701 44.0906 53.1951 43.2936 52.0501C42.3163 50.6371 40.8209 49.6666 39.1321 49.3497C38.0374 49.1706 37.0256 48.6548 36.2376 47.8738C35.4497 47.0929 34.9247 46.0857 34.7358 44.9925C35.518 45.8945 36.3925 46.7121 37.3449 47.432C37.4454 47.5052 37.5664 47.5446 37.6906 47.5446C37.8148 47.5446 37.9359 47.5052 38.0363 47.432C39.1929 46.7267 40.5817 46.5076 41.8992 46.8229C43.2168 47.1384 44.3559 47.9623 45.0678 49.1149C45.7774 50.1422 46.1022 51.3866 45.9853 52.6296C45.8684 53.8726 45.3172 55.0347 44.4286 55.9116M38.9104 50.4847C39.6006 50.6087 40.2593 50.8687 40.8483 51.2494C41.4373 51.6302 41.9447 52.124 42.3413 52.7024C42.9685 53.5947 43.2931 54.6647 43.2675 55.755C42.2034 54.6305 40.7739 53.9212 39.2348 53.754C37.6957 53.5866 36.1472 53.9723 34.8663 54.8419C33.9647 55.4876 32.8835 55.8349 31.7745 55.8349C30.6655 55.8349 29.5843 55.4876 28.6827 54.8419C29.8746 54.9312 31.0725 54.8963 32.2572 54.7375C32.3814 54.7173 32.496 54.6586 32.585 54.5696C32.674 54.4806 32.7327 54.366 32.7529 54.2418C33.0776 52.9302 33.9059 51.7991 35.0582 51.0935C36.2106 50.388 37.5945 50.1645 38.9104 50.4716M42.824 58.5207C42.7744 59.8829 43.1581 61.2257 43.9198 62.356C44.4046 63.0673 45.0254 63.6755 45.7463 64.1456C46.4673 64.6159 47.2742 64.9387 48.1204 65.0956C49.5008 65.3498 50.7374 66.1077 51.5905 67.222C52.0871 67.8766 52.402 68.6506 52.5037 69.4658C51.7184 68.5631 50.8442 67.7413 49.8946 67.0133C49.7963 66.9413 49.6774 66.9024 49.5554 66.9024C49.4335 66.9024 49.3146 66.9413 49.2163 67.0133C48.0731 67.6916 46.7115 67.9007 45.4176 67.5968C44.1235 67.2927 42.9975 66.4991 42.2761 65.3826C41.5656 64.3533 41.2403 63.1067 41.3572 61.8615C41.4741 60.6163 42.0256 59.452 42.9153 58.5729M71.6805 45.8144C71.4404 48.1672 70.6861 50.4382 69.471 52.4672C68.256 54.496 66.6098 56.2332 64.649 57.5553C63.2983 58.4689 61.8217 59.1808 60.2658 59.6687C59.565 58.8192 58.6449 58.178 57.6054 57.8147C56.5658 57.4512 55.4466 57.3796 54.3692 57.6075C54.9754 56.6871 55.3189 55.6188 55.3626 54.5176C55.4063 53.4164 55.1486 52.3242 54.6171 51.3587C56.6108 48.8713 59.2884 47.0214 62.3202 46.0362C65.3519 45.0511 68.6056 44.974 71.6805 45.8144ZM47.416 40.4658C47.844 38.1489 48.7734 35.9536 50.139 34.0337C51.5046 32.1138 53.2734 30.5156 55.3215 29.351C56.8122 31.1848 57.8826 33.3231 58.4574 35.6155C59.0322 37.9077 59.0973 40.2981 58.6481 42.6183C58.3423 44.2196 57.8016 45.7669 57.0435 47.2103C55.5671 47.0516 54.0863 47.4674 52.9081 48.3713C52.3259 48.8035 51.8228 49.3332 51.4209 49.9368C51.1975 48.8587 50.6849 47.8616 49.9379 47.0527C49.1911 46.2437 48.2381 45.6534 47.1812 45.3448C46.9941 43.723 47.0558 42.0821 47.3638 40.4788M46.1897 46.1405C46.2368 46.2072 46.2968 46.2636 46.3664 46.3061C46.4359 46.3487 46.5134 46.3768 46.5941 46.3884C47.9057 46.7131 49.0368 47.5414 49.7424 48.6937C50.448 49.8461 50.6714 51.23 50.3643 52.5459C50.1391 53.7667 49.4943 54.8704 48.5414 55.6661C47.5886 56.4617 46.3875 56.8993 45.1461 56.903C46.2653 55.838 46.97 54.4102 47.1349 52.8741C47.2996 51.3379 46.9139 49.7931 46.0462 48.5148C45.4031 47.6097 45.0575 46.5269 45.0575 45.4165C45.0575 44.3062 45.4031 43.2233 46.0462 42.3182C45.9764 43.5115 46.0244 44.7088 46.1897 45.8927C46.1985 45.9818 46.2299 46.0671 46.281 46.1405M32.2572 29.1814C34.608 29.4285 36.8766 30.1857 38.9044 31.4002C40.9323 32.6148 42.6706 34.2572 43.9981 36.213C44.8888 37.5675 45.5787 39.0439 46.0462 40.5962C45.1991 41.2988 44.5594 42.2191 44.1962 43.2581C43.8331 44.2971 43.7601 45.4153 43.985 46.4928C43.0635 45.8885 41.9946 45.5474 40.8934 45.506C39.7921 45.4647 38.7006 45.7247 37.7363 46.2579C36.4745 45.2505 35.367 44.0638 34.4488 42.7357C33.1081 40.7871 32.2123 38.5677 31.8245 36.2343C31.4367 33.901 31.5667 31.5111 32.205 29.2336M15.7155 45.5535C18.1986 43.5532 21.2134 42.3241 24.3872 42.018C27.5612 41.712 30.7553 42.3425 33.5748 43.8315C33.4314 45.2142 33.7877 46.6025 34.5793 47.7451L34.7358 47.9539C35.1702 48.5378 35.6994 49.0448 36.3013 49.4541C35.2283 49.6705 34.2342 50.1745 33.4254 50.912C32.6166 51.6496 32.0234 52.5931 31.7093 53.6417C30.0872 53.822 28.4474 53.7604 26.8433 53.459C24.5195 53.027 22.3186 52.0904 20.396 50.7156C18.4734 49.3406 16.8757 47.5607 15.7155 45.5013M15.5981 68.6831C15.8435 66.3318 16.6 64.0626 17.8146 62.0345C19.0292 60.0064 20.6726 58.2684 22.6296 56.9422C23.9844 56.0646 25.4615 55.392 27.0129 54.9462C27.7179 55.79 28.6389 56.4262 29.6776 56.7869C30.7161 57.1476 31.8332 57.2194 32.9095 56.9944C32.3052 57.9159 31.964 58.985 31.9227 60.0861C31.8813 61.1873 32.1413 62.2788 32.6746 63.2431C31.6527 64.5174 30.4482 65.634 29.1002 66.5567C27.1504 67.8949 24.931 68.7893 22.5982 69.177C20.2654 69.5647 17.8759 69.4362 15.5981 68.8005M39.8757 74.1361C39.4454 76.4622 38.5097 78.6656 37.1347 80.5907C35.7598 82.5157 33.9789 84.1155 31.918 85.2769C29.9181 82.791 28.6894 79.7742 28.3833 76.5984C28.0774 73.4226 28.7075 70.2266 30.196 67.4046C31.6667 67.5677 33.1436 67.1564 34.3184 66.2566C34.8877 65.8004 35.3732 65.2486 35.7534 64.626C35.9396 65.417 36.2667 66.1682 36.7187 66.8437C37.4961 68.0021 38.6621 68.8442 40.0062 69.218C40.1863 70.8357 40.1248 72.4712 39.8235 74.0709M40.6324 68.1743C39.3165 67.8555 38.1802 67.0291 37.4714 65.8756C36.7627 64.722 36.539 63.3348 36.8492 62.0169C37.0739 60.7948 37.7183 59.6894 38.671 58.8917C39.6236 58.0938 40.8248 57.6534 42.0674 57.6466C40.9428 58.7107 40.2336 60.1403 40.0663 61.6794C39.8989 63.2185 40.2846 64.767 41.1542 66.0479C41.7999 66.9495 42.1472 68.0307 42.1472 69.1397C42.1472 70.2487 41.7999 71.3299 41.1542 72.2314C41.2435 71.0439 41.2086 69.8503 41.0498 68.67C41.0322 68.5469 40.976 68.4326 40.8892 68.3435C40.8025 68.2544 40.6898 68.1952 40.5671 68.1743M43.1762 68.0047C44.0966 68.6109 45.1649 68.9544 46.2662 68.9981C47.3673 69.0418 48.4595 68.7841 49.425 68.2526C50.7024 69.2713 51.8194 70.4763 52.7385 71.827C54.0765 73.7745 54.9709 75.9917 55.3586 78.3224C55.7462 80.6531 55.6178 83.0404 54.9824 85.316C52.6296 85.0759 50.3585 84.3216 48.3296 83.1065C46.3007 81.8915 44.5637 80.2453 43.2414 78.2845C42.3228 76.9368 41.6105 75.4594 41.1281 73.9013C41.9963 73.2095 42.6574 72.2924 43.0394 71.25C43.4212 70.2078 43.5093 69.0806 43.2936 67.9917M16.7722 87.9904C16.9978 87.764 17.1558 87.4795 17.2288 87.1685C17.2846 86.8605 17.2483 86.5428 17.1245 86.2553C16.9863 85.9118 16.7722 85.6041 16.4983 85.3552L15.0894 83.9724L11.7367 87.4033L12.3759 88.0295L13.3413 87.038L14.124 87.7947C14.3827 88.0569 14.6938 88.2614 15.0372 88.3948C15.3317 88.5102 15.6536 88.5374 15.9634 88.473C16.2709 88.3862 16.5498 88.2197 16.7722 87.9904ZM15.4677 87.6642C15.1577 87.6169 14.8753 87.4594 14.6719 87.2207L13.9153 86.4901L15.2198 85.1856L15.9634 85.9161C16.2049 86.1157 16.3706 86.3919 16.433 86.6989C16.4444 86.8326 16.4244 86.9671 16.3746 87.0917C16.3248 87.2162 16.2465 87.3274 16.146 87.4164C16.0611 87.5189 15.9528 87.5998 15.8302 87.652C15.7077 87.7041 15.5744 87.7262 15.4416 87.7164M7.36645 80.6197C7.1786 80.3605 7.0698 80.0523 7.05336 79.7326C7.02805 79.4422 7.09171 79.151 7.236 78.8977C7.37637 78.6313 7.58888 78.4098 7.84913 78.2584C8.09974 78.0863 8.39339 77.9868 8.69709 77.9715C8.98826 77.957 9.27761 78.0248 9.532 78.1671C9.80373 78.3165 10.0294 78.5376 10.1843 78.8064C10.3169 79.008 10.4043 79.2362 10.4404 79.4749C10.4764 79.7135 10.4603 79.9574 10.393 80.1892L11.1496 80.3849C11.2562 80.0565 11.2787 79.7066 11.2149 79.3673C11.1539 79.0053 11.0209 78.6593 10.8235 78.3498C10.584 77.9619 10.2524 77.6393 9.85813 77.4105C9.47786 77.2063 9.0501 77.1072 8.61882 77.1235C8.15635 77.1198 7.70302 77.2513 7.31427 77.5018C6.93817 77.7391 6.63199 78.0723 6.42718 78.4672C6.21702 78.8681 6.12648 79.3209 6.16627 79.7717C6.19066 80.2372 6.33938 80.6876 6.59677 81.0763C6.79206 81.3899 7.04423 81.6642 7.34036 81.8851C7.62684 82.0783 7.95167 82.2073 8.29268 82.2634L8.44922 81.4807C8.20971 81.4447 7.98128 81.3557 7.78038 81.2203C7.57961 81.0849 7.41146 80.9064 7.28818 80.698M10.6278 83.0722L12.0759 84.8725L12.6499 84.4159L11.1888 82.6156L12.1541 81.8329L13.7979 83.855L14.3849 83.3853L12.2715 80.5414L8.55359 83.5549L10.8105 86.3466L11.3845 85.877L9.66245 83.7767L10.6278 83.0722ZM4.27468 72.3358L4.99218 72.101L4.26163 69.9094L5.74882 69.2962L6.57068 71.7749L7.27513 71.54L6.16627 68.2265L1.57427 69.7528L1.83518 70.6008L3.57022 70.0137L4.27468 72.3358ZM8.00568 73.523L2.7875 73.6012L3.17886 74.4361H4.39209L5.39659 76.6147L4.60082 77.5149L4.99218 78.3628L8.41009 74.3709L8.00568 73.523ZM5.91841 75.819L5.16177 74.1883L7.43168 74.11L5.91841 75.819ZM2.47441 65.8131L3.218 65.6957L2.83968 63.4127L4.27468 63.1649L4.70518 65.7739L5.44877 65.6565L4.87477 62.2125L0.139335 62.9953L0.29588 63.8693L2.09609 63.5693L2.47441 65.8131ZM1.05252 61.2341C1.45256 61.4481 1.90406 61.5474 2.357 61.5211C2.81946 61.5124 3.2707 61.377 3.66154 61.1298C3.99981 60.8793 4.26907 60.5472 4.44427 60.1644C4.63369 59.7565 4.72305 59.3093 4.70518 58.8599C4.68731 58.4024 4.5622 57.9555 4.33991 57.5553C4.11683 57.1816 3.79682 56.875 3.41368 56.6682C3.01358 56.4544 2.56207 56.355 2.10913 56.3812C1.64667 56.39 1.19556 56.5254 0.804653 56.7726C0.440881 57.0073 0.147776 57.3364 -0.0433008 57.7249C-0.238774 58.1309 -0.328515 58.5796 -0.304211 59.0294C-0.299449 59.4889 -0.173442 59.9389 0.0610627 60.334C0.279548 60.707 0.595156 61.0135 0.974244 61.2211M0.648108 58.1163C0.809585 57.8676 1.0411 57.6725 1.31336 57.5553C1.57166 57.405 1.86271 57.32 2.16132 57.3074C2.46358 57.2922 2.76454 57.3552 3.03536 57.4901C3.29392 57.6247 3.51048 57.8278 3.66154 58.0771C3.8177 58.333 3.90314 58.6256 3.90941 58.9251C3.92349 59.2272 3.86062 59.5279 3.72677 59.7991C3.59684 60.0568 3.39815 60.2735 3.15277 60.4253C2.8929 60.583 2.59573 60.6686 2.29177 60.6732C1.98964 60.6873 1.68894 60.6244 1.41772 60.4905C1.16269 60.3568 0.946901 60.1591 0.791607 59.9165C0.628396 59.6393 0.538591 59.3251 0.530699 59.0034C0.516636 58.7012 0.579476 58.4005 0.713335 58.1293M16.7983 90.9908L19.2769 87.7947L18.5725 87.2468L15.6373 91.03L18.3116 93.1172L18.7682 92.5302L16.7983 90.9908ZM18.703 93.4303L19.4857 93.8999L20.4641 93.2085L22.5122 94.5131L22.3426 95.7133L23.1384 96.196L23.7776 90.9778L23.034 90.5212L18.703 93.4303ZM22.6166 93.6912L21.0772 92.778L22.9427 91.4735L22.6166 93.6912ZM74.6158 87.2598L73.6504 86.3466L75.2289 84.6638L74.694 84.168L73.1155 85.8509L72.2024 85.003L73.9896 83.0983L73.4417 82.5895L71.0544 85.1986L74.5505 88.46L77.0031 85.8509L76.4552 85.3421L74.6158 87.2598ZM81.1385 77.1365C81.3197 76.8156 81.4308 76.4599 81.4646 76.0929C81.4931 75.7773 81.4297 75.4602 81.282 75.1797C81.1164 74.9105 80.8823 74.6899 80.6036 74.5405C80.3224 74.3806 80 74.3079 79.6774 74.3318C79.3684 74.3624 79.0744 74.4801 78.8294 74.6709C78.5402 74.9054 78.3045 75.1989 78.138 75.532L77.2118 77.28L81.4125 79.5369L81.8299 78.7542L80.6167 78.1019L81.1385 77.1365ZM79.9644 77.7366L78.2946 76.8495L78.7773 75.9233C78.9078 75.6349 79.1335 75.4001 79.4165 75.258C79.5404 75.2132 79.6727 75.1969 79.8038 75.2105C79.9348 75.2241 80.0611 75.2671 80.1731 75.3363C80.2937 75.3899 80.4001 75.4708 80.4839 75.5727C80.5678 75.6747 80.6266 75.7947 80.6558 75.9233C80.7023 76.2372 80.6326 76.5572 80.4601 76.8235L79.9644 77.7366ZM71.1457 86.1249L70.663 85.5509L67.5712 88.16L68.0669 88.734L69.2671 87.7034L71.8762 90.756L72.5546 90.182L69.9455 87.1163L71.1457 86.1249ZM68.8366 90.6125C68.6002 90.5604 68.3555 90.5604 68.1191 90.6125C67.8259 90.6883 67.5382 90.7842 67.2581 90.8995C67.0593 90.9846 66.8544 91.0543 66.645 91.1082C66.5076 91.1395 66.3649 91.1395 66.2275 91.1082C66.1639 91.1018 66.1024 91.0808 66.0482 91.0469C65.9939 91.013 65.9481 90.9669 65.9145 90.9125C65.8662 90.8317 65.8407 90.7393 65.8407 90.6451C65.8407 90.5509 65.8662 90.4586 65.9145 90.3777C66.0274 90.1311 66.2144 89.9259 66.4493 89.7906C66.6325 89.6599 66.8349 89.5587 67.0494 89.4906C67.2761 89.4092 67.5134 89.3608 67.7539 89.3471L67.5843 88.6165C67.316 88.6207 67.0507 88.6737 66.8015 88.7731C66.5284 88.8737 66.2697 89.0096 66.0319 89.1775C65.7262 89.3754 65.4679 89.6381 65.2752 89.9472C65.1171 90.1828 65.031 90.4592 65.0274 90.743C65.0396 90.9989 65.1206 91.2468 65.2622 91.4604C65.4078 91.687 65.6301 91.8538 65.8884 91.9301C66.1228 91.9971 66.3714 91.9971 66.6059 91.9301C66.9029 91.8526 67.1949 91.7568 67.4799 91.6431C67.6752 91.5604 67.8756 91.4907 68.08 91.4344C68.2219 91.4041 68.3686 91.4041 68.5105 91.4344C68.6361 91.4568 68.7483 91.527 68.8236 91.63C68.8694 91.7094 68.8935 91.7994 68.8935 91.891C68.8935 91.9825 68.8694 92.0725 68.8236 92.1519C68.6978 92.4014 68.5032 92.6098 68.2626 92.752C68.0231 92.9152 67.7588 93.0384 67.4799 93.1172C67.2174 93.1942 66.9445 93.2294 66.6711 93.2216L66.8146 93.9652C67.1248 93.9866 67.4359 93.9421 67.7278 93.8347C68.0724 93.7244 68.398 93.5616 68.6931 93.352C68.9996 93.1506 69.2614 92.8888 69.4628 92.5824C69.616 92.35 69.6976 92.0779 69.6976 91.7996C69.6976 91.5416 69.6154 91.2902 69.4628 91.0821C69.3967 90.9673 69.3085 90.8666 69.2032 90.786C69.0979 90.7054 68.9778 90.6464 68.8497 90.6125M87.3742 58.1293V57.2292H85.6914L82.6257 55.3115V56.1855L84.9217 57.5553L82.5604 58.9251V59.9035L85.7044 58.038L87.3742 58.1293ZM81.8299 65.3826L80.8645 69.2962L81.5951 69.4789L81.9734 67.9395L85.887 68.9049L86.1088 67.9917L82.1952 67.0263L82.5735 65.487L81.8299 65.3826ZM79.8731 71.9053L83.5519 75.6494L83.8911 74.8014L83.0301 73.9534L83.9041 71.7227H85.1043L85.4435 70.8486L80.2253 71.1226L79.8731 71.9053ZM83.1475 71.7488L82.4952 73.4186L80.8645 71.827L83.1475 71.7488ZM82.3517 61.4689L84.3216 61.6646L84.0215 64.1433L82.0517 63.9345L81.9604 64.8216L86.7219 65.3174L86.8133 64.4303L84.7651 64.2215L85.026 61.756L87.0742 61.9647L87.1655 61.0906L82.3909 60.5949L82.3517 61.4689ZM78.8034 79.3804C78.455 79.1154 78.0397 78.953 77.6041 78.9115C77.1684 78.87 76.7298 78.951 76.3378 79.1455C75.9219 79.345 75.5663 79.6511 75.3072 80.0326C75.0238 80.4154 74.8441 80.8647 74.7854 81.3372C74.7197 81.7806 74.7831 82.2334 74.968 82.6417C75.1384 83.0494 75.4239 83.3985 75.7899 83.6462C76.1473 83.9131 76.5718 84.0757 77.0161 84.1159C77.4645 84.1653 77.9177 84.0836 78.3207 83.881C78.7366 83.6817 79.0922 83.3755 79.3513 82.9939C79.6366 82.6135 79.8126 82.1624 79.86 81.6894C79.9305 81.2473 79.8715 80.7942 79.6905 80.3849C79.5159 79.9759 79.2258 79.6268 78.8555 79.3804M79.0512 81.6242C79.0131 81.9211 78.9009 82.2038 78.7251 82.446C78.5517 82.6922 78.3182 82.8898 78.0467 83.02C77.7828 83.1454 77.4893 83.1951 77.1988 83.1635C76.8983 83.1234 76.612 83.0114 76.3639 82.8374C76.1212 82.6549 75.9246 82.4181 75.7899 82.146C75.6687 81.8855 75.6234 81.5961 75.6594 81.3111C75.6941 81.0133 75.8065 80.7298 75.9855 80.4892C76.1556 80.2402 76.3901 80.0418 76.6639 79.9152C76.9201 79.7788 77.2091 79.7155 77.4988 79.7326C77.7951 79.7734 78.0771 79.8852 78.3207 80.0587C78.5702 80.2339 78.7684 80.4727 78.8947 80.7501C79.0197 81.0096 79.0694 81.2988 79.0382 81.585M64.2968 91.8127C63.9251 91.5919 63.5027 91.4706 63.0705 91.4604C62.6162 91.4658 62.1694 91.5775 61.766 91.7866C61.3594 92.0004 61.0103 92.3092 60.7484 92.6867C60.5046 93.0463 60.3647 93.4661 60.344 93.8999C60.3091 94.3535 60.409 94.8074 60.631 95.2045C60.8297 95.6036 61.1372 95.9383 61.5181 96.1699C61.8842 96.4035 62.3101 96.5259 62.7444 96.5221C63.1998 96.5251 63.6486 96.4129 64.049 96.196C64.4617 95.991 64.8128 95.6804 65.0665 95.2958C65.3185 94.936 65.4633 94.5122 65.4841 94.0735C65.5048 93.6347 65.4007 93.1992 65.1839 92.8172C64.99 92.419 64.6869 92.0842 64.3099 91.8518M64.3099 94.9175C64.1467 95.171 63.9163 95.3741 63.6445 95.5045C63.3802 95.6469 63.0837 95.7188 62.7835 95.7133C62.4965 95.7052 62.217 95.6195 61.9747 95.4654C61.7199 95.3 61.5129 95.0707 61.3746 94.8001C61.2246 94.5341 61.1522 94.2312 61.1659 93.926C61.1741 93.639 61.2597 93.3596 61.4138 93.1172C61.5865 92.8687 61.8141 92.6634 62.0791 92.5171C62.3457 92.3808 62.6407 92.3093 62.9401 92.3084C63.2323 92.3213 63.5158 92.4113 63.7619 92.5693C64.0047 92.7397 64.2028 92.9664 64.3391 93.2299C64.4754 93.4933 64.546 93.7859 64.5447 94.0826C64.5423 94.3747 64.4564 94.6598 64.2968 94.9044M32.6094 99.7182L33.4704 99.94L34.6184 95.2828L33.7574 95.074L32.6094 99.7182ZM33.1443 94.9566L29.2959 93.6521L29.061 94.3696L30.5613 94.8784L29.2567 98.7007L30.0916 98.9877L31.3962 95.1523L32.8964 95.6611L33.1443 94.9566ZM28.3435 93.2738C28.1147 93.0926 27.865 92.9393 27.6 92.8172C27.2739 92.6587 26.9186 92.5698 26.5563 92.5563C26.2726 92.5315 25.9886 92.6002 25.7475 92.752C25.5273 92.882 25.3538 93.0784 25.2518 93.3129C25.1289 93.5545 25.0964 93.8322 25.1604 94.0956C25.2228 94.3301 25.3493 94.5423 25.5257 94.7088C25.7399 94.9308 25.9711 95.1357 26.2171 95.3219C26.4259 95.4785 26.5955 95.622 26.7129 95.7263C26.8224 95.8223 26.9074 95.943 26.9607 96.0785C26.9867 96.1359 27.0001 96.1982 27.0001 96.2612C27.0001 96.3242 26.9867 96.3864 26.9607 96.4438C26.923 96.5282 26.863 96.6008 26.7871 96.6536C26.7113 96.7066 26.6225 96.7377 26.5302 96.7439C26.2546 96.7591 25.98 96.7006 25.7345 96.5743C25.4701 96.4488 25.2279 96.2814 25.017 96.0785C24.8133 95.8949 24.6415 95.679 24.5082 95.4393L23.9472 95.935C24.0843 96.2129 24.2801 96.4578 24.5212 96.6525C24.7922 96.8897 25.0952 97.0872 25.4214 97.2396C25.7535 97.3959 26.1119 97.4888 26.478 97.5135C26.7603 97.5219 27.0396 97.4543 27.2869 97.3179C27.5054 97.1798 27.6778 96.9801 27.7826 96.7439C27.909 96.5076 27.9372 96.231 27.8609 95.9742C27.7907 95.7431 27.6653 95.5327 27.4956 95.361C27.2807 95.1437 27.0496 94.9431 26.8042 94.761C26.5955 94.6044 26.4389 94.4609 26.3215 94.3565C26.2118 94.263 26.1228 94.1474 26.0606 94.0174C26.0319 93.9607 26.017 93.8981 26.017 93.8347C26.017 93.7713 26.0319 93.7087 26.0606 93.6521C26.097 93.5644 26.156 93.488 26.2316 93.4307C26.3073 93.3734 26.3969 93.3372 26.4911 93.326C26.7618 93.3001 27.034 93.3545 27.2738 93.4825C27.4768 93.5777 27.6656 93.7007 27.8348 93.8478C28.0187 94.0038 28.181 94.1837 28.3175 94.3826L28.8654 93.8608C28.7198 93.6376 28.5392 93.4394 28.3305 93.2738M36.3274 97.1874C36.5173 96.9544 36.7712 96.7821 37.0579 96.6917C37.3503 96.586 37.665 96.5591 37.9711 96.6134C38.2083 96.6475 38.4354 96.7312 38.6378 96.8594C38.8402 96.9875 39.0132 97.1571 39.1452 97.357L39.7975 96.9135C39.6134 96.6249 39.3685 96.38 39.08 96.196C38.7586 96.0086 38.4043 95.8846 38.0363 95.8307C37.5982 95.7678 37.1516 95.808 36.7318 95.9481C36.3238 96.092 35.963 96.3445 35.6881 96.6786C35.4017 97.0212 35.2164 97.4368 35.1533 97.8788C35.081 98.3186 35.1307 98.7698 35.2968 99.1834C35.4589 99.581 35.7247 99.9279 36.0665 100.188C36.3998 100.428 36.7806 100.594 37.1833 100.675C37.586 100.756 38.0014 100.75 38.4016 100.658C38.7391 100.583 39.0528 100.426 39.3148 100.201L38.8321 99.5747C38.651 99.7214 38.4419 99.8294 38.2175 99.8921C37.9933 99.955 37.7584 99.9713 37.5275 99.94C37.2236 99.8963 36.9361 99.775 36.6926 99.5878C36.4629 99.4137 36.2867 99.1787 36.1839 98.9094C36.0738 98.6229 36.0422 98.3121 36.0925 98.0093C36.139 97.71 36.2602 97.4274 36.4448 97.1874M57.4088 95.1262C57.0939 94.8365 56.6978 94.6498 56.2739 94.5914C55.8114 94.5105 55.3362 94.5464 54.891 94.6957L52.7777 95.3871L54.1474 99.9661L56.1564 99.3008C56.6119 99.1784 57.0319 98.9505 57.3827 98.6355C57.8337 98.1629 58.0788 97.5308 58.0641 96.8777C58.0495 96.2247 57.7763 95.6041 57.3044 95.1523M57.1609 97.4092C57.0928 97.6899 56.943 97.9442 56.7304 98.1397C56.4964 98.3548 56.2148 98.5113 55.9086 98.5963L54.7867 98.9355L53.8474 95.7785L54.9563 95.4524C55.263 95.3506 55.5895 95.3237 55.9086 95.3741C56.1921 95.4243 56.4549 95.5557 56.6652 95.7524C56.8793 95.9667 57.0364 96.2314 57.1218 96.5221C57.1993 96.8127 57.1993 97.1185 57.1218 97.4092M50.7687 95.6872L51.2644 98.8964L48.1596 96.0916L47.429 96.196L48.1596 100.931L49.0336 100.801L48.5379 97.5918L51.6427 100.41L52.3602 100.292L51.6427 95.5567L50.7687 95.6872ZM43.9329 96.3264L41.8717 101.166H42.7849L43.2414 100.057H45.6288L46.1375 101.153H47.0638L44.8852 96.3134L43.9329 96.3264ZM43.5806 99.3008L44.4286 97.1874L45.3679 99.3008H43.5806ZM57.1479 19.0582L59.3917 19.9322V21.1324L60.2658 21.4716L59.9788 16.2534L59.2352 15.9142L55.452 19.593L56.313 19.9322L57.1479 19.0582ZM59.2352 16.8926L59.3265 19.1756L57.6436 18.5233L59.2352 16.8926ZM53.743 18.4189L51.2905 17.9102L52.1124 13.9965L51.2383 13.8139L50.2729 18.4189L53.5995 19.0973L53.743 18.4189ZM79.6122 41.1833L79.9644 41.9921L81.5168 41.3268L85.1043 41.8094L84.7521 41.0006L82.0517 40.5962L83.6302 38.3785L83.2519 37.5044L81.1515 40.518L79.6122 41.1833ZM46.0201 16.8274L48.4074 17.0361L48.7858 18.1841L49.712 18.2624L47.9769 13.3051L47.1029 13.2008L44.4938 17.7797L45.407 17.858L46.0201 16.8274ZM47.4551 14.2183L48.1726 16.3839L46.3854 16.2273L47.4551 14.2183ZM65.1448 24.2894L66.1754 23.6502L68.1191 24.9417L67.8582 26.1288L68.6149 26.6637L69.6454 21.4455L68.9279 21.028L64.4534 23.6371L65.1448 24.2894ZM68.7714 22.0847L68.2887 24.3024L66.8146 23.2588L68.7714 22.0847ZM76.3378 35.2867L78.9469 33.656L77.6293 36.2782L77.838 36.6174H80.9037L78.1902 38.2872L78.6338 39.0047L82.717 36.4608L82.3387 35.8477H78.6468L80.3688 32.5733L79.9774 31.9471L75.8942 34.4518L76.3378 35.2867ZM75.3202 33.8387L75.8942 33.356L74.1722 31.2687L75.1898 30.4338L76.6639 32.221L77.2249 31.7514L75.7638 29.899L76.7161 29.1162L78.3729 31.1252L78.9599 30.6556L76.7291 27.9552L73.0373 30.9948L75.3202 33.8387ZM70.5586 28.6205C70.8934 28.9456 71.3001 29.1869 71.7458 29.3249C72.1703 29.4591 72.6258 29.4591 73.0503 29.3249C73.4779 29.204 73.8624 28.9642 74.1592 28.6335C74.4596 28.3156 74.6711 27.9241 74.7723 27.4986C74.8698 27.0642 74.8381 26.6107 74.681 26.194C74.5097 25.7541 74.2371 25.3608 73.8852 25.046L72.2806 23.6371L69.0062 27.1333L70.5586 28.6205ZM72.4502 24.8504L73.2982 25.6461C73.5352 25.8616 73.7184 26.1297 73.833 26.4289C73.9174 26.7007 73.9174 26.9919 73.833 27.2638C73.7632 27.559 73.6145 27.8295 73.4025 28.0465C73.1959 28.2696 72.9354 28.4358 72.6459 28.5292C72.3687 28.6072 72.0752 28.6072 71.7979 28.5292C71.4935 28.4291 71.2165 28.2594 70.9891 28.0335L70.1412 27.2377L72.4502 24.8504ZM61.6486 21.9412C61.9019 22.3214 62.2475 22.6311 62.6531 22.8414C62.974 23.0226 63.3298 23.1337 63.6967 23.1675C64.0372 23.2099 64.3829 23.165 64.7012 23.037L64.4534 22.3326C64.2269 22.4163 63.9849 22.4504 63.7441 22.4324C63.5033 22.4144 63.2691 22.3447 63.0575 22.2282C62.7868 22.0843 62.5577 21.8731 62.3922 21.6151C62.2304 21.3756 62.1399 21.0951 62.1313 20.8063C62.1287 20.5007 62.2051 20.1997 62.353 19.9322C62.4929 19.6587 62.7049 19.4285 62.9662 19.2669C63.2144 19.117 63.498 19.0359 63.788 19.0321C64.0945 19.0357 64.395 19.1165 64.6621 19.2669C64.875 19.3782 65.0619 19.5334 65.2104 19.7223C65.3588 19.9112 65.4654 20.1295 65.5231 20.3627L66.2797 20.167C66.2097 19.8332 66.0622 19.5204 65.8492 19.2539C65.6152 18.9695 65.327 18.7345 65.0013 18.5624C64.6035 18.3358 64.1545 18.2147 63.6967 18.2102C63.2653 18.214 62.8425 18.331 62.4705 18.5494C62.0891 18.7789 61.7779 19.1081 61.5703 19.5017C61.354 19.9018 61.2461 20.3516 61.2572 20.8063C61.2713 21.2394 61.4069 21.6598 61.6486 22.0195M7.45777 33.2386L10.7974 35.5215L11.2931 34.7779L7.96654 32.508L8.85363 31.2035L8.22745 30.786L5.9445 34.1518L6.57068 34.5692L7.45777 33.2386ZM14.8806 30.2381L14.3066 29.7554L12.5585 31.8036L11.554 30.9556L13.0543 29.1945L12.4933 28.7118L10.9931 30.473L10.0408 29.6641L11.7367 27.6812L11.1757 27.1985L8.90582 29.8076L12.5455 32.9125L14.8806 30.2381ZM16.1852 28.9336L15.2329 27.916L16.0286 27.1725L16.1591 27.042L17.8289 27.4203L18.5464 26.768L16.6679 26.3506C16.8206 26.0628 16.8757 25.7331 16.8244 25.4113C16.7618 25.0905 16.6129 24.793 16.3939 24.5503C16.1779 24.3104 15.897 24.1382 15.5851 24.0546C15.2875 23.9638 14.9696 23.9638 14.6719 24.0546C14.3222 24.1843 14.0025 24.384 13.7326 24.6416L12.2846 25.9462L15.5329 29.4685L16.1852 28.9336ZM13.5761 25.9853L14.3458 25.2809C14.5598 25.0463 14.8521 24.898 15.1676 24.8634C15.299 24.8603 15.4295 24.8868 15.5491 24.941C15.6688 24.9952 15.7748 25.0757 15.859 25.1765C15.9556 25.2674 16.0295 25.3796 16.0748 25.5042C16.1201 25.6288 16.1356 25.7624 16.1199 25.894C16.0594 26.2049 15.8879 26.483 15.6373 26.6767L14.8676 27.3812L13.5761 25.9853ZM40.6715 17.9754L40.528 14.7401L43.3197 17.858H44.0503L43.8285 13.0703H42.9544L43.0979 16.3056L40.254 13.2008H39.5104L39.7322 17.9754H40.6715ZM7.17077 42.3443L2.72227 40.5962L2.39613 41.4181L6.84463 43.2053L7.17077 42.3443ZM8.03177 40.3614L5.14872 38.8873L9.245 37.9871L9.57113 37.3479L5.31831 35.1432L4.91391 35.939L7.79695 37.4131L3.70068 38.2872L3.37454 38.9264L7.62736 41.1311L8.03177 40.3614ZM32.8964 19.3713L31.5919 14.7662L30.7439 15.0271L32.0485 19.6191L32.8964 19.3713ZM33.9009 17.871C34.1846 18.1984 34.5557 18.4381 34.9706 18.5624C35.3941 18.6876 35.8413 18.7099 36.2752 18.6277C36.7495 18.5589 37.1985 18.3704 37.5797 18.0798C37.9185 17.8066 38.1758 17.4456 38.3233 17.0361C38.4788 16.6192 38.5105 16.1661 38.4146 15.7316C38.342 15.2952 38.1476 14.8882 37.8537 14.5575C37.5675 14.2302 37.1978 13.9866 36.784 13.853C36.3605 13.7279 35.9133 13.7056 35.4794 13.7878C35.0023 13.8551 34.5519 14.0487 34.1749 14.3488C33.673 14.7804 33.3624 15.3933 33.3111 16.0534C33.2597 16.7134 33.4718 17.367 33.9009 17.871ZM34.2662 15.6272C34.3664 15.3561 34.5322 15.1141 34.7489 14.9228C34.9816 14.7319 35.2606 14.6059 35.5577 14.5575C35.8481 14.4782 36.1544 14.4782 36.4448 14.5575C36.7207 14.648 36.9651 14.8155 37.1492 15.0402C37.3442 15.2719 37.4747 15.5508 37.5275 15.849C37.5999 16.1403 37.5999 16.4448 37.5275 16.7361C37.4296 17.0172 37.2559 17.2657 37.0258 17.4545C36.7956 17.6433 36.5178 17.7649 36.223 17.8058C35.9326 17.8845 35.6264 17.8845 35.3359 17.8058C35.0648 17.7056 34.8228 17.5398 34.6315 17.3231C34.4389 17.0899 34.3088 16.8116 34.2531 16.5143C34.1813 16.2186 34.1813 15.9099 34.2531 15.6142M19.9945 25.7374L18.142 23.1284L22.16 24.2633L22.7601 23.8328L20.0075 19.9192L19.29 20.4279L21.1555 23.037L17.1245 21.9021L16.5244 22.3326L19.2769 26.2462L19.9945 25.7374ZM27.626 16.8926L29.0741 20.6628L29.909 20.3497L28.4479 16.5795L29.9351 16.0055L29.6611 15.3011L25.878 16.7622L26.1389 17.4666L27.626 16.8926ZM24.0125 23.0631V21.863L26.1389 20.7541L27.0651 21.5238L27.887 21.0933L23.7646 17.8319L22.9949 18.2363L23.2819 23.4545L24.0125 23.0631ZM25.4735 20.2714L23.869 21.1063L23.6994 18.8364L25.4735 20.2714ZM84.6086 48.0713C84.477 48.0713 84.3483 48.1103 84.239 48.1835C84.1295 48.2565 84.0442 48.3604 83.9939 48.4819C83.9435 48.6035 83.9304 48.7374 83.956 48.8664C83.9818 48.9954 84.0452 49.114 84.1382 49.207C84.2312 49.3002 84.3498 49.3634 84.4788 49.3891C84.6078 49.4148 84.7416 49.4016 84.8632 49.3513C84.9848 49.3009 85.0887 49.2156 85.1618 49.1063C85.2349 48.9968 85.2739 48.8682 85.2739 48.7366C85.2739 48.5601 85.2038 48.3909 85.079 48.2662C84.9543 48.1413 84.7851 48.0713 84.6086 48.0713ZM2.81359 49.3758C2.94574 49.3784 3.07554 49.3416 3.18669 49.2701C3.29783 49.1985 3.38511 49.0956 3.43755 48.9743C3.48986 48.853 3.50487 48.7188 3.48073 48.5889C3.4566 48.459 3.39424 48.3392 3.30175 48.2449C3.20926 48.1505 3.09067 48.0859 2.96126 48.0591C2.83185 48.0324 2.69748 48.0448 2.57512 48.0946C2.45275 48.1446 2.34813 48.2299 2.27442 48.3396C2.20071 48.4492 2.16132 48.5783 2.16132 48.7105C2.16132 48.8848 2.22954 49.052 2.35152 49.1763C2.47349 49.3008 2.63943 49.3724 2.81359 49.3758Z" fill="white"/>
</g>
<path d="M106.081 37.8231H107.946V50.8761H106.081V37.8231ZM123.079 37.8231V50.8761H121.55L113.718 41.1422V50.8761H111.854V37.8231H113.383L121.214 47.5569V37.8231H123.079ZM129.579 39.4454H125.103V37.8231H135.899V39.4454H131.424V50.8761H129.579V39.4454ZM147.404 49.2538V50.8761H137.93V37.8231H147.142V39.4454H139.796V43.4545H146.341V45.0396H139.796V49.2538H147.404ZM159.15 50.8761L156.333 46.867C155.985 46.8917 155.712 46.9043 155.513 46.9043H152.287V50.8761H150.423V37.8231H155.513C157.204 37.8231 158.534 38.2271 159.503 39.0351C160.473 39.8432 160.958 40.9558 160.958 42.3729C160.958 43.3799 160.71 44.2376 160.212 44.9463C159.715 45.6549 159.006 46.1707 158.087 46.494L161.182 50.8761H159.15ZM155.457 45.3192C156.639 45.3192 157.54 45.0643 158.161 44.5547C158.783 44.045 159.094 43.3178 159.094 42.3729C159.094 41.4282 158.783 40.7072 158.161 40.2099C157.54 39.7002 156.639 39.4454 155.457 39.4454H152.287V45.3192H155.457ZM175.197 37.8231V50.8761H173.667L165.836 41.1422V50.8761H163.972V37.8231H165.5L173.332 47.5569V37.8231H175.197ZM187.421 47.6128H180.483L179.048 50.8761H177.127L183.037 37.8231H184.885L190.814 50.8761H188.856L187.421 47.6128ZM186.767 46.121L183.952 39.7251L181.135 46.121H186.767ZM194.698 39.4454H190.222V37.8231H201.019V39.4454H196.543V50.8761H194.698V39.4454ZM203.051 37.8231H204.915V50.8761H203.051V37.8231ZM214.714 51.0253C213.397 51.0253 212.21 50.7394 211.153 50.1675C210.096 49.5832 209.264 48.7814 208.655 47.762C208.057 46.7426 207.76 45.6052 207.76 44.3496C207.76 43.094 208.057 41.9565 208.655 40.9371C209.264 39.9178 210.096 39.1221 211.153 38.5504C212.21 37.966 213.397 37.6738 214.714 37.6738C216.02 37.6738 217.201 37.966 218.258 38.5504C219.314 39.1221 220.141 39.9178 220.738 40.9371C221.335 41.9441 221.634 43.0816 221.634 44.3496C221.634 45.6176 221.335 46.7613 220.738 47.7807C220.141 48.7876 219.314 49.5832 218.258 50.1675C217.201 50.7394 216.02 51.0253 214.714 51.0253ZM214.714 49.3657C215.672 49.3657 216.53 49.1481 217.288 48.713C218.059 48.278 218.662 47.6813 219.098 46.9229C219.545 46.1522 219.768 45.2943 219.768 44.3496C219.768 43.4048 219.545 42.5532 219.098 41.7949C218.662 41.0242 218.059 40.4212 217.288 39.9861C216.53 39.5511 215.672 39.3335 214.714 39.3335C213.758 39.3335 212.888 39.5511 212.104 39.9861C211.333 40.4212 210.725 41.0242 210.276 41.7949C209.842 42.5532 209.624 43.4048 209.624 44.3496C209.624 45.2943 209.842 46.1522 210.276 46.9229C210.725 47.6813 211.333 48.278 212.104 48.713C212.888 49.1481 213.758 49.3657 214.714 49.3657ZM235.709 37.8231V50.8761H234.18L226.348 41.1422V50.8761H224.483V37.8231H226.012L233.844 47.5569V37.8231H235.709ZM247.932 47.6128H240.996L239.56 50.8761H237.639L243.55 37.8231H245.396L251.327 50.8761H249.368L247.932 47.6128ZM247.28 46.121L244.465 39.7251L241.648 46.121H247.28ZM253.273 37.8231H255.138V49.2538H262.205V50.8761H253.273V37.8231ZM277.669 47.6128H270.733L269.297 50.8761H267.376L273.287 37.8231H275.133L281.064 50.8761H279.106L277.669 47.6128ZM277.017 46.121L274.202 39.7251L271.385 46.121H277.017ZM288.665 51.0253C287.359 51.0253 286.179 50.7394 285.122 50.1675C284.078 49.5832 283.258 48.7876 282.66 47.7807C282.064 46.7613 281.766 45.6176 281.766 44.3496C281.766 43.0816 282.064 41.9441 282.66 40.9371C283.258 39.9178 284.084 39.1221 285.14 38.5504C286.197 37.966 287.379 37.6738 288.683 37.6738C289.704 37.6738 290.635 37.848 291.48 38.196C292.326 38.5317 293.047 39.0351 293.643 39.7064L292.431 40.8812C291.449 39.8494 290.225 39.3335 288.758 39.3335C287.789 39.3335 286.912 39.5511 286.129 39.9861C285.346 40.4212 284.731 41.0242 284.283 41.7949C283.848 42.5532 283.631 43.4048 283.631 44.3496C283.631 45.2943 283.848 46.1522 284.283 46.9229C284.731 47.6813 285.346 48.278 286.129 48.713C286.912 49.1481 287.789 49.3657 288.758 49.3657C290.212 49.3657 291.437 48.8436 292.431 47.7993L293.643 48.9741C293.047 49.6454 292.321 50.1551 291.462 50.5031C290.617 50.8512 289.684 51.0253 288.665 51.0253ZM304.311 47.6128H297.374L295.938 50.8761H294.018L299.929 37.8231H301.775L307.705 50.8761H305.747L304.311 47.6128ZM303.658 46.121L300.843 39.7251L298.027 46.121H303.658ZM309.651 37.8231H315.153C316.533 37.8231 317.758 38.0965 318.826 38.6435C319.896 39.1905 320.722 39.9612 321.306 40.9558C321.904 41.9379 322.201 43.0692 322.201 44.3496C322.201 45.63 321.904 46.7676 321.306 47.762C320.722 48.7441 319.896 49.5087 318.826 50.0557C317.758 50.6027 316.533 50.8761 315.153 50.8761H309.651V37.8231ZM315.041 49.2538C316.097 49.2538 317.023 49.0487 317.819 48.6384C318.628 48.2282 319.249 47.6563 319.685 46.9229C320.119 46.177 320.337 45.3192 320.337 44.3496C320.337 43.3799 320.119 42.5283 319.685 41.7949C319.249 41.0491 318.628 40.4709 317.819 40.0608C317.023 39.6505 316.097 39.4454 315.041 39.4454H311.517V49.2538H315.041ZM334.53 49.2538V50.8761H325.058V37.8231H334.27V39.4454H326.922V43.4545H333.467V45.0396H326.922V49.2538H334.53ZM349.651 50.8761L349.633 41.3661L344.916 49.2911H344.058L339.34 41.4219V50.8761H337.55V37.8231H339.079L344.525 46.9974L349.894 37.8231H351.423L351.443 50.8761H349.651ZM360.357 46.3634V50.8761H358.511V46.3262L353.326 37.8231H355.322L359.499 44.7039L363.695 37.8231H365.541L360.357 46.3634ZM378.333 51.0253C377.016 51.0253 375.828 50.7394 374.772 50.1675C373.715 49.5832 372.881 48.7814 372.272 47.762C371.676 46.7426 371.377 45.6052 371.377 44.3496C371.377 43.094 371.676 41.9565 372.272 40.9371C372.881 39.9178 373.715 39.1221 374.772 38.5504C375.828 37.966 377.016 37.6738 378.333 37.6738C379.639 37.6738 380.82 37.966 381.876 38.5504C382.933 39.1221 383.76 39.9178 384.356 40.9371C384.952 41.9441 385.251 43.0816 385.251 44.3496C385.251 45.6176 384.952 46.7613 384.356 47.7807C383.76 48.7876 382.933 49.5832 381.876 50.1675C380.82 50.7394 379.639 51.0253 378.333 51.0253ZM378.333 49.3657C379.291 49.3657 380.148 49.1481 380.907 48.713C381.677 48.278 382.281 47.6813 382.715 46.9229C383.163 46.1522 383.387 45.2943 383.387 44.3496C383.387 43.4048 383.163 42.5532 382.715 41.7949C382.281 41.0242 381.677 40.4212 380.907 39.9861C380.148 39.5511 379.291 39.3335 378.333 39.3335C377.376 39.3335 376.505 39.5511 375.723 39.9861C374.952 40.4212 374.343 41.0242 373.895 41.7949C373.459 42.5532 373.243 43.4048 373.243 44.3496C373.243 45.2943 373.459 46.1522 373.895 46.9229C374.343 47.6813 374.952 48.278 375.723 48.713C376.505 49.1481 377.376 49.3657 378.333 49.3657ZM389.966 39.4454V43.9953H396.511V45.5989H389.966V50.8761H388.102V37.8231H397.313V39.4454H389.966ZM107.946 61.6227V66.1725H114.491V67.7762H107.946V73.0534H106.081V60.0003H115.293V61.6227H107.946ZM125.634 69.79H118.696L117.261 73.0534H115.34L121.252 60.0003H123.098L129.027 73.0534H127.069L125.634 69.79ZM124.98 68.2983L122.165 61.9024L119.35 68.2983H124.98ZM136.628 73.2026C135.324 73.2026 134.142 72.9166 133.085 72.3447C132.042 71.7604 131.221 70.9649 130.625 69.9579C130.027 68.9386 129.729 67.7949 129.729 66.5268C129.729 65.2588 130.027 64.1214 130.625 63.1144C131.221 62.0951 132.048 61.2994 133.105 60.7276C134.161 60.1433 135.342 59.8511 136.648 59.8511C137.667 59.8511 138.599 60.0253 139.445 60.3733C140.29 60.709 141.01 61.2124 141.608 61.8837L140.396 63.0585C139.413 62.0267 138.189 61.5107 136.722 61.5107C135.752 61.5107 134.876 61.7283 134.092 62.1634C133.31 62.5985 132.694 63.2014 132.246 63.9722C131.812 64.7305 131.594 65.5821 131.594 66.5268C131.594 67.4716 131.812 68.3295 132.246 69.1002C132.694 69.8585 133.31 70.4552 134.092 70.8903C134.876 71.3254 135.752 71.543 136.722 71.543C138.177 71.543 139.4 71.0209 140.396 69.9766L141.608 71.1513C141.01 71.8227 140.284 72.3323 139.425 72.6804C138.58 73.0284 137.648 73.2026 136.628 73.2026ZM153.74 71.431V73.0534H144.268V60.0003H153.479V61.6227H146.132V65.6318H152.677V67.2168H146.132V71.431H153.74ZM161.85 60.0003C163.541 60.0003 164.872 60.4044 165.841 61.2124C166.81 62.0204 167.296 63.1331 167.296 64.5502C167.296 65.9675 166.81 67.0801 165.841 67.8881C164.872 68.6962 163.541 69.1002 161.85 69.1002H158.624V73.0534H156.76V60.0003H161.85ZM161.794 67.4779C162.975 67.4779 163.876 67.2292 164.499 66.7319C165.12 66.2222 165.43 65.4951 165.43 64.5502C165.43 63.6054 165.12 62.8844 164.499 62.3871C163.876 61.8774 162.975 61.6227 161.794 61.6227H158.624V67.4779H161.794ZM170.035 60.0003H171.899V71.431H178.967V73.0534H170.035V60.0003ZM189.478 69.79H182.542L181.105 73.0534H179.185L185.096 60.0003H186.942L192.871 73.0534H190.914L189.478 69.79ZM188.826 68.2983L186.009 61.9024L183.194 68.2983H188.826ZM198.623 73.2026C197.641 73.2026 196.69 73.0534 195.77 72.755C194.862 72.4443 194.147 72.0464 193.625 71.5616L194.315 70.107C194.812 70.5546 195.446 70.9213 196.217 71.2073C197 71.4807 197.802 71.6176 198.623 71.6176C199.704 71.6176 200.512 71.4373 201.047 71.0767C201.582 70.7039 201.849 70.2127 201.849 69.6036C201.849 69.1562 201.7 68.7956 201.402 68.5222C201.116 68.2362 200.755 68.0186 200.32 67.8695C199.897 67.7202 199.295 67.5525 198.511 67.3659C197.528 67.1298 196.734 66.8936 196.125 66.6574C195.527 66.4212 195.012 66.0606 194.576 65.5758C194.154 65.0785 193.942 64.4135 193.942 63.5805C193.942 62.8844 194.122 62.2567 194.484 61.6972C194.857 61.1378 195.415 60.6903 196.161 60.3547C196.907 60.019 197.834 59.8511 198.94 59.8511C199.711 59.8511 200.469 59.9506 201.215 60.1495C201.961 60.3484 202.6 60.6343 203.135 61.0073L202.52 62.4991C201.973 62.151 201.389 61.89 200.768 61.7158C200.145 61.5294 199.536 61.4361 198.94 61.4361C197.883 61.4361 197.087 61.6288 196.553 62.0142C196.031 62.3997 195.77 62.8968 195.77 63.506C195.77 63.9535 195.919 64.3202 196.217 64.6062C196.516 64.8797 196.883 65.0972 197.317 65.2588C197.766 65.4081 198.369 65.5696 199.126 65.7436C200.109 65.9799 200.898 66.2161 201.494 66.4522C202.092 66.6885 202.6 67.0489 203.023 67.5338C203.459 68.0186 203.677 68.6713 203.677 69.4917C203.677 70.1755 203.49 70.8033 203.117 71.3751C202.744 71.9346 202.178 72.382 201.42 72.7177C200.662 73.041 199.729 73.2026 198.623 73.2026ZM208.81 61.6227H204.336V60.0003H215.132V61.6227H210.656V73.0534H208.81V61.6227ZM217.163 60.0003H219.027V73.0534H217.163V60.0003ZM228.772 73.2026C227.466 73.2026 226.286 72.9166 225.229 72.3447C224.184 71.7604 223.365 70.9649 222.767 69.9579C222.171 68.9386 221.872 67.7949 221.872 66.5268C221.872 65.2588 222.171 64.1214 222.767 63.1144C223.365 62.0951 224.191 61.2994 225.247 60.7276C226.304 60.1433 227.485 59.8511 228.791 59.8511C229.809 59.8511 230.742 60.0253 231.587 60.3733C232.433 60.709 233.154 61.2124 233.75 61.8837L232.538 63.0585C231.556 62.0267 230.332 61.5107 228.865 61.5107C227.896 61.5107 227.019 61.7283 226.236 62.1634C225.452 62.5985 224.838 63.2014 224.39 63.9722C223.955 64.7305 223.737 65.5821 223.737 66.5268C223.737 67.4716 223.955 68.3295 224.39 69.1002C224.838 69.8585 225.452 70.4552 226.236 70.8903C227.019 71.3254 227.896 71.543 228.865 71.543C230.319 71.543 231.544 71.0209 232.538 69.9766L233.75 71.1513C233.154 71.8227 232.426 72.3323 231.569 72.6804C230.724 73.0284 229.791 73.2026 228.772 73.2026ZM249.735 69.79H242.799L241.362 73.0534H239.442L245.353 60.0003H247.199L253.129 73.0534H251.171L249.735 69.79ZM249.083 68.2983L246.268 61.9024L243.451 68.2983H249.083ZM266.301 60.0003V73.0534H264.772L256.941 63.3195V73.0534H255.076V60.0003H256.605L264.437 69.7342V60.0003H266.301ZM270.209 60.0003H275.71C277.09 60.0003 278.314 60.2738 279.383 60.8208C280.452 61.3678 281.279 62.1385 281.863 63.1331C282.46 64.1151 282.758 65.2464 282.758 66.5268C282.758 67.8073 282.46 68.9448 281.863 69.9393C281.279 70.9213 280.452 71.6859 279.383 72.2329C278.314 72.7799 277.09 73.0534 275.71 73.0534H270.209V60.0003ZM275.598 71.431C276.654 71.431 277.581 71.2259 278.376 70.8157C279.184 70.4055 279.806 69.8336 280.24 69.1002C280.676 68.3543 280.894 67.4965 280.894 66.5268C280.894 65.5572 280.676 64.7056 280.24 63.9722C279.806 63.2263 279.184 62.6482 278.376 62.238C277.581 61.8277 276.654 61.6227 275.598 61.6227H272.074V71.431H275.598ZM296.515 73.2026C295.197 73.2026 294.01 72.9166 292.953 72.3447C291.897 71.7604 291.064 70.9586 290.455 69.9393C289.858 68.9199 289.56 67.7825 289.56 66.5268C289.56 65.2712 289.858 64.1338 290.455 63.1144C291.064 62.0951 291.897 61.2994 292.953 60.7276C294.01 60.1433 295.197 59.8511 296.515 59.8511C297.821 59.8511 299.001 60.1433 300.058 60.7276C301.115 61.2994 301.942 62.0951 302.538 63.1144C303.135 64.1214 303.433 65.2588 303.433 66.5268C303.433 67.7949 303.135 68.9386 302.538 69.9579C301.942 70.9649 301.115 71.7604 300.058 72.3447C299.001 72.9166 297.821 73.2026 296.515 73.2026ZM296.515 71.543C297.472 71.543 298.331 71.3254 299.089 70.8903C299.86 70.4552 300.462 69.8585 300.897 69.1002C301.344 68.3295 301.568 67.4716 301.568 66.5268C301.568 65.5821 301.344 64.7305 300.897 63.9722C300.462 63.2014 299.86 62.5985 299.089 62.1634C298.331 61.7283 297.472 61.5107 296.515 61.5107C295.557 61.5107 294.687 61.7283 293.904 62.1634C293.133 62.5985 292.524 63.2014 292.077 63.9722C291.642 64.7305 291.424 65.5821 291.424 66.5268C291.424 67.4716 291.642 68.3295 292.077 69.1002C292.524 69.8585 293.133 70.4552 293.904 70.8903C294.687 71.3254 295.557 71.543 296.515 71.543ZM310.087 73.2026C309.105 73.2026 308.154 73.0534 307.234 72.755C306.326 72.4443 305.611 72.0464 305.089 71.5616L305.78 70.107C306.277 70.5546 306.911 70.9213 307.682 71.2073C308.464 71.4807 309.267 71.6176 310.087 71.6176C311.169 71.6176 311.976 71.4373 312.511 71.0767C313.046 70.7039 313.313 70.2127 313.313 69.6036C313.313 69.1562 313.165 68.7956 312.866 68.5222C312.58 68.2362 312.219 68.0186 311.784 67.8695C311.362 67.7202 310.759 67.5525 309.975 67.3659C308.993 67.1298 308.198 66.8936 307.589 66.6574C306.991 66.4212 306.476 66.0606 306.04 65.5758C305.618 65.0785 305.406 64.4135 305.406 63.5805C305.406 62.8844 305.586 62.2567 305.948 61.6972C306.321 61.1378 306.879 60.6903 307.626 60.3547C308.372 60.019 309.298 59.8511 310.404 59.8511C311.175 59.8511 311.933 59.9506 312.679 60.1495C313.425 60.3484 314.065 60.6343 314.6 61.0073L313.984 62.4991C313.437 62.151 312.853 61.89 312.232 61.7158C311.61 61.5294 311 61.4361 310.404 61.4361C309.347 61.4361 308.552 61.6288 308.017 62.0142C307.495 62.3997 307.234 62.8968 307.234 63.506C307.234 63.9535 307.383 64.3202 307.682 64.6062C307.98 64.8797 308.347 65.0972 308.781 65.2588C309.23 65.4081 309.833 65.5696 310.591 65.7436C311.573 65.9799 312.362 66.2161 312.958 66.4522C313.556 66.6885 314.065 67.0489 314.487 67.5338C314.923 68.0186 315.141 68.6713 315.141 69.4917C315.141 70.1755 314.954 70.8033 314.581 71.3751C314.208 71.9346 313.642 72.382 312.884 72.7177C312.126 73.041 311.193 73.2026 310.087 73.2026ZM320.274 61.6227H315.8V60.0003H326.596V61.6227H322.12V73.0534H320.274V61.6227ZM338.1 71.431V73.0534H328.627V60.0003H337.839V61.6227H330.492V65.6318H337.036V67.2168H330.492V71.431H338.1ZM346.958 73.2026C345.64 73.2026 344.451 72.9166 343.395 72.3447C342.338 71.7604 341.506 70.9586 340.897 69.9393C340.3 68.9199 340.002 67.7825 340.002 66.5268C340.002 65.2712 340.3 64.1338 340.897 63.1144C341.506 62.0951 342.338 61.2994 343.395 60.7276C344.451 60.1433 345.64 59.8511 346.958 59.8511C348.262 59.8511 349.444 60.1433 350.501 60.7276C351.556 61.2994 352.383 62.0951 352.981 63.1144C353.577 64.1214 353.876 65.2588 353.876 66.5268C353.876 67.7949 353.577 68.9386 352.981 69.9579C352.383 70.9649 351.556 71.7604 350.501 72.3447C349.444 72.9166 348.262 73.2026 346.958 73.2026ZM346.958 71.543C347.914 71.543 348.772 71.3254 349.53 70.8903C350.301 70.4552 350.904 69.8585 351.339 69.1002C351.787 68.3295 352.01 67.4716 352.01 66.5268C352.01 65.5821 351.787 64.7305 351.339 63.9722C350.904 63.2014 350.301 62.5985 349.53 62.1634C348.772 61.7283 347.914 61.5107 346.958 61.5107C346 61.5107 345.13 61.7283 344.346 62.1634C343.576 62.5985 342.967 63.2014 342.519 63.9722C342.084 64.7305 341.866 65.5821 341.866 66.5268C341.866 67.4716 342.084 68.3295 342.519 69.1002C342.967 69.8585 343.576 70.4552 344.346 70.8903C345.13 71.3254 346 71.543 346.958 71.543ZM361.816 60.0003C363.507 60.0003 364.836 60.4044 365.807 61.2124C366.776 62.0204 367.262 63.1331 367.262 64.5502C367.262 65.9675 366.776 67.0801 365.807 67.8881C364.836 68.6962 363.507 69.1002 361.816 69.1002H358.59V73.0534H356.725V60.0003H361.816ZM361.76 67.4779C362.941 67.4779 363.842 67.2292 364.463 66.7319C365.085 66.2222 365.396 65.4951 365.396 64.5502C365.396 63.6054 365.085 62.8844 364.463 62.3871C363.842 61.8774 362.941 61.6227 361.76 61.6227H358.59V67.4779H361.76ZM377.661 69.79H370.725L369.289 73.0534H367.368L373.279 60.0003H375.125L381.056 73.0534H379.098L377.661 69.79ZM377.009 68.2983L374.193 61.9024L371.377 68.2983H377.009ZM384.939 61.6227H380.463V60.0003H391.26V61.6227H386.785V73.0534H384.939V61.6227ZM404.517 60.0003V73.0534H402.652V67.2355H395.157V73.0534H393.291V60.0003H395.157V65.6131H402.652V60.0003H404.517ZM413.422 68.5407V73.0534H411.576V68.5035L406.391 60.0003H408.386L412.563 66.8812L416.759 60.0003H418.606L413.422 68.5407Z" fill="white"/>
</g>
</g>
<defs>
<clipPath id="clip0_88_29751">
<rect width="485.33" height="114.8" fill="white"/>
</clipPath>
<clipPath id="clip1_88_29751">
<rect width="485.291" height="114.8" fill="white" transform="translate(0.0195312)"/>
</clipPath>
</defs>
</svg>
