<svg width="20" height="20" viewBox="0 0 20 20" fill="none" xmlns="http://www.w3.org/2000/svg">
<g clip-path="url(#clip0_926_2648)">
<path d="M18.125 20H1.875C0.8375 20 0 19.1625 0 18.125V3.125C0 2.0875 0.8375 1.25 1.875 1.25H18.125C19.1625 1.25 20 2.0875 20 3.125V18.125C20 19.1625 19.1625 20 18.125 20ZM1.875 2.5C1.525 2.5 1.25 2.775 1.25 3.125V18.125C1.25 18.475 1.525 18.75 1.875 18.75H18.125C18.475 18.75 18.75 18.475 18.75 18.125V3.125C18.75 2.775 18.475 2.5 18.125 2.5H1.875Z" fill="#5F998A"/>
<path d="M5.625 5C5.275 5 5 4.725 5 4.375V0.625C5 0.275 5.275 0 5.625 0C5.975 0 6.25 0.275 6.25 0.625V4.375C6.25 4.725 5.975 5 5.625 5ZM14.375 5C14.025 5 13.75 4.725 13.75 4.375V0.625C13.75 0.275 14.025 0 14.375 0C14.725 0 15 0.275 15 0.625V4.375C15 4.725 14.725 5 14.375 5ZM19.375 7.5H0.625C0.275 7.5 0 7.225 0 6.875C0 6.525 0.275 6.25 0.625 6.25H19.375C19.725 6.25 20 6.525 20 6.875C20 7.225 19.725 7.5 19.375 7.5Z" fill="#5F998A"/>
<path d="M5 12.5C5.69036 12.5 6.25 11.9404 6.25 11.25C6.25 10.5596 5.69036 10 5 10C4.30964 10 3.75 10.5596 3.75 11.25C3.75 11.9404 4.30964 12.5 5 12.5Z" fill="#5F998A"/>
<path d="M10 12.5C10.6904 12.5 11.25 11.9404 11.25 11.25C11.25 10.5596 10.6904 10 10 10C9.30964 10 8.75 10.5596 8.75 11.25C8.75 11.9404 9.30964 12.5 10 12.5Z" fill="#5F998A"/>
<path d="M15 12.5C15.6904 12.5 16.25 11.9404 16.25 11.25C16.25 10.5596 15.6904 10 15 10C14.3096 10 13.75 10.5596 13.75 11.25C13.75 11.9404 14.3096 12.5 15 12.5Z" fill="#5F998A"/>
<path d="M5 16.25C5.69036 16.25 6.25 15.6904 6.25 15C6.25 14.3096 5.69036 13.75 5 13.75C4.30964 13.75 3.75 14.3096 3.75 15C3.75 15.6904 4.30964 16.25 5 16.25Z" fill="#5F998A"/>
<path d="M10 16.25C10.6904 16.25 11.25 15.6904 11.25 15C11.25 14.3096 10.6904 13.75 10 13.75C9.30964 13.75 8.75 14.3096 8.75 15C8.75 15.6904 9.30964 16.25 10 16.25Z" fill="#5F998A"/>
<path d="M15 16.25C15.6904 16.25 16.25 15.6904 16.25 15C16.25 14.3096 15.6904 13.75 15 13.75C14.3096 13.75 13.75 14.3096 13.75 15C13.75 15.6904 14.3096 16.25 15 16.25Z" fill="#5F998A"/>
</g>
<defs>
<clipPath id="clip0_926_2648">
<rect width="20" height="20" fill="white"/>
</clipPath>
</defs>
</svg>
