<svg width="21" height="20" viewBox="0 0 21 20" fill="none" xmlns="http://www.w3.org/2000/svg">
<g clip-path="url(#clip0_575_2211)">
<path d="M14.9962 12.1125C14.7529 11.9779 13.5407 11.3385 13.3153 11.252C13.0898 11.1606 12.9246 11.1174 12.7617 11.3866C12.5965 11.6534 12.1277 12.2471 11.9804 12.4274C11.8375 12.6053 11.6924 12.6269 11.4491 12.4947C10.0025 11.7159 9.05382 11.1054 8.10063 9.34345C7.84838 8.87474 8.35288 8.90839 8.82389 7.89644C8.90426 7.71856 8.86408 7.56713 8.80157 7.43253C8.73907 7.29792 8.24796 5.99512 8.04259 5.46391C7.84391 4.94712 7.63854 5.01923 7.48898 5.00961C7.34611 5 7.18315 5 7.01796 5C6.85277 5 6.58713 5.0673 6.36167 5.3293C6.13621 5.59611 5.5 6.2379 5.5 7.54069C5.5 8.84349 6.38176 10.1054 6.5023 10.2833C6.62731 10.4612 8.2368 13.1341 10.708 14.2854C12.2706 15.0113 12.8822 15.0738 13.6635 14.9488C14.139 14.8719 15.119 14.3095 15.3221 13.6869C15.5253 13.0668 15.5253 12.5355 15.465 12.425C15.4047 12.3072 15.2395 12.2399 14.9962 12.1125Z" fill="white"/>
<path d="M19.7231 6.125C19.2186 4.92634 18.4954 3.85045 17.5736 2.92634C16.6517 2.00446 15.5758 1.27902 14.375 0.776786C13.1473 0.261161 11.8437 0 10.5 0H10.4554C9.1027 0.00669643 7.79245 0.274554 6.56032 0.801339C5.3706 1.31027 4.30365 2.03348 3.39072 2.95536C2.47778 3.87723 1.76127 4.94866 1.26574 6.14286C0.752356 7.37946 0.49343 8.6942 0.500127 10.0469C0.506823 11.596 0.877354 13.1339 1.57154 14.5089V17.9018C1.57154 18.4688 2.03136 18.9286 2.59831 18.9286H5.99336C7.36834 19.6228 8.90627 19.9933 10.4554 20H10.5022C11.8393 20 13.1361 19.7411 14.3571 19.2344C15.5513 18.7366 16.6249 18.0223 17.5446 17.1094C18.4664 16.1964 19.1919 15.1295 19.6985 13.9397C20.2253 12.7076 20.4932 11.3973 20.4999 10.0446C20.5066 8.68527 20.2432 7.36607 19.7231 6.125ZM16.3504 15.9018C14.7857 17.4509 12.7098 18.3036 10.5 18.3036H10.4621C9.11609 18.2969 7.77905 17.9621 6.59826 17.3326L6.41077 17.2321H3.26795V14.0893L3.1675 13.9018C2.53805 12.721 2.20323 11.3839 2.19653 10.0379C2.18761 7.8125 3.03804 5.72321 4.59829 4.14955C6.15631 2.57589 8.23887 1.70536 10.4643 1.69643H10.5022C11.6183 1.69643 12.7009 1.91295 13.7209 2.34152C14.7165 2.75893 15.6093 3.35938 16.3772 4.12723C17.1428 4.89286 17.7454 5.78795 18.1629 6.78348C18.5959 7.81473 18.8124 8.90848 18.8079 10.0379C18.7945 12.2612 17.9218 14.3438 16.3504 15.9018Z" fill="white"/>
</g>
<defs>
<clipPath id="clip0_575_2211">
<rect width="20" height="20" fill="white" transform="translate(0.5)"/>
</clipPath>
</defs>
</svg>
