<svg width="20" height="20" viewBox="0 0 20 20" fill="none" xmlns="http://www.w3.org/2000/svg">
<g clip-path="url(#clip0_926_2661)">
<path d="M10.4009 12.9181C10.1565 13.1622 10.1565 13.5578 10.4009 13.8019C10.5231 13.9241 10.6828 13.985 10.8428 13.985C11.0028 13.985 11.1625 13.9241 11.2846 13.8019L14.9762 10.0128L11.2846 6.22344C11.0406 5.97938 10.645 5.97938 10.4009 6.22344C10.1565 6.4675 10.1565 6.86312 10.4009 7.10719L12.6615 9.36812H0.621826C0.276514 9.36812 -0.00317383 9.64813 -0.00317383 9.99312C-0.00317383 10.3381 0.276514 10.6181 0.621826 10.6181H12.7009L10.4009 12.9181ZM18.7531 0H7.50308C6.81245 0 6.25274 0.559687 6.25274 1.25V6.875H7.51118V2.01219C7.51118 1.59469 7.84993 1.25594 8.26743 1.25594H17.9687C18.3868 1.25594 18.7249 1.59469 18.7249 2.01219L18.7446 17.9944C18.7446 18.4119 18.4065 18.7506 17.9883 18.7506H8.26774C7.85024 18.7506 7.51149 18.4119 7.51149 17.9944V13.1044L6.25306 13.1059V18.75C6.25306 19.4403 6.81274 20 7.50339 20H18.7534C19.4437 20 20.0034 19.4403 20.0034 18.75V1.25C20.0031 0.559687 19.4434 0 18.7531 0Z" fill="#5F998A"/>
</g>
<defs>
<clipPath id="clip0_926_2661">
<rect width="20" height="20" fill="white"/>
</clipPath>
</defs>
</svg>
