<svg width="20" height="20" viewBox="0 0 20 20" fill="none" xmlns="http://www.w3.org/2000/svg">
<path d="M17.6977 4.40703L10.1977 1.90703C10.0694 1.86426 9.93064 1.86426 9.80234 1.90703L2.30234 4.40703C2.17789 4.44852 2.06965 4.52811 1.99296 4.63453C1.91626 4.74096 1.87499 4.86882 1.875 5V11.25C1.875 11.4158 1.94085 11.5747 2.05806 11.6919C2.17527 11.8092 2.33424 11.875 2.5 11.875C2.66576 11.875 2.82473 11.8092 2.94194 11.6919C3.05915 11.5747 3.125 11.4158 3.125 11.25V5.86719L5.74922 6.74141C5.052 7.86782 4.83029 9.22488 5.13276 10.5146C5.43524 11.8043 6.23718 12.9213 7.3625 13.6203C5.95625 14.1719 4.74062 15.1695 3.85156 16.5336C3.80532 16.6023 3.77321 16.6795 3.75708 16.7608C3.74095 16.842 3.74113 16.9257 3.75761 17.0068C3.77409 17.088 3.80654 17.1651 3.85307 17.2336C3.89961 17.3021 3.9593 17.3607 4.02867 17.406C4.09805 17.4512 4.17573 17.4822 4.25719 17.4972C4.33866 17.5122 4.42229 17.5108 4.50322 17.4932C4.58414 17.4755 4.66076 17.442 4.72861 17.3945C4.79646 17.3469 4.85418 17.2864 4.89844 17.2164C6.07578 15.4102 7.93516 14.375 10 14.375C12.0648 14.375 13.9242 15.4102 15.1016 17.2164C15.1932 17.3527 15.3348 17.4473 15.4958 17.48C15.6567 17.5127 15.824 17.4807 15.9616 17.391C16.0991 17.3013 16.1958 17.1611 16.2308 17.0006C16.2657 16.8402 16.2362 16.6724 16.1484 16.5336C15.2594 15.1695 14.0391 14.1719 12.6375 13.6203C13.7617 12.9214 14.5629 11.8051 14.8653 10.5163C15.1678 9.22752 14.9468 7.87139 14.2508 6.74531L17.6977 5.59688C17.8221 5.55541 17.9304 5.47583 18.0071 5.3694C18.0839 5.26298 18.1251 5.13511 18.1251 5.00391C18.1251 4.87271 18.0839 4.74484 18.0071 4.63841C17.9304 4.53198 17.8221 4.4524 17.6977 4.41094V4.40703ZM13.75 9.375C13.7502 9.96786 13.6098 10.5523 13.3403 11.0804C13.0709 11.6085 12.6801 12.0652 12.1999 12.413C11.7198 12.7608 11.1641 12.9898 10.5783 13.0812C9.99256 13.1726 9.39347 13.1239 8.83019 12.9389C8.26692 12.754 7.75553 12.4381 7.33796 12.0173C6.9204 11.5964 6.60857 11.0826 6.42805 10.5179C6.24754 9.95316 6.20349 9.3537 6.29952 8.76867C6.39554 8.18364 6.62891 7.62972 6.98047 7.15234L9.80234 8.08984C9.93064 8.13261 10.0694 8.13261 10.1977 8.08984L13.0195 7.15234C13.4943 7.79612 13.7503 8.57509 13.75 9.375ZM10 6.84141L4.47656 5L10 3.15859L15.5234 5L10 6.84141Z" fill="#5F998A"/>
</svg>
