<svg width="19" height="32" viewBox="0 0 19 32" fill="none" xmlns="http://www.w3.org/2000/svg">
<path fill-rule="evenodd" clip-rule="evenodd" d="M9.47 3.3499C5.73103 3.3499 2.7 6.38094 2.7 10.1199L2.7 21.8799C2.7 25.6189 5.73103 28.6499 9.47 28.6499C13.209 28.6499 16.24 25.6189 16.24 21.8799V21.0399C16.24 19.6139 15.5377 18.3519 14.46 17.5809V20.1999C14.46 22.9558 12.2259 25.1899 9.47 25.1899C6.7141 25.1899 4.48 22.9558 4.48 20.1999V19.6399C4.48 16.5747 6.96482 14.0899 10.03 14.0899H11.76V11.7999C11.76 10.5352 10.7347 9.5099 9.47 9.5099C8.20527 9.5099 7.18 10.5352 7.18 11.7999V12.0799H4.48V11.7999C4.48 9.044 6.7141 6.8099 9.47 6.8099C12.2259 6.8099 14.46 9.044 14.46 11.7999V14.5416C17.079 15.5376 18.94 18.0714 18.94 21.0399V21.8799C18.94 27.11 14.7001 31.3499 9.47 31.3499C4.23987 31.3499 0 27.11 0 21.8799L0 10.1199C0 4.88977 4.23987 0.649902 9.47 0.649902C14.7001 0.649902 18.94 4.88976 18.94 10.1199V11.5199H16.24V10.1199C16.24 6.38093 13.209 3.3499 9.47 3.3499ZM11.76 16.7899H10.03C8.45599 16.7899 7.18 18.0659 7.18 19.6399V20.1999C7.18 21.4646 8.20527 22.4899 9.47 22.4899C10.7347 22.4899 11.76 21.4646 11.76 20.1999V16.7899Z" fill="url(#paint0_linear_686_451)"/>
<defs>
<linearGradient id="paint0_linear_686_451" x1="0" y1="0.649902" x2="28.7237" y2="21.3529" gradientUnits="userSpaceOnUse">
<stop stop-color="#D9D9D9"/>
<stop offset="0.0001" stop-color="#7300E4"/>
<stop offset="0.455965" stop-color="#E300A4"/>
<stop offset="1" stop-color="#FFB763"/>
</linearGradient>
</defs>
</svg>
